<?xml version="1.0" encoding="utf-8"?>
<!-- Generator: Adobe Illustrator 20.0.0, SVG Export Plug-In . SVG Version: 6.00 Build 0)  -->
<svg version="1.1" xmlns="http://www.w3.org/2000/svg" xmlns:xlink="http://www.w3.org/1999/xlink" x="0px" y="0px"
	 viewBox="0 0 432 432" style="enable-background:new 0 0 432 432;" xml:space="preserve">
<style type="text/css">
	.st0{display:none;}
	.st1{fill:#FFFFFF;stroke:#231F20;stroke-miterlimit:10;}
	.st2{display:inline;fill:#FFFFFF;stroke:#231F20;stroke-miterlimit:10;}
	.st3{display:inline;fill:#483A89;stroke:#231F20;stroke-miterlimit:10;}
	.st4{display:inline;fill:#253360;stroke:#231F20;stroke-miterlimit:10;}
	.st5{display:inline;fill:#6F2B87;stroke:#231F20;stroke-miterlimit:10;}
	.st6{display:inline;fill:#273994;stroke:#231F20;stroke-miterlimit:10;}
	.st7{display:inline;fill:#C059A0;stroke:#231F20;stroke-miterlimit:10;}
	.st8{fill:#BF21B8;}
	.st9{fill:#06173F;}
	.st10{fill:#386FE8;}
	.st11{fill:#FF45D3;}
	.st12{fill:#3D5AA8;}
	.st13{fill:#253360;}
</style>
<g id="Layer_1" class="st0">
	<rect x="-144" class="st1" width="576" height="720"/>
	<polygon class="st2" points="-144,360 -144,0 432,0 	"/>
	<polygon class="st2" points="-144,360 432,720 -144,720 	"/>
	<polygon class="st3" points="-144,360 72,225 72,495 	"/>
	<polygon class="st4" points="-144,360 72,495 -144,720 	"/>
	<polygon class="st5" points="-144,360 -144,0 72,225 	"/>
	<polygon class="st6" points="432,720 -144,720 72,495 	"/>
	<polygon class="st7" points="72,225 -144,0 432,0 	"/>
</g>
<g id="Layer_2">
	<polygon class="st8" points="216,216 0,0 432,0 	"/>
	<polygon class="st9" points="432,432 216,432 216,216 	"/>
	<polygon class="st10" points="216,216 0,216 0,0 	"/>
	<polygon class="st11" points="216,0 432,0 216,216 	"/>
	<polygon class="st12" points="0,432 0,216 216,216 	"/>
	<polygon class="st13" points="0,432 216,216 216,432 	"/>
</g>
</svg>
