<?xml version="1.0" encoding="utf-8"?>
<!-- Generator: Adobe Illustrator 21.1.0, SVG Export Plug-In . SVG Version: 6.00 Build 0)  -->
<svg version="1.1" id="Layer_1" xmlns="http://www.w3.org/2000/svg" xmlns:xlink="http://www.w3.org/1999/xlink" x="0px" y="0px"
	 viewBox="0 0 362 193.3" style="enable-background:new 0 0 362 193.3;" xml:space="preserve">
<style type="text/css">
	.st0{fill:#FFFFFF;stroke:#FFFFFF;stroke-miterlimit:10;}
	.st1{fill:#654EA1;}
	.st2{fill:#039B76;}
	.st3{fill:#FFFFFF;}
</style>
<g id="Layer_2">
</g>
<g>
	<g>
		<g>
			<path class="st0" d="M90.5,99.8l23.1,50.8c0.7,1.2,1.2,3,1.2,3.5c0,0.9-0.7,1.6-2,1.6H96c-1.3,0-2.5-0.7-2.9-1.6l-23.9-52
				c-0.2-0.2-0.4-0.4-0.7-0.4h-34c-0.4,0-0.7,0.2-0.8,0.7l-10.2,50.7c-0.2,1.3-1.8,2.7-3.1,2.7H6c-1.3,0-2.2-1.2-2.2-2.2
				c0-0.4,0.4-2.7,2.2-9.6L33.4,12c0.2-1,1-2.1,2.6-2.2h52.8c29.3,0,44.1,16.5,44.1,39.1C132.8,73.5,116,94.7,90.5,99.8z M49.5,27.3
				L37.1,84.7c-0.1,0.5,0.3,1,0.8,1h32.8c21.1,0,42.4-14.1,42.4-36.9c0.2-13.7-8.1-22.1-27.5-22.1H50.3
				C49.9,26.7,49.6,26.9,49.5,27.3z"/>
			<path class="st0" d="M158.3,152.3c-0.2,1.3-2.9,3.4-4.2,3.4H142c-1.3,0-3.1-2-3.1-3c0-0.7,0.3-2.5,0.7-4.6l10-57
				c0.4-1.4,2.8-3.2,4.1-3.2h12.2c1.3,0,3,1.5,2.9,2.6L158.3,152.3z"/>
			<path class="st0" d="M229,71.9l-13.7,79.9c-0.2,1.3-3.1,3.9-4.4,3.9l-12.2,0.2c-1.3,0-3.1-2.5-3.1-3.7c0-0.4,0.2-1.6,0.4-2.7
				l13.2-77.7h-17.8c-1.3,0-2.7-1.8-2.5-3.1l2-10.8c0.2-1.3,2.5-3.1,3.8-3.1h17.8l3.6-16.4c4.7-24.9,11.4-30.3,34.4-27.8
				c7.8,0.8,10.4,1.4,13.8,3.2c2,1.2,3.9,0.8,1.3,6.5l-3.8,7.6c-0.9,1.8-2.1,1.6-4.4,0.5c-4.5-1.8-7.3-1.9-7.3-1.9
				c-7.2-0.7-11.7-1.9-14.4,11.8l-3.6,16.4h38.5l4-20.8c0.2-1.3,3.4-3.8,4.7-3.8h12.1c1.3,0,3.1,2.5,2.9,3.8l-4,20.8h17.8
				c1.3,0,2.5,1.6,2.5,2.9c0,0.2-0.2,1.6-0.4,2.7l-1.6,8.3c-0.2,1.3-2.5,3.1-3.8,3.1H287l-8.3,51.6c-0.4,2.5-0.9,5.3-0.9,7.2
				c0,8.3,5.3,8.6,10.9,8.6c4.4,0,6.7,0.1,10.5-2c2.5-1.3,3.6-0.2,4.3,1.6c0,0,2.7,12.3,0.4,13.4c-4.9,2.7-13,3.1-21.5,3.1
				c-14.8,0-24.3-6.7-24.3-21.2c0-2.9,0.2-7.4,0.9-10.8l8.3-51.6H229L229,71.9L229,71.9z"/>
		</g>
		<g>
			<path class="st1" d="M327.4,51c0.2-1.1,1.2-2.3,3.9-0.9c0,0,23.1,9,25.4,11.3c1.2,1.2,1.2,2.6,0,3.8c-2.1,2-27.2,11.5-29.8,12.3
				c-1.3,0.4-3.3-0.2-3-2.4C324.2,71.7,327.4,51,327.4,51z"/>
		</g>
	</g>
</g>
<path class="st2" d="M176.7,64.6c0,8.9-8.2,16-17,16s-15-7.2-15-16s9.2-16,18-16S176.7,55.7,176.7,64.6z"/>
<g>
	<path class="st3" d="M8,181.5v1.5c0,1.1,0,2,0,2.6s0,1.1,0.1,1.4c0,0.3,0.1,0.6,0.2,0.7c0.1,0.2,0.3,0.3,0.5,0.3
		c0.3,0,0.7,0.1,0.9,0.1c0.2,0,0.3,0.1,0.3,0.2c0,0.1-0.1,0.2-0.4,0.2c-0.3,0-0.6,0-0.9,0c-0.3,0-0.6,0-0.9,0c-0.2,0-0.4,0-0.6,0
		c-0.1,0-0.3,0-0.5,0c-0.2,0-0.3,0-0.5,0c-0.1,0-0.3,0-0.5,0c-0.2,0-0.5,0-0.7,0c-0.3,0-0.5,0-0.7,0c-0.3,0-0.4-0.1-0.4-0.2
		c0-0.1,0.1-0.2,0.3-0.2c0.2,0,0.4,0,0.7-0.1c0.2,0,0.3-0.1,0.4-0.3c0.1-0.2,0.1-0.4,0.2-0.7c0.1-0.5,0.1-1.8,0.1-4v-3.3
		c0-0.7,0-1.4,0-1.9c0-0.6,0-1,0-1.2c0-0.2,0-0.5,0-0.8c0-0.3-0.1-0.6-0.2-0.7c-0.1-0.2-0.3-0.3-0.6-0.3c-0.1,0-0.4-0.1-0.7-0.1
		c-0.2,0-0.3,0-0.3-0.1c0-0.1,0.1-0.2,0.4-0.2c0.2,0,0.5,0,1,0c0.4,0,0.8,0,1.1,0c0.3,0,0.5,0,0.6,0c0.8,0,1.9,0,3.1,0
		c1.2,0,1.8,0,1.8,0c0.4,0,0.7,0,0.8-0.1c0,0,0.1,0,0.2-0.1c0.1,0,0.1,0,0.1,0c0.1,0,0.1,0.1,0.1,0.2c0,0.1,0,0.2-0.1,0.3
		c0,0.2-0.1,0.3-0.1,0.5c0,0.2,0,0.5,0,0.9c0,0.4,0,0.6,0,0.7c0,0.2-0.1,0.3-0.2,0.3c-0.1,0-0.2-0.1-0.2-0.3c0-0.3,0-0.6-0.1-0.7
		c-0.1-0.2-0.2-0.3-0.4-0.4c-0.2-0.1-0.5-0.2-0.8-0.2l-2.9-0.1c-0.1,0-0.2,0.1-0.2,0.3v4.7c0,0.1,0,0.2,0.1,0.2l2.4,0
		c0.4,0,0.7,0,0.8,0c0.4,0,0.6-0.1,0.8-0.3c0.1-0.1,0.2-0.2,0.2-0.2c0.1,0,0.1,0.1,0.1,0.2c0,0,0,0.1-0.1,0.4c0,0.3-0.1,0.5-0.1,0.8
		c0,0.5-0.1,1-0.1,1.4c0,0.2-0.1,0.4-0.2,0.4c-0.1,0-0.1-0.1-0.1-0.3c0-0.2,0-0.4-0.1-0.6c-0.1-0.4-0.4-0.6-0.9-0.7
		c-0.3,0-0.7,0-1.2,0s-1.1,0-1.5,0C8.1,181.4,8,181.4,8,181.5z"/>
	<path class="st3" d="M17.2,183v-3.3c0-0.7,0-1.4,0-1.9c0-0.6,0-1,0-1.2c0-0.2,0-0.5,0-0.8c0-0.6-0.2-0.9-0.6-1
		c-0.2-0.1-0.4-0.1-0.7-0.1c-0.2,0-0.3-0.1-0.3-0.2c0-0.1,0.1-0.2,0.4-0.2c0.1,0,0.5,0,1,0c0.5,0,0.8,0,1,0s0.3,0,0.4,0
		c0.1,0,0.2,0,0.5,0c0.2,0,0.6,0,0.9,0c0.4,0,0.7,0,0.8,0c0.3,0,0.4,0.1,0.4,0.2c0,0.1-0.1,0.2-0.3,0.2c-0.2,0-0.3,0-0.6,0.1
		c-0.2,0-0.4,0.1-0.5,0.3c-0.1,0.2-0.2,0.4-0.2,0.7c0,0.3,0,0.7,0,1.1c0,0.4,0,1.4,0,2.9v3.3c0,0.4,0,0.9,0,1.3c0,0.4,0,0.8,0,1.1
		c0,0.3,0,0.6,0,0.9c0,0.3,0,0.5,0,0.8c0,0.3,0.1,0.5,0.2,0.7c0.1,0.1,0.3,0.2,0.5,0.3c0.3,0,0.7,0.1,0.9,0.1c0.2,0,0.3,0.1,0.3,0.2
		c0,0.1-0.1,0.2-0.4,0.2c-0.3,0-0.6,0-1,0c-0.3,0-0.6,0-0.9,0c-0.3,0-0.4,0-0.6,0c-0.1,0-0.3,0-0.5,0c-0.2,0-0.3,0-0.4,0
		c-0.1,0-0.3,0-0.5,0c-0.2,0-0.5,0-0.7,0c-0.3,0-0.5,0-0.7,0c-0.2,0-0.4-0.1-0.4-0.2c0-0.1,0.1-0.2,0.3-0.2c0.2,0,0.4,0,0.7-0.1
		c0.2,0,0.3-0.1,0.4-0.3c0.1-0.2,0.1-0.4,0.2-0.7c0-0.3,0.1-0.7,0.1-1c0-0.4,0-0.8,0-1.4C17.2,184.2,17.2,183.6,17.2,183z"/>
	<path class="st3" d="M26.4,178.1l0.2,7.9c0,0.7,0.1,1.2,0.2,1.5s0.3,0.5,0.5,0.6c0.2,0.1,0.6,0.1,1,0.1c0.2,0,0.3,0.1,0.3,0.2
		c0,0.1-0.1,0.2-0.4,0.2c-0.3,0-0.5,0-0.6,0c-0.1,0-0.4,0-0.9,0c-0.5,0-0.7,0-0.8,0c0,0-0.2,0-0.6,0c-0.4,0-0.7,0-0.8,0
		s-0.3,0-0.6,0c-0.3,0-0.4-0.1-0.4-0.2c0-0.1,0.1-0.2,0.3-0.2c0.3,0,0.6,0,0.8-0.1c0.2-0.1,0.4-0.3,0.5-0.6s0.1-0.9,0.1-1.7
		l0.2-11.1c0-0.4,0.1-0.6,0.2-0.6c0.1,0,0.2,0,0.3,0.1c0.1,0.1,0.2,0.2,0.4,0.4c1.4,1.5,2.5,2.6,3.3,3.5c0.8,0.8,1.6,1.7,2.5,2.5
		c0.3,0.3,0.6,0.6,1,1.1c0.4,0.4,0.8,0.8,1.1,1.1c0.3,0.3,0.7,0.7,1.2,1.2c0.5,0.5,0.7,0.8,0.8,0.8h0.1l-0.2-8.4
		c0-0.6-0.1-1-0.1-1.2c-0.1-0.2-0.3-0.4-0.5-0.5c-0.2-0.1-0.5-0.1-1-0.1c-0.2,0-0.3-0.1-0.3-0.2c0-0.1,0.2-0.2,0.5-0.2
		c0.2,0,0.5,0,0.9,0c0.4,0,0.7,0,0.9,0s0.4,0,0.5,0c0,0,0.1,0,0.3,0s0.4,0,0.7,0c0.3,0,0.6,0,0.8,0c0.3,0,0.4,0.1,0.4,0.2
		c0,0.1-0.1,0.2-0.3,0.2s-0.4,0-0.6,0.1c-0.3,0.1-0.4,0.2-0.5,0.5c-0.1,0.2-0.1,0.6-0.1,1.1l-0.2,11.8c0,0.4-0.1,0.6-0.2,0.6
		c-0.1,0-0.4-0.1-0.6-0.4c-0.4-0.4-0.9-0.9-1.3-1.3c-0.4-0.4-1-1-1.6-1.6c-0.7-0.7-1.2-1.2-1.5-1.6c-0.4-0.4-0.7-0.7-1-1
		c-0.3-0.3-0.8-0.8-1.4-1.5c-0.6-0.6-1.1-1.2-1.6-1.8s-0.8-0.9-1-1.2S26.5,178.1,26.4,178.1L26.4,178.1z"/>
	<path class="st3" d="M43.1,183v-3.3c0-0.7,0-1.4,0-1.9c0-0.6,0-1,0-1.2c0-0.2,0-0.5,0-0.8c0-0.3-0.1-0.6-0.2-0.7
		c-0.1-0.2-0.3-0.3-0.6-0.3c-0.1,0-0.4-0.1-0.7-0.1c-0.2,0-0.3-0.1-0.3-0.2c0-0.1,0.1-0.2,0.4-0.2c0.2,0,0.6,0,1,0
		c0.4,0,0.8,0,1.1,0s0.5,0,0.6,0c2.8,0,4.4,0,4.6,0c0.4-0.1,0.7-0.1,0.8-0.1c0,0,0.1,0,0.1,0c0.1,0,0.1,0,0.2,0
		c0.1,0,0.1,0.1,0.1,0.2c0,0,0,0.2-0.1,0.4c0,0.2-0.1,0.5-0.1,0.8c0,0.2,0,0.4,0,0.7c0,0.3,0,0.5-0.1,0.6c0,0.1-0.1,0.2-0.2,0.2
		c-0.1,0-0.2-0.1-0.2-0.3c0-0.3,0-0.5-0.1-0.7c-0.1-0.2-0.2-0.3-0.4-0.4s-0.5-0.2-0.9-0.2c-0.4,0-1.3-0.1-2.6-0.1
		c-0.1,0-0.1,0.1-0.1,0.2v4.7c0,0.1,0,0.2,0.1,0.2c1.7,0,2.7,0,3,0c0.5,0,0.8-0.1,0.9-0.3c0.1-0.2,0.2-0.3,0.3-0.3
		c0.1,0,0.1,0.1,0.1,0.2c0,0,0,0.2-0.1,0.4s-0.1,0.6-0.1,0.9c0,0.5-0.1,0.9-0.1,1.3c0,0.2-0.1,0.4-0.2,0.4c-0.1,0-0.2-0.1-0.2-0.2
		c0-0.1,0-0.2,0-0.2c0-0.1,0-0.2,0-0.2c0-0.1,0-0.1,0-0.2c-0.1-0.4-0.5-0.7-1-0.7c-0.3,0-1.2-0.1-2.6-0.1c-0.1,0-0.1,0.1-0.1,0.2
		v1.5v2.9c0,0.3,0,0.6,0.1,0.8s0.2,0.4,0.3,0.5s0.4,0.2,0.7,0.2c0.3,0,0.7,0.1,1.2,0.1c0.4,0,0.7,0,1,0c0.3,0,0.5-0.1,0.7-0.2
		c0.2-0.1,0.4-0.3,0.5-0.5c0.1-0.2,0.2-0.5,0.3-0.9c0-0.2,0.1-0.3,0.2-0.3c0.1,0,0.1,0.1,0.1,0.3c0,0.2,0,0.5-0.1,1
		c-0.1,0.5-0.1,0.8-0.2,1.1c-0.1,0.2-0.1,0.4-0.3,0.4c-0.1,0-0.4,0.1-0.7,0.1c-0.9,0-1.7,0-2.3,0c-0.6,0-1.2,0-1.6-0.1
		c-0.5,0-0.9,0-1.2,0c-0.2,0-0.3,0-0.4,0c-0.1,0-0.3,0-0.5,0c-0.2,0-0.5,0-0.7,0c-0.3,0-0.5,0-0.7,0c-0.2,0-0.4-0.1-0.4-0.2
		c0-0.1,0.1-0.2,0.3-0.2c0.2,0,0.4,0,0.7-0.1c0.2,0,0.3-0.1,0.4-0.3s0.1-0.4,0.2-0.7C43.1,186.5,43.1,185.2,43.1,183z"/>
	<path class="st3" d="M59,188.4l0.5-3.6H58v-1.1h1.7L60,181h-1.6v-1.1h1.8l0.5-3.5h1.1l-0.5,3.5h1.9l0.5-3.5h1.1l-0.5,3.5h1.5v1.1
		h-1.7l-0.3,2.7h1.6v1.1h-1.8l-0.5,3.6H62l0.5-3.6h-1.9l-0.5,3.6H59z M62.7,183.7L63,181h-1.9l-0.4,2.7H62.7z"/>
	<path class="st3" d="M72.5,187.6l-4.7-11.4c-0.2-0.5-0.4-0.8-0.6-1s-0.5-0.3-0.8-0.4c-0.2-0.1-0.4-0.1-0.7-0.1
		c-0.2,0-0.2-0.1-0.2-0.2c0-0.1,0.2-0.2,0.5-0.2c0.2,0,0.5,0,0.9,0c0.4,0,0.8,0,1.1,0c0.3,0,0.5,0,0.7,0c0.1,0,0.2,0,0.5,0
		c0.3,0,0.6,0,0.9,0c0.3,0,0.6,0,0.8,0c0.3,0,0.4,0.1,0.4,0.2c0,0.1-0.1,0.2-0.3,0.2c-0.4,0-0.6,0-0.7,0.1c-0.1,0.1-0.2,0.2-0.2,0.4
		c0,0.2,0.1,0.7,0.4,1.4l3.2,8.5h0.1c0.1-0.2,0.3-0.9,0.7-1.8s0.8-2.1,1.3-3.3c0.5-1.2,0.8-2.1,1.1-2.7c0.2-0.6,0.4-1.1,0.5-1.4
		c0.1-0.3,0.2-0.5,0.2-0.7c0-0.2-0.1-0.3-0.2-0.4c-0.2-0.1-0.4-0.1-0.7-0.1c-0.2,0-0.3,0-0.3-0.1c0-0.1,0.2-0.2,0.5-0.2
		c0.2,0,0.5,0,0.8,0c0.3,0,0.6,0,0.8,0c0.2,0,0.3,0,0.3,0c0,0,0.2,0,0.4,0c0.2,0,0.4,0,0.7,0c0.3,0,0.5,0,0.6,0
		c0.3,0,0.4,0.1,0.4,0.2c0,0.1-0.1,0.2-0.3,0.2c-0.4,0-0.7,0.1-0.9,0.2c-0.1,0.1-0.3,0.3-0.4,0.5s-0.3,0.6-0.6,1.2
		c-0.3,0.6-0.4,1-0.5,1.2c-0.1,0.2-0.3,0.6-0.5,1.2c-0.3,0.6-0.5,1-0.6,1.4s-0.3,0.7-0.5,1.2c-0.1,0.2-0.3,0.7-0.7,1.6
		c-0.4,0.8-0.6,1.5-0.8,1.9c-0.2,0.4-0.4,0.8-0.6,1.3c-0.2,0.5-0.3,0.8-0.4,0.9c-0.2,0.5-0.4,0.9-0.5,1s-0.1,0.2-0.2,0.3
		c-0.1,0.1-0.1,0.1-0.2,0.1c-0.1,0-0.2-0.1-0.3-0.2C72.8,188.3,72.7,188,72.5,187.6z"/>
	<path class="st3" d="M86.8,183.6h-4.1c-0.1,0-0.1,0.1-0.2,0.2l-1,2.7c-0.2,0.5-0.3,0.8-0.3,1.1c0,0.4,0.2,0.6,0.7,0.6h0.3
		c0.2,0,0.3,0.1,0.3,0.2c0,0.1-0.1,0.2-0.3,0.2c-0.1,0-0.3,0-0.5,0c-0.2,0-0.4,0-0.6,0c-0.2,0-0.3,0-0.4,0c-0.1,0-0.3,0-0.5,0
		c0,0-0.3,0-0.7,0c-0.5,0-0.8,0-0.9,0s-0.3,0-0.5,0c-0.2,0-0.4-0.1-0.4-0.2c0-0.1,0.1-0.2,0.2-0.2c0.2,0,0.4,0,0.6,0
		c0.4,0,0.7-0.2,0.9-0.5c0.2-0.3,0.4-0.7,0.7-1.2l4.6-11.7c0.1-0.3,0.2-0.5,0.3-0.6c0.1-0.1,0.1-0.1,0.2-0.1c0.1,0,0.3,0.2,0.5,0.6
		c0.1,0.1,0.2,0.6,0.6,1.4c0.3,0.8,0.7,1.7,1.1,2.7c0.4,1,0.9,2.3,1.6,4.1c0.7,1.7,1.1,2.9,1.4,3.4c0.3,0.8,0.6,1.3,0.9,1.5
		c0.3,0.3,0.5,0.4,0.8,0.5c0.2,0,0.5,0.1,0.8,0.1c0.2,0,0.2,0.1,0.2,0.2c0,0.1-0.1,0.1-0.2,0.1c-0.1,0-0.3,0-0.7,0
		c-1.3,0-2.5,0-3.5,0c-0.2,0-0.3,0-0.4,0s-0.1,0-0.1-0.1c0-0.1,0.1-0.2,0.3-0.2c0.1,0,0.2-0.1,0.2-0.3c0,0,0-0.1,0-0.2l-1.5-4
		C86.9,183.6,86.8,183.6,86.8,183.6z M83,182.7h3.4c0.1,0,0.1,0,0.1-0.1l-1.7-4.6c0-0.1-0.1-0.2-0.1-0.2c0,0-0.1,0.1-0.1,0.2
		l-1.7,4.6C82.9,182.6,83,182.7,83,182.7z"/>
	<path class="st3" d="M94.8,183v-3.3c0-0.7,0-1.4,0-1.9c0-0.6,0-1,0-1.2c0-0.2,0-0.5,0-0.8c0-0.3-0.1-0.6-0.2-0.7
		c-0.1-0.2-0.3-0.3-0.6-0.3c-0.1,0-0.4-0.1-0.7-0.1c-0.2,0-0.3-0.1-0.3-0.2c0-0.1,0.1-0.2,0.4-0.2c0.2,0,0.6,0,1,0
		c0.4,0,0.8,0,1.1,0s0.5,0,0.6,0c0.2,0,0.4,0,0.7,0c0.3,0,0.5,0,0.7,0c0.2,0,0.4,0,0.6,0c0.2,0,0.4,0,0.7,0c1,0,1.7,0.1,2.2,0.3
		c0.5,0.2,0.9,0.5,1.2,0.7c0.1,0.1,0.3,0.3,0.4,0.5c0.1,0.2,0.3,0.5,0.4,0.8c0.1,0.3,0.1,0.6,0.1,0.9c0,0.9-0.2,1.7-0.6,2.3
		c-0.4,0.7-0.9,1.2-1.6,1.6c-0.7,0.4-1.5,0.6-2.3,0.6c-0.2,0-0.3,0-0.4,0c-0.1,0-0.2-0.1-0.2-0.2c0-0.1,0.2-0.2,0.5-0.2
		c0.4,0,0.7-0.1,1.1-0.4c0.4-0.3,0.7-0.6,1-1.1c0.3-0.5,0.4-1,0.4-1.6c0-1.2-0.4-2.2-1.1-2.8c-0.5-0.5-1.1-0.7-1.8-0.7
		c-0.3,0-0.6,0-0.7,0.1c-0.1,0-0.1,0.2-0.1,0.4v7.5c0,2.1,0,3.5,0.1,4c0,0.3,0.1,0.5,0.2,0.7c0.1,0.2,0.3,0.3,0.5,0.3
		c0.3,0,0.7,0.1,0.9,0.1c0.2,0,0.3,0.1,0.3,0.2c0,0.1-0.1,0.2-0.4,0.2c-0.3,0-0.6,0-1,0c-0.3,0-0.6,0-0.9,0c-0.3,0-0.4,0-0.6,0
		c-0.1,0-0.3,0-0.5,0c-0.2,0-0.3,0-0.4,0c-0.1,0-0.3,0-0.5,0c-0.2,0-0.5,0-0.7,0c-0.3,0-0.5,0-0.7,0c-0.2,0-0.4-0.1-0.4-0.2
		c0-0.1,0.1-0.2,0.3-0.2c0.2,0,0.4,0,0.7-0.1c0.2,0,0.3-0.1,0.4-0.3c0.1-0.2,0.1-0.4,0.2-0.7C94.8,186.5,94.8,185.2,94.8,183z"/>
	<path class="st3" d="M112.4,188.7c-1.3,0-2.4-0.2-3.3-0.6c-1-0.4-1.7-1-2.3-1.7s-1.1-1.5-1.4-2.4c-0.3-0.9-0.4-1.7-0.4-2.6
		c0-1.2,0.3-2.3,0.8-3.4s1.4-2,2.5-2.8c1.1-0.7,2.6-1.1,4.3-1.1c1.1,0,2.2,0.2,3.1,0.5c0.9,0.3,1.7,0.8,2.4,1.4
		c0.6,0.6,1.1,1.3,1.5,2.2c0.3,0.9,0.5,1.8,0.5,2.9c0,1.4-0.3,2.7-0.9,3.9c-0.6,1.2-1.5,2.1-2.7,2.8
		C115.3,188.4,113.9,188.7,112.4,188.7z M113.2,187.8c0.6,0,1.2-0.1,1.8-0.4c0.6-0.3,1.2-0.9,1.7-1.8c0.5-0.9,0.7-2.2,0.7-3.8
		c0-1.4-0.2-2.5-0.7-3.6s-1.1-1.8-2-2.4s-1.7-0.8-2.8-0.8c-0.6,0-1.1,0.1-1.7,0.3c-0.5,0.2-1,0.5-1.4,0.9c-0.4,0.4-0.8,1-1.1,1.8
		c-0.3,0.8-0.4,1.7-0.4,2.8c0,1,0.1,1.9,0.4,2.7c0.3,0.8,0.6,1.6,1.1,2.2c0.5,0.6,1.1,1.1,1.8,1.5
		C111.5,187.6,112.3,187.8,113.2,187.8z"/>
	<path class="st3" d="M123.9,183v-3.3c0-0.7,0-1.4,0-1.9s0-1,0-1.2c0-0.2,0-0.5,0-0.8c0-0.3-0.1-0.6-0.2-0.7s-0.3-0.3-0.6-0.3
		c-0.1,0-0.4-0.1-0.7-0.1c-0.2,0-0.3-0.1-0.3-0.2c0-0.1,0.1-0.2,0.4-0.2c0.2,0,0.6,0,1,0c0.4,0,0.8,0,1.1,0c0.3,0,0.4,0,0.5,0
		c0.2,0,0.4,0,0.7,0c0.3,0,0.5,0,0.8,0s0.5,0,0.6,0c0.1,0,0.3,0,0.6,0c1.5,0,2.6,0.3,3.4,0.8c0.3,0.2,0.6,0.5,0.9,1
		c0.3,0.5,0.4,1,0.4,1.6c0,0.5-0.1,0.9-0.2,1.4c-0.2,0.4-0.4,0.9-0.8,1.4c-0.4,0.5-0.9,1-1.4,1.4c0.7,0.9,1.3,1.7,1.7,2.2
		c0.4,0.5,0.8,1,1.2,1.5c0.4,0.5,0.7,0.9,1.1,1.2c0.4,0.5,0.8,0.8,1.1,0.9c0.3,0.2,0.6,0.3,0.9,0.3c0.2,0,0.4,0.1,0.5,0.1
		c0.2,0,0.2,0.1,0.2,0.2c0,0.1-0.1,0.2-0.4,0.2h-1.8c-0.5,0-0.9,0-1.2-0.1s-0.6-0.1-0.8-0.3c-0.4-0.2-0.7-0.5-1.1-0.9
		s-0.8-1-1.4-1.8c-0.3-0.3-0.6-0.8-1-1.5c-0.4-0.6-0.7-1-0.8-1.1c-0.1-0.1-0.2-0.1-0.3-0.1l-1.6,0c-0.1,0-0.1,0-0.1,0.1v0.3
		c0,1.1,0,2,0,2.6c0,0.6,0,1.1,0.1,1.4c0,0.3,0.1,0.6,0.2,0.7c0.1,0.2,0.3,0.3,0.5,0.3c0.4,0,0.7,0.1,0.9,0.1c0.2,0,0.2,0.1,0.2,0.2
		c0,0.1-0.1,0.2-0.4,0.2c-0.3,0-0.6,0-0.9,0c-0.3,0-0.6,0-0.9,0c-0.3,0-0.4,0-0.6,0c-0.1,0-0.2,0-0.4,0c-0.2,0-0.3,0-0.4,0
		c-0.1,0-0.3,0-0.5,0c-0.2,0-0.5,0-0.7,0c-0.3,0-0.5,0-0.7,0c-0.2,0-0.4-0.1-0.4-0.2c0-0.1,0.1-0.2,0.3-0.2c0.2,0,0.4,0,0.7-0.1
		c0.2,0,0.3-0.1,0.4-0.3c0.1-0.2,0.1-0.4,0.2-0.7C123.9,186.5,123.9,185.2,123.9,183z M126.1,175.6v5.7c0,0.1,0,0.2,0,0.2
		c0,0,0.1,0.1,0.1,0.1c0.2,0.1,0.5,0.1,0.7,0.1c0.2,0,0.5,0,0.7,0c0.4,0,0.6,0,0.8-0.1c0.2,0,0.3-0.1,0.5-0.2
		c0.7-0.5,1.1-1.5,1.1-2.8c0-1.2-0.3-2.1-0.9-2.6c-0.6-0.5-1.2-0.8-1.9-0.8c-0.5,0-0.8,0-1,0.1C126.2,175.3,126.1,175.4,126.1,175.6
		z"/>
	<path class="st3" d="M140,188l-3.9-11.9c-0.2-0.7-0.5-1.2-0.7-1.3c-0.2-0.1-0.4-0.2-0.7-0.2c-0.1,0-0.2,0-0.2,0
		c-0.1,0-0.1-0.1-0.1-0.1c0-0.1,0.1-0.2,0.4-0.2c0.2,0,0.5,0,0.9,0c0.4,0,0.8,0,1.2,0c0.4,0,0.8,0,1.1,0c0.3,0,0.6,0,0.9,0
		c0.3,0,0.4,0.1,0.4,0.2c0,0.1-0.1,0.2-0.3,0.2s-0.4,0-0.5,0.1c-0.1,0.1-0.2,0.2-0.2,0.4c0,0.1,0.1,0.7,0.4,1.7
		c0.1,0.2,0.3,1,0.7,2.3c0.4,1.3,0.7,2.3,0.9,3.2c0.3,0.8,0.5,1.7,0.8,2.5h0.1l3.6-9.7c0.2-0.4,0.3-0.7,0.5-0.7
		c0.1,0,0.2,0.1,0.2,0.2c0.1,0.1,0.2,0.4,0.3,0.7l3.8,9.4h0.1c0.1-0.4,0.3-1,0.5-1.6c0.2-0.7,0.4-1.2,0.5-1.7
		c0.1-0.5,0.4-1.4,0.8-2.8c0.4-1.4,0.6-2.2,0.7-2.2c0.1-0.4,0.2-0.8,0.2-1.1c0-0.4-0.3-0.6-0.9-0.6c-0.2,0-0.3-0.1-0.3-0.2
		c0-0.1,0.1-0.2,0.4-0.2c0.2,0,0.5,0,0.8,0c0.3,0,0.6,0,0.8,0c0.2,0,0.3,0,0.3,0c0,0,0.1,0,0.2,0s0.4,0,0.7,0c0.3,0,0.5,0,0.6,0
		c0.2,0,0.3,0.1,0.3,0.2c0,0.1-0.1,0.2-0.3,0.2c-0.3,0-0.5,0-0.7,0.1c-0.2,0.1-0.3,0.2-0.4,0.4s-0.3,0.7-0.6,1.5
		c-0.2,0.5-0.5,1.4-0.9,2.7c-0.4,1.3-1,2.9-1.6,4.7c-0.6,1.8-1,3-1.2,3.7c-0.1,0.3-0.2,0.5-0.3,0.7c-0.1,0.1-0.2,0.2-0.3,0.2
		c-0.1,0-0.2-0.1-0.2-0.2c-0.1-0.1-0.2-0.4-0.3-0.8l-3.8-9.4h0c-1.9,5.1-3.1,8.2-3.6,9.3c-0.2,0.4-0.3,0.7-0.4,0.8
		c-0.1,0.1-0.2,0.2-0.3,0.2c-0.1,0-0.2-0.1-0.2-0.2C140.1,188.5,140.1,188.3,140,188z"/>
	<path class="st3" d="M157.8,183v-3.3c0-0.7,0-1.4,0-1.9c0-0.6,0-1,0-1.2c0-0.2,0-0.5,0-0.8c0-0.3-0.1-0.6-0.2-0.7
		c-0.1-0.2-0.3-0.3-0.6-0.3c-0.1,0-0.4-0.1-0.7-0.1c-0.2,0-0.3-0.1-0.3-0.2c0-0.1,0.1-0.2,0.4-0.2c0.2,0,0.6,0,1,0
		c0.4,0,0.8,0,1.1,0s0.5,0,0.6,0c2.8,0,4.4,0,4.6,0c0.4-0.1,0.7-0.1,0.8-0.1c0,0,0.1,0,0.1,0c0.1,0,0.1,0,0.2,0
		c0.1,0,0.1,0.1,0.1,0.2c0,0,0,0.2-0.1,0.4c0,0.2-0.1,0.5-0.1,0.8c0,0.2,0,0.4,0,0.7c0,0.3,0,0.5-0.1,0.6c0,0.1-0.1,0.2-0.2,0.2
		c-0.1,0-0.2-0.1-0.2-0.3c0-0.3,0-0.5-0.1-0.7c-0.1-0.2-0.2-0.3-0.4-0.4s-0.5-0.2-0.9-0.2c-0.4,0-1.3-0.1-2.6-0.1
		c-0.1,0-0.1,0.1-0.1,0.2v4.7c0,0.1,0,0.2,0.1,0.2c1.7,0,2.7,0,3,0c0.5,0,0.8-0.1,0.9-0.3c0.1-0.2,0.2-0.3,0.3-0.3
		c0.1,0,0.1,0.1,0.1,0.2c0,0,0,0.2-0.1,0.4s-0.1,0.6-0.1,0.9c0,0.5-0.1,0.9-0.1,1.3c0,0.2-0.1,0.4-0.2,0.4c-0.1,0-0.2-0.1-0.2-0.2
		c0-0.1,0-0.2,0-0.2c0-0.1,0-0.2,0-0.2c0-0.1,0-0.1,0-0.2c-0.1-0.4-0.5-0.7-1-0.7c-0.3,0-1.2-0.1-2.6-0.1c-0.1,0-0.1,0.1-0.1,0.2
		v1.5v2.9c0,0.3,0,0.6,0.1,0.8s0.2,0.4,0.3,0.5s0.4,0.2,0.7,0.2c0.3,0,0.7,0.1,1.2,0.1c0.4,0,0.7,0,1,0c0.3,0,0.5-0.1,0.7-0.2
		c0.2-0.1,0.4-0.3,0.5-0.5c0.1-0.2,0.2-0.5,0.3-0.9c0-0.2,0.1-0.3,0.2-0.3c0.1,0,0.1,0.1,0.1,0.3c0,0.2,0,0.5-0.1,1
		c-0.1,0.5-0.1,0.8-0.2,1.1c-0.1,0.2-0.1,0.4-0.3,0.4c-0.1,0-0.4,0.1-0.7,0.1c-0.9,0-1.7,0-2.3,0c-0.6,0-1.2,0-1.6-0.1
		c-0.5,0-0.9,0-1.2,0c-0.2,0-0.3,0-0.4,0c-0.1,0-0.3,0-0.5,0c-0.2,0-0.5,0-0.7,0c-0.3,0-0.5,0-0.7,0c-0.2,0-0.4-0.1-0.4-0.2
		c0-0.1,0.1-0.2,0.3-0.2c0.2,0,0.4,0,0.7-0.1c0.2,0,0.3-0.1,0.4-0.3s0.1-0.4,0.2-0.7C157.8,186.5,157.8,185.2,157.8,183z"/>
	<path class="st3" d="M174.3,183.6h-4.1c-0.1,0-0.1,0.1-0.2,0.2l-1,2.7c-0.2,0.5-0.3,0.8-0.3,1.1c0,0.4,0.2,0.6,0.7,0.6h0.3
		c0.2,0,0.3,0.1,0.3,0.2c0,0.1-0.1,0.2-0.3,0.2c-0.1,0-0.3,0-0.5,0c-0.2,0-0.4,0-0.6,0c-0.2,0-0.3,0-0.4,0c-0.1,0-0.3,0-0.5,0
		c0,0-0.3,0-0.7,0c-0.5,0-0.8,0-0.9,0s-0.3,0-0.5,0c-0.2,0-0.4-0.1-0.4-0.2c0-0.1,0.1-0.2,0.2-0.2c0.2,0,0.4,0,0.6,0
		c0.4,0,0.7-0.2,0.9-0.5c0.2-0.3,0.4-0.7,0.7-1.2l4.6-11.7c0.1-0.3,0.2-0.5,0.3-0.6c0.1-0.1,0.1-0.1,0.2-0.1c0.1,0,0.3,0.2,0.5,0.6
		c0.1,0.1,0.2,0.6,0.6,1.4c0.3,0.8,0.7,1.7,1.1,2.7c0.4,1,0.9,2.3,1.6,4.1c0.7,1.7,1.1,2.9,1.4,3.4c0.3,0.8,0.6,1.3,0.9,1.5
		c0.3,0.3,0.5,0.4,0.8,0.5c0.2,0,0.5,0.1,0.8,0.1c0.2,0,0.2,0.1,0.2,0.2c0,0.1-0.1,0.1-0.2,0.1c-0.1,0-0.3,0-0.7,0
		c-1.3,0-2.5,0-3.5,0c-0.2,0-0.3,0-0.4,0s-0.1,0-0.1-0.1c0-0.1,0.1-0.2,0.3-0.2c0.1,0,0.2-0.1,0.2-0.3c0,0,0-0.1,0-0.2l-1.5-4
		C174.5,183.6,174.4,183.6,174.3,183.6z M170.6,182.7h3.4c0.1,0,0.1,0,0.1-0.1l-1.7-4.6c0-0.1-0.1-0.2-0.1-0.2c0,0-0.1,0.1-0.1,0.2
		l-1.7,4.6C170.5,182.6,170.5,182.7,170.6,182.7z"/>
	<path class="st3" d="M182.4,183v-3.3c0-0.7,0-1.4,0-1.9s0-1,0-1.2c0-0.2,0-0.5,0-0.8c0-0.3-0.1-0.6-0.2-0.7s-0.3-0.3-0.6-0.3
		c-0.1,0-0.4-0.1-0.7-0.1c-0.2,0-0.3-0.1-0.3-0.2c0-0.1,0.1-0.2,0.4-0.2c0.2,0,0.6,0,1,0c0.4,0,0.8,0,1.1,0s0.4,0,0.5,0
		c0.2,0,0.4,0,0.7,0c0.3,0,0.5,0,0.8,0s0.5,0,0.6,0c0.1,0,0.3,0,0.6,0c1.5,0,2.6,0.3,3.4,0.8c0.3,0.2,0.6,0.5,0.9,1
		c0.3,0.5,0.4,1,0.4,1.6c0,0.5-0.1,0.9-0.2,1.4c-0.2,0.4-0.4,0.9-0.8,1.4c-0.4,0.5-0.9,1-1.4,1.4c0.7,0.9,1.3,1.7,1.7,2.2
		c0.4,0.5,0.8,1,1.2,1.5c0.4,0.5,0.7,0.9,1.1,1.2c0.4,0.5,0.8,0.8,1.1,0.9c0.3,0.2,0.6,0.3,0.9,0.3c0.2,0,0.4,0.1,0.5,0.1
		c0.2,0,0.2,0.1,0.2,0.2c0,0.1-0.1,0.2-0.4,0.2H193c-0.5,0-0.9,0-1.2-0.1s-0.6-0.1-0.8-0.3c-0.4-0.2-0.7-0.5-1.1-0.9s-0.8-1-1.4-1.8
		c-0.3-0.3-0.6-0.8-1-1.5c-0.4-0.6-0.7-1-0.8-1.1c-0.1-0.1-0.2-0.1-0.3-0.1l-1.6,0c-0.1,0-0.1,0-0.1,0.1v0.3c0,1.1,0,2,0,2.6
		c0,0.6,0,1.1,0.1,1.4c0,0.3,0.1,0.6,0.2,0.7c0.1,0.2,0.3,0.3,0.5,0.3c0.4,0,0.7,0.1,0.9,0.1c0.2,0,0.2,0.1,0.2,0.2
		c0,0.1-0.1,0.2-0.4,0.2c-0.3,0-0.6,0-0.9,0c-0.3,0-0.6,0-0.9,0c-0.3,0-0.4,0-0.6,0c-0.1,0-0.2,0-0.4,0c-0.2,0-0.3,0-0.4,0
		c-0.1,0-0.3,0-0.5,0c-0.2,0-0.5,0-0.7,0c-0.3,0-0.5,0-0.7,0c-0.2,0-0.4-0.1-0.4-0.2c0-0.1,0.1-0.2,0.3-0.2c0.2,0,0.4,0,0.7-0.1
		c0.2,0,0.3-0.1,0.4-0.3c0.1-0.2,0.1-0.4,0.2-0.7C182.4,186.5,182.4,185.2,182.4,183z M184.6,175.6v5.7c0,0.1,0,0.2,0,0.2
		s0.1,0.1,0.1,0.1c0.2,0.1,0.5,0.1,0.7,0.1c0.2,0,0.5,0,0.7,0c0.4,0,0.6,0,0.8-0.1c0.2,0,0.3-0.1,0.5-0.2c0.7-0.5,1.1-1.5,1.1-2.8
		c0-1.2-0.3-2.1-0.9-2.6c-0.6-0.5-1.2-0.8-1.9-0.8c-0.5,0-0.8,0-1,0.1C184.7,175.3,184.6,175.4,184.6,175.6z"/>
	<path class="st3" d="M204.3,181.5v1.5c0,1.1,0,2,0,2.6s0,1.1,0.1,1.4c0,0.3,0.1,0.6,0.2,0.7c0.1,0.2,0.3,0.3,0.5,0.3
		c0.3,0,0.7,0.1,0.9,0.1c0.2,0,0.3,0.1,0.3,0.2c0,0.1-0.1,0.2-0.4,0.2c-0.3,0-0.6,0-0.9,0s-0.6,0-0.9,0c-0.2,0-0.4,0-0.6,0
		c-0.1,0-0.3,0-0.5,0c-0.2,0-0.3,0-0.5,0c-0.1,0-0.3,0-0.5,0c-0.2,0-0.5,0-0.7,0c-0.3,0-0.5,0-0.7,0c-0.3,0-0.4-0.1-0.4-0.2
		c0-0.1,0.1-0.2,0.3-0.2c0.2,0,0.4,0,0.7-0.1c0.2,0,0.3-0.1,0.4-0.3c0.1-0.2,0.1-0.4,0.2-0.7c0.1-0.5,0.1-1.8,0.1-4v-3.3
		c0-0.7,0-1.4,0-1.9c0-0.6,0-1,0-1.2c0-0.2,0-0.5,0-0.8c0-0.3-0.1-0.6-0.2-0.7c-0.1-0.2-0.3-0.3-0.6-0.3c-0.1,0-0.4-0.1-0.7-0.1
		c-0.2,0-0.3,0-0.3-0.1c0-0.1,0.1-0.2,0.4-0.2c0.2,0,0.5,0,1,0c0.4,0,0.8,0,1.1,0s0.5,0,0.6,0c0.8,0,1.9,0,3.1,0s1.8,0,1.8,0
		c0.4,0,0.7,0,0.8-0.1c0,0,0.1,0,0.2-0.1c0.1,0,0.1,0,0.1,0c0.1,0,0.1,0.1,0.1,0.2c0,0.1,0,0.2-0.1,0.3c0,0.2-0.1,0.3-0.1,0.5
		c0,0.2,0,0.5,0,0.9c0,0.4,0,0.6,0,0.7c0,0.2-0.1,0.3-0.2,0.3c-0.1,0-0.2-0.1-0.2-0.3c0-0.3,0-0.6-0.1-0.7c-0.1-0.2-0.2-0.3-0.4-0.4
		c-0.2-0.1-0.5-0.2-0.8-0.2l-2.9-0.1c-0.1,0-0.2,0.1-0.2,0.3v4.7c0,0.1,0,0.2,0.1,0.2l2.4,0c0.4,0,0.7,0,0.8,0
		c0.4,0,0.6-0.1,0.8-0.3c0.1-0.1,0.2-0.2,0.2-0.2c0.1,0,0.1,0.1,0.1,0.2c0,0,0,0.1-0.1,0.4s-0.1,0.5-0.1,0.8c0,0.5-0.1,1-0.1,1.4
		c0,0.2-0.1,0.4-0.2,0.4c-0.1,0-0.1-0.1-0.1-0.3c0-0.2,0-0.4-0.1-0.6c-0.1-0.4-0.4-0.6-0.9-0.7c-0.3,0-0.7,0-1.2,0s-1.1,0-1.5,0
		C204.3,181.4,204.3,181.4,204.3,181.5z"/>
	<path class="st3" d="M218.9,188.7c-1.3,0-2.4-0.2-3.3-0.6c-1-0.4-1.7-1-2.3-1.7c-0.6-0.7-1.1-1.5-1.4-2.4c-0.3-0.9-0.4-1.7-0.4-2.6
		c0-1.2,0.3-2.3,0.8-3.4s1.4-2,2.5-2.8c1.1-0.7,2.6-1.1,4.3-1.1c1.1,0,2.2,0.2,3.1,0.5c0.9,0.3,1.7,0.8,2.4,1.4
		c0.6,0.6,1.1,1.3,1.5,2.2s0.5,1.8,0.5,2.9c0,1.4-0.3,2.7-0.9,3.9c-0.6,1.2-1.5,2.1-2.7,2.8C221.8,188.4,220.4,188.7,218.9,188.7z
		 M219.7,187.8c0.6,0,1.2-0.1,1.8-0.4c0.6-0.3,1.2-0.9,1.7-1.8c0.5-0.9,0.7-2.2,0.7-3.8c0-1.4-0.2-2.5-0.7-3.6c-0.5-1-1.1-1.8-2-2.4
		s-1.7-0.8-2.8-0.8c-0.6,0-1.1,0.1-1.7,0.3c-0.5,0.2-1,0.5-1.4,0.9s-0.8,1-1.1,1.8s-0.4,1.7-0.4,2.8c0,1,0.1,1.9,0.4,2.7
		s0.6,1.6,1.1,2.2c0.5,0.6,1.1,1.1,1.8,1.5C218,187.6,218.8,187.8,219.7,187.8z"/>
	<path class="st3" d="M230.6,183v-3.3c0-0.7,0-1.4,0-1.9s0-1,0-1.2c0-0.2,0-0.5,0-0.8c0-0.3-0.1-0.6-0.2-0.7s-0.3-0.3-0.6-0.3
		c-0.1,0-0.4-0.1-0.7-0.1c-0.2,0-0.3-0.1-0.3-0.2c0-0.1,0.1-0.2,0.4-0.2c0.2,0,0.6,0,1,0c0.4,0,0.8,0,1.1,0c0.3,0,0.4,0,0.5,0
		c0.2,0,0.4,0,0.7,0c0.3,0,0.5,0,0.8,0s0.5,0,0.6,0c0.1,0,0.3,0,0.6,0c1.5,0,2.6,0.3,3.4,0.8c0.3,0.2,0.6,0.5,0.9,1
		c0.3,0.5,0.4,1,0.4,1.6c0,0.5-0.1,0.9-0.2,1.4c-0.2,0.4-0.4,0.9-0.8,1.4c-0.4,0.5-0.9,1-1.4,1.4c0.7,0.9,1.3,1.7,1.7,2.2
		c0.4,0.5,0.8,1,1.2,1.5c0.4,0.5,0.7,0.9,1.1,1.2c0.4,0.5,0.8,0.8,1.1,0.9c0.3,0.2,0.6,0.3,0.9,0.3c0.2,0,0.4,0.1,0.5,0.1
		c0.2,0,0.2,0.1,0.2,0.2c0,0.1-0.1,0.2-0.4,0.2h-1.8c-0.5,0-0.9,0-1.2-0.1s-0.6-0.1-0.8-0.3c-0.4-0.2-0.7-0.5-1.1-0.9
		s-0.8-1-1.4-1.8c-0.3-0.3-0.6-0.8-1-1.5c-0.4-0.6-0.7-1-0.8-1.1c-0.1-0.1-0.2-0.1-0.3-0.1l-1.6,0c-0.1,0-0.1,0-0.1,0.1v0.3
		c0,1.1,0,2,0,2.6c0,0.6,0,1.1,0.1,1.4c0,0.3,0.1,0.6,0.2,0.7c0.1,0.2,0.3,0.3,0.5,0.3c0.4,0,0.7,0.1,0.9,0.1c0.2,0,0.2,0.1,0.2,0.2
		c0,0.1-0.1,0.2-0.4,0.2c-0.3,0-0.6,0-0.9,0c-0.3,0-0.6,0-0.9,0c-0.3,0-0.4,0-0.6,0c-0.1,0-0.2,0-0.4,0c-0.2,0-0.3,0-0.4,0
		c-0.1,0-0.3,0-0.5,0c-0.2,0-0.5,0-0.7,0c-0.3,0-0.5,0-0.7,0c-0.2,0-0.4-0.1-0.4-0.2c0-0.1,0.1-0.2,0.3-0.2c0.2,0,0.4,0,0.7-0.1
		c0.2,0,0.3-0.1,0.4-0.3c0.1-0.2,0.1-0.4,0.2-0.7C230.6,186.5,230.6,185.2,230.6,183z M232.8,175.6v5.7c0,0.1,0,0.2,0,0.2
		s0.1,0.1,0.1,0.1c0.2,0.1,0.5,0.1,0.7,0.1c0.2,0,0.5,0,0.7,0c0.4,0,0.6,0,0.8-0.1c0.2,0,0.3-0.1,0.5-0.2c0.7-0.5,1.1-1.5,1.1-2.8
		c0-1.2-0.3-2.1-0.9-2.6c-0.6-0.5-1.2-0.8-1.9-0.8c-0.5,0-0.8,0-1,0.1C232.8,175.3,232.8,175.4,232.8,175.6z"/>
	<path class="st3" d="M252.4,188l-3.9-11.9c-0.2-0.7-0.5-1.2-0.7-1.3c-0.2-0.1-0.4-0.2-0.7-0.2c-0.1,0-0.2,0-0.2,0
		c-0.1,0-0.1-0.1-0.1-0.1c0-0.1,0.1-0.2,0.4-0.2c0.2,0,0.5,0,0.9,0c0.4,0,0.8,0,1.2,0c0.4,0,0.8,0,1.1,0c0.3,0,0.6,0,0.9,0
		c0.3,0,0.4,0.1,0.4,0.2c0,0.1-0.1,0.2-0.3,0.2s-0.4,0-0.5,0.1c-0.1,0.1-0.2,0.2-0.2,0.4c0,0.1,0.1,0.7,0.4,1.7
		c0.1,0.2,0.3,1,0.7,2.3c0.4,1.3,0.7,2.3,0.9,3.2c0.3,0.8,0.5,1.7,0.8,2.5h0.1l3.6-9.7c0.2-0.4,0.3-0.7,0.5-0.7
		c0.1,0,0.2,0.1,0.2,0.2c0.1,0.1,0.2,0.4,0.3,0.7l3.8,9.4h0.1c0.1-0.4,0.3-1,0.5-1.6c0.2-0.7,0.4-1.2,0.5-1.7
		c0.1-0.5,0.4-1.4,0.8-2.8c0.4-1.4,0.6-2.2,0.7-2.2c0.1-0.4,0.2-0.8,0.2-1.1c0-0.4-0.3-0.6-0.9-0.6c-0.2,0-0.3-0.1-0.3-0.2
		c0-0.1,0.1-0.2,0.4-0.2c0.2,0,0.5,0,0.8,0c0.3,0,0.6,0,0.8,0c0.2,0,0.3,0,0.3,0c0,0,0.1,0,0.2,0c0.2,0,0.4,0,0.7,0
		c0.3,0,0.5,0,0.6,0c0.2,0,0.3,0.1,0.3,0.2c0,0.1-0.1,0.2-0.3,0.2c-0.3,0-0.5,0-0.6,0.1c-0.2,0.1-0.3,0.2-0.4,0.4
		c-0.1,0.2-0.3,0.7-0.6,1.5c-0.2,0.5-0.5,1.4-0.9,2.7c-0.4,1.3-1,2.9-1.6,4.7c-0.6,1.8-1,3-1.2,3.7c-0.1,0.3-0.2,0.5-0.3,0.7
		c-0.1,0.1-0.2,0.2-0.3,0.2c-0.1,0-0.2-0.1-0.2-0.2c-0.1-0.1-0.2-0.4-0.3-0.8l-3.8-9.4h0c-1.9,5.1-3.1,8.2-3.6,9.3
		c-0.2,0.4-0.3,0.7-0.4,0.8c-0.1,0.1-0.2,0.2-0.3,0.2c-0.1,0-0.2-0.1-0.2-0.2S252.5,188.3,252.4,188z"/>
	<path class="st3" d="M270.2,183v-3.3c0-0.7,0-1.4,0-1.9c0-0.6,0-1,0-1.2c0-0.2,0-0.5,0-0.8c0-0.6-0.2-0.9-0.6-1
		c-0.2-0.1-0.4-0.1-0.7-0.1c-0.2,0-0.3-0.1-0.3-0.2c0-0.1,0.1-0.2,0.4-0.2c0.1,0,0.5,0,1,0c0.5,0,0.8,0,1,0s0.3,0,0.4,0
		c0.1,0,0.2,0,0.5,0c0.2,0,0.6,0,0.9,0c0.4,0,0.7,0,0.8,0c0.3,0,0.4,0.1,0.4,0.2c0,0.1-0.1,0.2-0.3,0.2c-0.2,0-0.3,0-0.6,0.1
		c-0.2,0-0.4,0.1-0.5,0.3c-0.1,0.2-0.2,0.4-0.2,0.7c0,0.3,0,0.7,0,1.1c0,0.4,0,1.4,0,2.9v3.3c0,0.4,0,0.9,0,1.3c0,0.4,0,0.8,0,1.1
		s0,0.6,0,0.9s0,0.5,0,0.8c0,0.3,0.1,0.5,0.2,0.7c0.1,0.1,0.3,0.2,0.5,0.3c0.3,0,0.7,0.1,0.9,0.1c0.2,0,0.3,0.1,0.3,0.2
		c0,0.1-0.1,0.2-0.4,0.2c-0.3,0-0.6,0-1,0c-0.3,0-0.6,0-0.9,0c-0.3,0-0.4,0-0.6,0c-0.1,0-0.3,0-0.5,0c-0.2,0-0.3,0-0.4,0
		c-0.1,0-0.3,0-0.5,0c-0.2,0-0.5,0-0.7,0c-0.3,0-0.5,0-0.7,0c-0.2,0-0.4-0.1-0.4-0.2c0-0.1,0.1-0.2,0.3-0.2c0.2,0,0.4,0,0.7-0.1
		c0.2,0,0.3-0.1,0.4-0.3c0.1-0.2,0.1-0.4,0.2-0.7c0-0.3,0.1-0.7,0.1-1s0-0.8,0-1.4C270.2,184.2,270.2,183.6,270.2,183z"/>
	<path class="st3" d="M280.2,188.7c-1.1,0-2-0.2-2.7-0.5c-0.2-0.1-0.2-0.2-0.3-0.2s-0.1-0.2-0.1-0.4c0-0.3,0-0.5,0-0.8
		c0-0.3,0-0.5,0-0.7c0-0.2,0-0.4,0-0.6c0-0.2,0-0.3,0-0.4c0-0.3,0.1-0.5,0.2-0.5c0.1,0,0.2,0.1,0.2,0.3c0,0.3,0.1,0.6,0.2,1
		c0.2,0.7,0.5,1.1,1,1.4c0.5,0.3,1,0.5,1.6,0.5c0.4,0,0.8-0.1,1.1-0.2c0.3-0.1,0.6-0.3,0.8-0.5s0.4-0.4,0.5-0.7s0.2-0.5,0.2-0.8
		c0-0.5-0.1-1-0.4-1.5c-0.2-0.5-0.7-1-1.4-1.5l-0.9-0.7c-0.6-0.5-1.2-1-1.6-1.5c-0.4-0.5-0.7-1-0.9-1.5s-0.3-1-0.3-1.5
		c0-0.7,0.2-1.3,0.5-1.8c0.4-0.5,0.9-1,1.5-1.3c0.6-0.3,1.4-0.5,2.2-0.5c0.9,0,1.7,0.1,2.5,0.3c0.2,0.1,0.3,0.1,0.3,0.2
		c0,0,0,0.2,0,0.7c0,0.5,0,1,0,1.6c0,0.4-0.1,0.6-0.2,0.6c-0.1,0-0.2-0.1-0.2-0.3c0-0.1,0-0.2,0-0.3s-0.1-0.3-0.1-0.4
		c-0.1-0.2-0.2-0.3-0.3-0.5c-0.5-0.6-1.1-0.9-2-0.9c-0.7,0-1.2,0.2-1.6,0.5c-0.4,0.4-0.6,0.8-0.6,1.4c0,0.4,0.1,0.8,0.4,1.2
		c0.3,0.4,0.8,0.9,1.5,1.5l0.5,0.4c0.5,0.4,1,0.8,1.4,1.2s0.7,0.8,0.9,1.2c0.2,0.4,0.4,0.8,0.5,1.1c0.1,0.4,0.2,0.8,0.2,1.3
		c0,0.6-0.1,1.2-0.4,1.8c-0.3,0.6-0.7,1.1-1.3,1.5C282.4,188.5,281.4,188.7,280.2,188.7z"/>
	<path class="st3" d="M289.3,183v-3.3c0-0.7,0-1.4,0-1.9c0-0.6,0-1,0-1.2s0-0.5,0-0.8c0-0.3-0.1-0.6-0.2-0.7
		c-0.1-0.2-0.3-0.3-0.6-0.3c-0.1,0-0.4-0.1-0.7-0.1c-0.2,0-0.3-0.1-0.3-0.2c0-0.1,0.1-0.2,0.4-0.2c0.2,0,0.6,0,1,0
		c0.4,0,0.8,0,1.1,0s0.5,0,0.6,0c2.8,0,4.4,0,4.6,0c0.4-0.1,0.7-0.1,0.8-0.1c0,0,0.1,0,0.1,0c0.1,0,0.1,0,0.2,0
		c0.1,0,0.1,0.1,0.1,0.2c0,0,0,0.2-0.1,0.4s-0.1,0.5-0.1,0.8c0,0.2,0,0.4,0,0.7c0,0.3,0,0.5-0.1,0.6c0,0.1-0.1,0.2-0.2,0.2
		c-0.1,0-0.2-0.1-0.2-0.3c0-0.3,0-0.5-0.1-0.7c-0.1-0.2-0.2-0.3-0.4-0.4c-0.2-0.1-0.5-0.2-0.9-0.2c-0.4,0-1.3-0.1-2.6-0.1
		c-0.1,0-0.1,0.1-0.1,0.2v4.7c0,0.1,0,0.2,0.1,0.2c1.7,0,2.7,0,3,0c0.5,0,0.8-0.1,0.9-0.3c0.1-0.2,0.2-0.3,0.3-0.3
		c0.1,0,0.1,0.1,0.1,0.2c0,0,0,0.2-0.1,0.4s-0.1,0.6-0.1,0.9c0,0.5-0.1,0.9-0.1,1.3c0,0.2-0.1,0.4-0.2,0.4c-0.1,0-0.2-0.1-0.2-0.2
		c0-0.1,0-0.2,0-0.2c0-0.1,0-0.2,0-0.2c0-0.1,0-0.1,0-0.2c-0.1-0.4-0.5-0.7-1-0.7c-0.3,0-1.2-0.1-2.6-0.1c-0.1,0-0.1,0.1-0.1,0.2
		v1.5v2.9c0,0.3,0,0.6,0.1,0.8c0.1,0.2,0.2,0.4,0.3,0.5c0.1,0.1,0.4,0.2,0.7,0.2c0.3,0,0.7,0.1,1.2,0.1c0.4,0,0.7,0,1,0
		c0.3,0,0.5-0.1,0.7-0.2c0.2-0.1,0.4-0.3,0.5-0.5c0.1-0.2,0.2-0.5,0.3-0.9c0-0.2,0.1-0.3,0.2-0.3c0.1,0,0.1,0.1,0.1,0.3
		c0,0.2,0,0.5-0.1,1c-0.1,0.5-0.1,0.8-0.2,1.1c-0.1,0.2-0.1,0.4-0.3,0.4c-0.1,0-0.4,0.1-0.7,0.1c-0.9,0-1.7,0-2.3,0
		c-0.6,0-1.2,0-1.6-0.1c-0.5,0-0.9,0-1.2,0c-0.2,0-0.3,0-0.4,0c-0.1,0-0.3,0-0.5,0c-0.2,0-0.5,0-0.7,0c-0.3,0-0.5,0-0.7,0
		c-0.2,0-0.4-0.1-0.4-0.2c0-0.1,0.1-0.2,0.3-0.2c0.2,0,0.4,0,0.7-0.1c0.2,0,0.3-0.1,0.4-0.3s0.1-0.4,0.2-0.7
		C289.3,186.5,289.3,185.2,289.3,183z"/>
	<path class="st3" d="M299.4,180.3h5.2c0.4,0,0.6,0.1,0.6,0.3c0,0.1-0.1,0.2-0.2,0.2c-0.1,0.1-0.3,0.1-0.7,0.2c0,0-0.4,0.1-1.1,0.2
		c-0.7,0.1-1.5,0.3-2.2,0.4c-0.7,0.1-1.2,0.2-1.5,0.3c-0.1,0-0.3,0.1-0.5,0.2c-0.2,0.1-0.3,0.1-0.3,0.1c-0.1,0-0.1-0.1-0.1-0.4
		l0.3-1.3c0-0.1,0.1-0.2,0.1-0.2C299.1,180.3,299.2,180.3,299.4,180.3z"/>
	<path class="st3" d="M320.1,185.2v2c0,0.3,0,0.4,0,0.5c0,0.1-0.1,0.1-0.2,0.2c-1.1,0.6-2.6,0.8-4.5,0.8c-1.2,0-2.3-0.1-3.3-0.4
		s-1.9-0.7-2.7-1.3c-0.8-0.6-1.4-1.4-1.9-2.3s-0.7-2-0.7-3.3c0-0.9,0.1-1.8,0.4-2.6s0.7-1.5,1.2-2.1s1-1.1,1.6-1.4
		c0.6-0.3,1.1-0.6,1.7-0.8c0.6-0.2,1.1-0.3,1.6-0.3c0.5-0.1,1.1-0.1,1.7-0.1c0.6,0,1.2,0,1.9,0.1s1.2,0.1,1.4,0.2
		c0.5,0.1,1,0.2,1.5,0.2c0.2,0,0.3,0.1,0.3,0.2c0,0,0,0.1,0,0.3c0,0.2,0,0.6-0.1,1.1s0,1,0,1.6c0,0.3-0.1,0.4-0.2,0.4
		c-0.1,0-0.2-0.1-0.2-0.3c-0.1-0.7-0.3-1.2-0.6-1.5c-0.3-0.4-0.9-0.7-1.6-1s-1.6-0.4-2.5-0.4c-0.4,0-0.8,0-1.2,0.1
		c-0.4,0-0.8,0.2-1.2,0.3c-0.4,0.2-0.8,0.4-1.2,0.7c-1.1,1-1.7,2.5-1.7,4.6c0,1.3,0.3,2.5,0.8,3.6c0.5,1.1,1.3,1.9,2.3,2.5
		c1,0.6,2.1,0.9,3.4,0.9c0.8,0,1.3-0.1,1.6-0.2c0.2-0.1,0.4-0.4,0.4-0.7v-1.8c0-1.1,0-1.8,0-2.2c0-0.3-0.1-0.6-0.2-0.7
		c-0.1-0.2-0.3-0.3-0.6-0.3c-0.2,0-0.4-0.1-0.7-0.1c-0.2,0-0.3-0.1-0.3-0.2c0-0.1,0.1-0.2,0.4-0.2c0.3,0,0.6,0,0.8,0
		c0.2,0,0.4,0,0.6,0c0.2,0,0.5,0,0.7,0c0.2,0,0.4,0,0.6,0c0.1,0,0.3,0,0.5,0c0.2,0,0.4,0,0.6,0c0.2,0,0.4,0,0.5,0c0.1,0,0.3,0,0.5,0
		c0.2,0,0.4,0.1,0.4,0.2c0,0.1-0.1,0.2-0.2,0.2c-0.1,0-0.3,0-0.5,0.1c-0.2,0.1-0.4,0.2-0.5,0.3c-0.1,0.2-0.2,0.4-0.2,0.7
		c0,0.1,0,0.3,0,0.6s0,0.6,0,0.8C320.1,184.6,320.1,184.9,320.1,185.2z"/>
	<path class="st3" d="M324.5,182.5v-2.7c0-0.7,0-1.4,0-1.9c0-0.6,0-1,0-1.2c0-0.2,0-0.5,0-0.8c0-0.3-0.1-0.6-0.2-0.7
		c-0.1-0.2-0.3-0.3-0.6-0.3c-0.1,0-0.4-0.1-0.7-0.1c-0.2,0-0.3-0.1-0.3-0.2c0-0.1,0.1-0.2,0.4-0.2c0.2,0,0.6,0,1,0
		c0.4,0,0.8,0,1.1,0s0.5,0,0.6,0c0.1,0,0.2,0,0.4,0s0.5,0,1,0c0.4,0,0.7,0,0.9,0c0.3,0,0.4,0.1,0.4,0.2c0,0.1-0.1,0.2-0.3,0.2
		c-0.2,0-0.3,0-0.5,0.1c-0.2,0-0.4,0.1-0.5,0.3c-0.1,0.2-0.2,0.4-0.2,0.7c0,0.3,0,0.7,0,1.1c0,0.4,0,1.4,0,2.9v2.6
		c0,1.3,0.1,2.3,0.4,3c0.2,0.7,0.6,1.2,1.1,1.6c0.4,0.3,0.7,0.5,1.1,0.6c0.4,0.1,0.8,0.2,1.2,0.2c0.4,0,0.9-0.1,1.3-0.2
		c0.5-0.2,0.9-0.4,1.2-0.8c0.5-0.5,0.8-1,0.9-1.7c0.1-0.7,0.2-1.7,0.2-2.9v-2.3c0-0.7,0-1.4,0-1.9c0-0.6,0-1,0-1.2
		c0-0.2,0-0.5,0-0.8c0-0.3-0.1-0.6-0.2-0.7c-0.1-0.2-0.3-0.3-0.6-0.3c-0.1,0-0.4-0.1-0.7-0.1c-0.2,0-0.3-0.1-0.3-0.2
		c0-0.1,0.1-0.2,0.4-0.2c0.2,0,0.5,0,0.9,0c0.4,0,0.7,0,0.9,0c0.2,0,0.3,0,0.3,0c0,0,0.1,0,0.4,0c0.2,0,0.5,0,0.9,0
		c0.4,0,0.7,0,0.8,0c0.3,0,0.4,0.1,0.4,0.2c0,0.1-0.1,0.2-0.3,0.2c-0.2,0-0.3,0-0.5,0.1c-0.2,0-0.4,0.1-0.5,0.3
		c-0.1,0.2-0.2,0.4-0.2,0.7c0,0.3,0,0.7,0,1.1c0,0.4,0,1.4,0,2.9v2c0,1.3-0.1,2.4-0.3,3.3c-0.2,0.9-0.7,1.7-1.4,2.3
		c-0.6,0.5-1.2,0.9-1.9,1.1c-0.6,0.2-1.3,0.3-2,0.3c-0.7,0-1.5-0.1-2.2-0.2c-0.7-0.2-1.4-0.5-1.9-1.1c-0.5-0.5-0.9-1.1-1.2-1.9
		C324.6,184.8,324.5,183.7,324.5,182.5z"/>
	<path class="st3" d="M343.1,185.2v-1.5c0-0.5,0-0.8-0.1-1.1c-0.1-0.3-0.2-0.6-0.3-0.9c0-0.1-0.3-0.5-0.7-1.1
		c-0.4-0.7-0.9-1.5-1.4-2.4c-0.6-0.9-1-1.5-1.2-1.8c-0.5-0.7-0.9-1.1-1.3-1.4c-0.3-0.2-0.6-0.2-0.8-0.2c-0.2,0-0.3-0.1-0.3-0.2
		c0-0.1,0.1-0.2,0.4-0.2c0,0,0.2,0,0.3,0c0.2,0,0.5,0,1,0s0.8,0,1,0c0.1,0,0.2,0,0.4,0c0.2,0,0.5,0,0.8,0c0.3,0,0.6,0,0.8,0
		c0.2,0,0.3,0.1,0.3,0.2c0,0,0,0.1-0.1,0.1c-0.1,0-0.2,0.1-0.3,0.1c-0.2,0-0.3,0.2-0.3,0.3c0,0.1,0.1,0.3,0.2,0.6
		c0.1,0.1,0.3,0.6,0.8,1.4c0.4,0.8,0.9,1.6,1.4,2.5c0.5,0.9,0.8,1.4,1,1.7c0-0.1,0.2-0.3,0.4-0.8s0.6-1,0.9-1.7
		c0.4-0.7,0.7-1.2,0.9-1.7c0.2-0.5,0.4-0.8,0.5-0.9c0.2-0.4,0.3-0.7,0.3-1c0-0.2-0.1-0.4-0.4-0.5c-0.2,0-0.3-0.1-0.3-0.2
		c0-0.1,0.1-0.2,0.3-0.2c0.1,0,0.3,0,0.6,0c0.3,0,0.5,0,0.7,0s0.3,0,0.5,0s0.3,0,0.5,0s0.4,0,0.6,0c0.2,0,0.4,0,0.5,0
		c0.1,0,0.2,0,0.4,0c0.2,0,0.3,0.1,0.3,0.2c0,0.1-0.1,0.2-0.4,0.2c-0.3,0-0.5,0.1-0.8,0.2c-0.2,0.1-0.4,0.2-0.5,0.3
		c-0.1,0.1-0.3,0.3-0.5,0.6c-0.2,0.3-0.6,0.8-1.1,1.7c-0.5,0.9-1,1.7-1.5,2.6s-0.8,1.4-0.9,1.7c-0.1,0.3-0.2,0.6-0.2,0.9
		c0,0.3,0,0.6,0,1v1.5c0,0.7,0,1.3,0.1,1.9c0,0.3,0.1,0.6,0.2,0.7c0.1,0.2,0.3,0.3,0.6,0.3c0.3,0,0.7,0.1,0.9,0.1
		c0.2,0,0.3,0.1,0.3,0.2c0,0.1-0.1,0.2-0.4,0.2c-0.3,0-0.6,0-0.9,0s-0.6,0-0.9,0c-0.2,0-0.4,0-0.6,0c-0.1,0-0.3,0-0.5,0
		c-0.2,0-0.3,0-0.4,0c-0.1,0-0.3,0-0.5,0c-0.2,0-0.5,0-0.7,0c-0.2,0-0.5,0-0.6,0c-0.3,0-0.4-0.1-0.4-0.2c0-0.1,0.1-0.2,0.3-0.2
		c0.2,0,0.4,0,0.7-0.1c0.3-0.1,0.5-0.4,0.6-1C343.1,186.5,343.1,185.9,343.1,185.2z"/>
	<path class="st3" d="M355.1,188.7c-1.1,0-2-0.2-2.7-0.5c-0.2-0.1-0.2-0.2-0.3-0.2s-0.1-0.2-0.1-0.4c0-0.3,0-0.5,0-0.8
		c0-0.3,0-0.5,0-0.7c0-0.2,0-0.4,0-0.6c0-0.2,0-0.3,0-0.4c0-0.3,0.1-0.5,0.2-0.5c0.1,0,0.2,0.1,0.2,0.3c0,0.3,0.1,0.6,0.2,1
		c0.2,0.7,0.5,1.1,1,1.4c0.5,0.3,1,0.5,1.6,0.5c0.4,0,0.8-0.1,1.1-0.2c0.3-0.1,0.6-0.3,0.8-0.5s0.4-0.4,0.5-0.7s0.2-0.5,0.2-0.8
		c0-0.5-0.1-1-0.4-1.5c-0.2-0.5-0.7-1-1.4-1.5l-0.9-0.7c-0.6-0.5-1.2-1-1.6-1.5c-0.4-0.5-0.7-1-0.9-1.5s-0.3-1-0.3-1.5
		c0-0.7,0.2-1.3,0.5-1.8c0.4-0.5,0.9-1,1.5-1.3c0.6-0.3,1.4-0.5,2.2-0.5c0.9,0,1.7,0.1,2.5,0.3c0.2,0.1,0.3,0.1,0.3,0.2
		c0,0,0,0.2,0,0.7c0,0.5,0,1,0,1.6c0,0.4-0.1,0.6-0.2,0.6c-0.1,0-0.2-0.1-0.2-0.3c0-0.1,0-0.2,0-0.3s-0.1-0.3-0.1-0.4
		c-0.1-0.2-0.2-0.3-0.3-0.5c-0.5-0.6-1.1-0.9-2-0.9c-0.7,0-1.2,0.2-1.6,0.5c-0.4,0.4-0.6,0.8-0.6,1.4c0,0.4,0.1,0.8,0.4,1.2
		c0.3,0.4,0.8,0.9,1.5,1.5l0.5,0.4c0.5,0.4,1,0.8,1.4,1.2s0.7,0.8,0.9,1.2c0.2,0.4,0.4,0.8,0.5,1.1c0.1,0.4,0.2,0.8,0.2,1.3
		c0,0.6-0.1,1.2-0.4,1.8c-0.3,0.6-0.7,1.1-1.3,1.5C357.2,188.5,356.3,188.7,355.1,188.7z"/>
</g>
</svg>
