<?xml version="1.0" encoding="utf-8"?>
<!-- Generator: Adobe Illustrator 21.1.0, SVG Export Plug-In . SVG Version: 6.00 Build 0)  -->
<svg version="1.1" id="Layer_1" xmlns="http://www.w3.org/2000/svg" xmlns:xlink="http://www.w3.org/1999/xlink" x="0px" y="0px"
	 viewBox="0 0 357.7 189.5" style="enable-background:new 0 0 357.7 189.5;" xml:space="preserve">
<style type="text/css">
	.st0{display:none;}
	.st1{fill:#FFFFFF;stroke:#FFFFFF;stroke-miterlimit:10;}
	.st2{fill:#654EA1;}
	.st3{fill:#039B76;}
	.st4{fill:#FFFFFF;}
</style>
<g id="Layer_2" class="st0">
</g>
<g>
	<g>
		<g>
			<path class="st1" d="M87.8,90.5l23.1,50.8c0.7,1.2,1.2,3,1.2,3.5c0,0.9-0.7,1.6-2,1.6H93.3c-1.3,0-2.5-0.7-2.9-1.6l-23.9-52
				c-0.2-0.2-0.4-0.4-0.7-0.4h-34c-0.4,0-0.7,0.2-0.8,0.7l-10.2,50.7c-0.2,1.3-1.8,2.7-3.1,2.7H3.3c-1.3,0-2.2-1.2-2.2-2.2
				c0-0.4,0.4-2.7,2.2-9.6l27.4-132c0.2-1,1-2.1,2.6-2.2h52.8c29.3,0,44.1,16.5,44.1,39.1C130.1,64.2,113.3,85.4,87.8,90.5z
				 M46.8,18L34.4,75.4c-0.1,0.5,0.3,1,0.8,1H68c21.1,0,42.4-14.1,42.4-36.9c0.2-13.7-8.1-22.1-27.5-22.1H47.6
				C47.2,17.4,46.9,17.6,46.8,18z"/>
			<path class="st1" d="M155.6,143c-0.2,1.3-2.9,3.4-4.2,3.4h-12.1c-1.3,0-3.1-2-3.1-3c0-0.7,0.3-2.5,0.7-4.6l10-57
				c0.4-1.4,2.8-3.2,4.1-3.2h12.2c1.3,0,3,1.5,2.9,2.6L155.6,143z"/>
			<path class="st1" d="M226.3,62.6l-13.7,79.9c-0.2,1.3-3.1,3.9-4.4,3.9l-12.2,0.2c-1.3,0-3.1-2.5-3.1-3.7c0-0.4,0.2-1.6,0.4-2.7
				l13.2-77.7h-17.8c-1.3,0-2.7-1.8-2.5-3.1l2-10.8c0.2-1.3,2.5-3.1,3.8-3.1h17.8l3.6-16.4c4.7-24.9,11.4-30.3,34.4-27.8
				c7.8,0.8,10.4,1.4,13.8,3.2c2,1.2,3.9,0.8,1.3,6.5l-3.8,7.6c-0.9,1.8-2.1,1.6-4.4,0.5c-4.5-1.8-7.3-1.9-7.3-1.9
				c-7.2-0.7-11.7-1.9-14.4,11.8l-3.6,16.4h38.5l4-20.8c0.2-1.3,3.4-3.8,4.7-3.8h12.1c1.3,0,3.1,2.5,2.9,3.8l-4,20.8h17.8
				c1.3,0,2.5,1.6,2.5,2.9c0,0.2-0.2,1.6-0.4,2.7l-1.6,8.3c-0.2,1.3-2.5,3.1-3.8,3.1h-17.8L276,114c-0.4,2.5-0.9,5.3-0.9,7.2
				c0,8.3,5.3,8.6,10.9,8.6c4.4,0,6.7,0.1,10.5-2c2.5-1.3,3.6-0.2,4.3,1.6c0,0,2.7,12.3,0.4,13.4c-4.9,2.7-13,3.1-21.5,3.1
				c-14.8,0-24.3-6.7-24.3-21.2c0-2.9,0.2-7.4,0.9-10.8l8.3-51.6h-38.3V62.6z"/>
		</g>
		<g>
			<path class="st2" d="M324.7,41.7c0.2-1.1,1.2-2.3,3.9-0.9c0,0,23.1,9,25.4,11.3c1.2,1.2,1.2,2.6,0,3.8
				c-2.1,2-27.2,11.5-29.8,12.3c-1.3,0.4-3.3-0.2-3-2.4C321.5,62.4,324.7,41.7,324.7,41.7z"/>
		</g>
	</g>
</g>
<path class="st3" d="M174,55.3c0,8.9-8.2,16-17,16s-15-7.2-15-16s9.2-16,18-16S174,46.4,174,55.3z"/>
<g>
	<path class="st4" d="M3,180.4v-5.9c0-0.8,0-1.5,0-2.1c0-0.6,0-1.1,0-1.3c0-0.3,0-0.6,0-0.9c0-0.4-0.1-0.6-0.2-0.8s-0.3-0.3-0.7-0.4
		c-0.2,0-0.4-0.1-0.8-0.1c-0.2,0-0.4-0.1-0.4-0.2c0-0.1,0.2-0.2,0.5-0.2c0.3,0,0.6,0,1.1,0c0.5,0,0.9,0,1.2,0c0.3,0,0.5,0,0.6,0
		c0.1,0,0.2,0,0.5,0c0.3,0,0.6,0,1.1,0c0.5,0,0.8,0,1,0c0.3,0,0.4,0.1,0.4,0.2c0,0.1-0.1,0.2-0.4,0.2c-0.2,0-0.4,0-0.6,0.1
		c-0.3,0-0.5,0.2-0.6,0.3c-0.1,0.2-0.2,0.5-0.2,0.8c0,0.3,0,0.7,0,1.2c0,0.5,0,1.5,0,3.2v3.8c0,0.2,0,0.5,0,0.7c0,0.3,0,0.5,0,0.8
		c0,0.2,0,0.5,0,0.6c0,0.2,0,0.4,0,0.8c0,1.5-0.2,2.7-0.5,3.7c-0.2,0.7-0.6,1.4-1.2,2c-0.6,0.7-1.3,1.3-2.3,1.9
		c-0.2,0.1-0.5,0.3-1,0.6c-0.1,0.1-0.3,0.1-0.4,0.1c-0.1,0-0.2-0.1-0.2-0.2c0-0.1,0.1-0.2,0.4-0.4c0.3-0.2,0.6-0.4,1-0.8
		c0.5-0.5,0.8-1.1,1.1-1.8c0.2-0.7,0.4-1.4,0.4-2.2C2.9,183.3,3,182.1,3,180.4z"/>
	<path class="st4" d="M10.6,177.5v-3c0-0.8,0-1.5,0-2.1c0-0.6,0-1.1,0-1.3c0-0.3,0-0.6,0-0.9c0-0.4-0.1-0.6-0.2-0.8
		s-0.3-0.3-0.7-0.4c-0.2,0-0.4-0.1-0.8-0.1c-0.2,0-0.4-0.1-0.4-0.2c0-0.1,0.2-0.2,0.5-0.2c0.3,0,0.6,0,1.1,0s0.9,0,1.2,0
		c0.3,0,0.5,0,0.6,0c0.1,0,0.2,0,0.5,0c0.2,0,0.6,0,1.1,0c0.5,0,0.8,0,1,0c0.3,0,0.5,0.1,0.5,0.2c0,0.1-0.1,0.2-0.3,0.2
		c-0.2,0-0.4,0-0.6,0.1c-0.3,0-0.5,0.2-0.6,0.3c-0.1,0.2-0.2,0.5-0.2,0.8c0,0.3,0,0.7,0,1.2c0,0.5,0,1.5,0,3.2v2.9
		c0,1.4,0.1,2.5,0.4,3.3c0.3,0.8,0.7,1.4,1.2,1.8c0.4,0.3,0.8,0.6,1.2,0.7c0.4,0.1,0.9,0.2,1.3,0.2c0.5,0,1-0.1,1.5-0.3
		c0.5-0.2,1-0.5,1.3-0.8c0.5-0.5,0.8-1.2,1-1.9c0.1-0.8,0.2-1.8,0.2-3.2v-2.6c0-0.8,0-1.5,0-2.1c0-0.6,0-1.1,0-1.3
		c0-0.3,0-0.6,0-0.9c0-0.4-0.1-0.6-0.2-0.8c-0.1-0.2-0.3-0.3-0.7-0.4c-0.1,0-0.4-0.1-0.7-0.1c-0.2,0-0.4-0.1-0.4-0.2
		c0-0.1,0.1-0.2,0.4-0.2c0.2,0,0.6,0,1,0s0.8,0,1,0c0.2,0,0.3,0,0.3,0c0,0,0.1,0,0.4,0c0.3,0,0.6,0,1,0c0.4,0,0.7,0,0.9,0
		c0.3,0,0.4,0.1,0.4,0.2c0,0.1-0.1,0.2-0.4,0.2c-0.2,0-0.4,0-0.6,0.1c-0.3,0-0.5,0.2-0.6,0.3c-0.1,0.2-0.2,0.5-0.2,0.8
		c0,0.3,0,0.7,0,1.2c0,0.5,0,1.5,0,3.2v2.2c0,1.4-0.1,2.7-0.4,3.7c-0.3,1-0.8,1.9-1.6,2.5c-0.7,0.6-1.4,1-2.1,1.2
		c-0.7,0.2-1.4,0.3-2.2,0.3c-0.8,0-1.6-0.1-2.4-0.3c-0.8-0.2-1.5-0.6-2.2-1.2c-0.6-0.5-1-1.2-1.3-2.1S10.6,178.9,10.6,177.5z"/>
	<path class="st4" d="M29.9,172.6l0.2,8.7c0,0.7,0.1,1.3,0.2,1.6c0.1,0.4,0.3,0.6,0.5,0.6c0.3,0.1,0.6,0.1,1.1,0.1
		c0.2,0,0.4,0.1,0.4,0.2c0,0.1-0.2,0.2-0.5,0.2c-0.3,0-0.6,0-0.7,0c-0.1,0-0.5,0-1,0c-0.5,0-0.8,0-0.8,0c0,0-0.2,0-0.7,0
		c-0.4,0-0.7,0-0.9,0c-0.2,0-0.4,0-0.6,0c-0.3,0-0.5-0.1-0.5-0.2c0-0.1,0.1-0.2,0.3-0.2c0.4,0,0.7,0,0.9-0.1
		c0.3-0.1,0.4-0.3,0.5-0.6c0.1-0.4,0.1-1,0.1-1.9l0.2-12.3c0-0.5,0.1-0.7,0.3-0.7c0.1,0,0.2,0.1,0.3,0.2c0.1,0.1,0.3,0.3,0.5,0.5
		c1.5,1.6,2.7,2.9,3.6,3.8s1.8,1.8,2.7,2.8c0.3,0.3,0.7,0.7,1.2,1.2s0.8,0.9,1.2,1.2c0.3,0.4,0.8,0.8,1.3,1.4
		c0.5,0.5,0.8,0.9,0.9,0.9h0.1l-0.2-9.3c0-0.6-0.1-1.1-0.2-1.3c-0.1-0.3-0.3-0.4-0.5-0.5c-0.2-0.1-0.6-0.1-1.1-0.1
		c-0.2,0-0.3-0.1-0.3-0.2c0-0.1,0.2-0.2,0.5-0.2c0.3,0,0.6,0,1,0c0.4,0,0.7,0,1,0c0.3,0,0.4,0,0.5,0c0,0,0.1,0,0.3,0
		c0.2,0,0.5,0,0.8,0s0.6,0,0.9,0c0.3,0,0.5,0.1,0.5,0.2c0,0.1-0.1,0.2-0.4,0.2c-0.2,0-0.5,0-0.6,0.1c-0.3,0.1-0.5,0.2-0.6,0.5
		c-0.1,0.3-0.2,0.7-0.2,1.3l-0.2,13.1c0,0.4-0.1,0.6-0.3,0.6c-0.2,0-0.4-0.2-0.7-0.5c-0.5-0.5-1-1-1.4-1.4s-1.1-1.1-1.8-1.8
		c-0.7-0.8-1.3-1.3-1.7-1.7c-0.4-0.4-0.8-0.8-1.1-1.1c-0.4-0.4-0.9-0.9-1.6-1.6c-0.7-0.7-1.3-1.3-1.8-1.9c-0.5-0.6-0.9-1-1.2-1.3
		C30.1,172.7,30,172.6,29.9,172.6L29.9,172.6z"/>
	<path class="st4" d="M50.9,174.5v0.9H51c0.1-0.1,0.5-0.6,1.3-1.3c0.7-0.8,1.4-1.4,1.9-2c0.5-0.6,0.9-1,1.1-1.2
		c0.4-0.4,0.6-0.8,0.8-1s0.2-0.4,0.2-0.6c0-0.2-0.1-0.4-0.3-0.4c-0.2,0-0.3-0.1-0.3-0.2c0-0.1,0.1-0.2,0.3-0.2c0.2,0,0.3,0,0.4,0
		c0.1,0,0.3,0,0.5,0c0.2,0,0.4,0,0.7,0c0.2,0,0.4,0,0.5,0c0.1,0,0.4,0,0.7,0c0.3,0,0.7,0,1,0c0.3,0,0.6,0,0.7,0
		c0.2,0,0.4,0.1,0.4,0.2c0,0.1-0.1,0.2-0.3,0.2c-0.4,0-0.8,0.1-1.2,0.2c-0.7,0.3-1.4,0.8-2.2,1.6c-0.2,0.2-0.9,0.9-2.2,2.2
		c-1.3,1.3-2,2-2.2,2.3c0.2,0.3,0.7,0.8,1.4,1.6c0.7,0.8,1.5,1.6,2.4,2.6c0.9,1,1.5,1.6,1.8,1.9c0.7,0.6,1.2,1.1,1.6,1.4
		c0.4,0.3,0.9,0.6,1.4,0.8c0.5,0.2,0.9,0.3,1.3,0.3c0.2,0,0.3,0.1,0.3,0.2c0,0.1-0.2,0.2-0.5,0.2h-1.8c-0.7,0-1.1,0-1.4,0
		c-0.4,0-0.7-0.1-1-0.2c-0.3-0.1-0.5-0.3-0.8-0.5s-0.5-0.4-0.8-0.7c-0.3-0.2-0.8-0.8-1.6-1.7c-0.8-0.9-1.6-1.8-2.4-2.8
		c-0.8-0.9-1.3-1.5-1.4-1.8l-0.2-0.3h-0.1v1.9c0,2.4,0,3.8,0.1,4.4c0,0.7,0.3,1.1,0.7,1.1c0.4,0.1,0.7,0.1,1,0.1
		c0.2,0,0.3,0.1,0.3,0.2c0,0.1-0.1,0.2-0.4,0.2c-0.3,0-0.6,0-0.9,0s-0.6,0-0.9,0c-0.3,0-0.5,0-0.6,0s-0.3,0-0.5,0
		c-0.2,0-0.3,0-0.5,0c-0.1,0-0.3,0-0.6,0c-0.2,0-0.5,0-0.8,0c-0.3,0-0.5,0-0.8,0c-0.3,0-0.4-0.1-0.4-0.2c0-0.1,0.1-0.2,0.3-0.2
		c0.2,0,0.5,0,0.7-0.1c0.2,0,0.3-0.1,0.4-0.3s0.1-0.5,0.2-0.8c0.1-0.6,0.1-2,0.1-4.4v-3.6c0-0.8,0-1.5,0-2.1c0-0.6,0-1.1,0-1.3
		c0-0.3,0-0.6,0-0.9c0-0.4-0.1-0.6-0.2-0.8s-0.3-0.3-0.7-0.4c-0.2,0-0.4-0.1-0.8-0.1c-0.2,0-0.4-0.1-0.4-0.2c0-0.1,0.2-0.2,0.5-0.2
		c0.3,0,0.6,0,1.1,0c0.5,0,0.9,0,1.2,0c0.3,0,0.5,0,0.6,0c0.1,0,0.2,0,0.4,0c0.2,0,0.6,0,1.1,0s0.8,0,1,0c0.3,0,0.4,0.1,0.4,0.2
		c0,0.1-0.1,0.2-0.3,0.2c-0.2,0-0.3,0-0.6,0.1c-0.3,0-0.5,0.2-0.6,0.3c-0.1,0.2-0.2,0.5-0.2,0.8c0,0.3,0,0.7,0,1.2
		C50.9,171.7,50.9,172.8,50.9,174.5z"/>
	<path class="st4" d="M72.9,176.4v1.7c0,1.3,0,2.2,0,2.9c0,0.7,0,1.2,0.1,1.5c0,0.4,0.1,0.6,0.2,0.8c0.1,0.2,0.3,0.3,0.6,0.3
		c0.4,0.1,0.7,0.1,1,0.1c0.2,0,0.4,0.1,0.4,0.2c0,0.1-0.1,0.2-0.5,0.2c-0.3,0-0.7,0-1,0c-0.4,0-0.7,0-1,0c-0.3,0-0.5,0-0.6,0
		c-0.1,0-0.3,0-0.5,0c-0.2,0-0.4,0-0.5,0c-0.1,0-0.3,0-0.6,0c-0.2,0-0.5,0-0.8,0s-0.5,0-0.7,0c-0.3,0-0.4-0.1-0.4-0.2
		c0-0.1,0.1-0.2,0.3-0.2c0.2,0,0.5,0,0.7-0.1c0.2,0,0.3-0.1,0.4-0.3s0.1-0.5,0.2-0.8c0.1-0.6,0.1-2,0.1-4.4v-3.6c0-0.8,0-1.5,0-2.1
		c0-0.6,0-1.1,0-1.3c0-0.3,0-0.6,0-0.9c0-0.4-0.1-0.6-0.2-0.8s-0.3-0.3-0.7-0.4c-0.2,0-0.4-0.1-0.8-0.1c-0.2,0-0.4-0.1-0.4-0.2
		c0-0.2,0.2-0.2,0.5-0.2c0.2,0,0.6,0,1.1,0c0.5,0,0.9,0,1.2,0c0.3,0,0.5,0,0.6,0c0.9,0,2.1,0,3.4,0c1.4,0,2,0,2,0
		c0.4,0,0.7-0.1,0.8-0.1c0.1,0,0.1,0,0.2-0.1c0.1,0,0.1,0,0.1,0c0.1,0,0.2,0.1,0.2,0.2c0,0.1,0,0.2-0.1,0.4s-0.1,0.4-0.1,0.6
		c0,0.2,0,0.5-0.1,1c0,0.4,0,0.7,0,0.7c0,0.2-0.1,0.3-0.2,0.3c-0.1,0-0.2-0.1-0.2-0.3c0-0.3,0-0.6-0.1-0.8c-0.1-0.2-0.2-0.3-0.5-0.4
		c-0.2-0.1-0.5-0.2-0.9-0.2l-3.2-0.1c-0.1,0-0.2,0.1-0.2,0.3v5.2c0,0.1,0,0.2,0.1,0.2l2.6,0c0.4,0,0.7,0,0.9,0
		c0.4,0,0.7-0.1,0.9-0.4c0.1-0.1,0.2-0.2,0.3-0.2c0.1,0,0.1,0.1,0.1,0.2c0,0,0,0.1-0.1,0.4c0,0.3-0.1,0.6-0.1,0.9
		c-0.1,0.5-0.1,1.1-0.1,1.5c0,0.3-0.1,0.4-0.2,0.4c-0.1,0-0.2-0.1-0.2-0.3c0-0.2,0-0.4-0.1-0.6c-0.1-0.4-0.5-0.7-1.1-0.8
		c-0.3,0-0.7-0.1-1.3-0.1c-0.6,0-1.2,0-1.7,0C72.9,176.3,72.9,176.3,72.9,176.4z"/>
	<path class="st4" d="M89,184.4c-1.4,0-2.6-0.2-3.7-0.7c-1.1-0.5-1.9-1.1-2.6-1.9c-0.7-0.8-1.2-1.7-1.5-2.6c-0.3-1-0.5-1.9-0.5-2.9
		c0-1.3,0.3-2.6,0.9-3.8c0.6-1.2,1.5-2.3,2.8-3.1s2.9-1.2,4.8-1.2c1.3,0,2.4,0.2,3.4,0.5s1.9,0.9,2.6,1.6c0.7,0.7,1.3,1.5,1.6,2.4
		c0.4,1,0.6,2,0.6,3.2c0,1.6-0.3,3-1,4.3c-0.7,1.3-1.7,2.3-3,3.1S90.7,184.4,89,184.4z M89.9,183.4c0.7,0,1.3-0.2,2-0.5
		c0.7-0.3,1.3-1,1.9-2c0.5-1,0.8-2.4,0.8-4.2c0-1.5-0.3-2.8-0.8-4c-0.5-1.1-1.2-2-2.2-2.6c-0.9-0.6-1.9-0.9-3.1-0.9
		c-0.6,0-1.3,0.1-1.8,0.3c-0.6,0.2-1.1,0.5-1.6,1c-0.5,0.5-0.9,1.2-1.2,2c-0.3,0.9-0.4,1.9-0.4,3.1c0,1.1,0.1,2.1,0.4,3
		c0.3,0.9,0.7,1.8,1.3,2.5c0.6,0.7,1.2,1.3,2,1.7C88.1,183.2,89,183.4,89.9,183.4z"/>
	<path class="st4" d="M101.8,178.1v-3.6c0-0.8,0-1.5,0-2.1c0-0.6,0-1.1,0-1.3c0-0.3,0-0.6,0-0.9c0-0.4-0.1-0.6-0.2-0.8
		c-0.1-0.2-0.3-0.3-0.7-0.4c-0.2,0-0.4-0.1-0.8-0.1c-0.2,0-0.4-0.1-0.4-0.2c0-0.1,0.2-0.2,0.5-0.2c0.3,0,0.6,0,1.1,0s0.9,0,1.2,0
		c0.3,0,0.5,0,0.5,0c0.2,0,0.4,0,0.7,0c0.3,0,0.6,0,0.9,0s0.5,0,0.7,0c0.2,0,0.4,0,0.6,0c1.6,0,2.9,0.3,3.8,0.9
		c0.3,0.2,0.7,0.6,1,1.1c0.3,0.5,0.4,1.1,0.4,1.7c0,0.5-0.1,1-0.2,1.5c-0.2,0.5-0.5,1-0.9,1.5c-0.4,0.5-0.9,1.1-1.6,1.6
		c0.8,1,1.4,1.8,1.9,2.4c0.5,0.6,0.9,1.2,1.3,1.7c0.4,0.5,0.8,1,1.2,1.4c0.5,0.5,0.9,0.9,1.3,1c0.4,0.2,0.7,0.3,1,0.4
		c0.2,0,0.4,0.1,0.6,0.1c0.2,0,0.2,0.1,0.2,0.2c0,0.1-0.1,0.2-0.4,0.2h-2c-0.5,0-1,0-1.3-0.1s-0.6-0.2-0.9-0.3
		c-0.4-0.2-0.8-0.6-1.2-1s-0.9-1.1-1.6-2c-0.3-0.4-0.7-0.9-1.1-1.6c-0.5-0.7-0.8-1.1-0.9-1.2c-0.1-0.1-0.2-0.1-0.4-0.1l-1.8,0
		c-0.1,0-0.2,0.1-0.2,0.2v0.3c0,1.2,0,2.2,0,2.9c0,0.7,0,1.2,0.1,1.5c0,0.4,0.1,0.6,0.2,0.8c0.1,0.2,0.3,0.3,0.6,0.3
		c0.4,0.1,0.7,0.1,1,0.1c0.2,0,0.2,0.1,0.2,0.2c0,0.1-0.1,0.2-0.4,0.2c-0.3,0-0.6,0-1,0c-0.4,0-0.7,0-1,0c-0.3,0-0.5,0-0.6,0
		c-0.1,0-0.3,0-0.4,0c-0.2,0-0.3,0-0.4,0s-0.3,0-0.5,0c-0.2,0-0.5,0-0.8,0c-0.3,0-0.5,0-0.8,0c-0.3,0-0.4-0.1-0.4-0.2
		c0-0.1,0.1-0.2,0.3-0.2c0.2,0,0.5,0,0.7-0.1c0.2,0,0.3-0.1,0.4-0.3s0.1-0.5,0.2-0.8C101.8,181.9,101.8,180.5,101.8,178.1z
		 M104.2,169.8v6.3c0,0.1,0,0.2,0,0.2c0,0.1,0.1,0.1,0.1,0.1c0.2,0.1,0.5,0.1,0.8,0.2s0.5,0,0.8,0c0.4,0,0.7,0,0.9-0.1
		c0.2,0,0.4-0.1,0.6-0.3c0.8-0.6,1.2-1.6,1.2-3.1c0-1.3-0.3-2.3-1-2.9c-0.7-0.6-1.4-0.9-2.1-0.9c-0.5,0-0.9,0-1.1,0.1
		C104.3,169.6,104.2,169.7,104.2,169.8z"/>
	<path class="st4" d="M125.7,180.5v-1.7c0-0.5,0-0.9-0.1-1.2c-0.1-0.3-0.2-0.6-0.4-1c0-0.1-0.3-0.5-0.7-1.3c-0.4-0.7-1-1.6-1.6-2.6
		c-0.6-1-1.1-1.7-1.3-2c-0.5-0.7-1-1.3-1.4-1.5c-0.3-0.2-0.6-0.3-0.9-0.3c-0.2,0-0.3-0.1-0.3-0.2c0-0.1,0.1-0.2,0.4-0.2
		c0,0,0.2,0,0.4,0c0.2,0,0.6,0,1.2,0c0.6,0,0.9,0,1.1,0c0.1,0,0.2,0,0.5,0c0.2,0,0.5,0,0.9,0s0.6,0,0.8,0c0.2,0,0.3,0.1,0.3,0.2
		c0,0.1,0,0.1-0.1,0.1c-0.1,0-0.2,0.1-0.4,0.1c-0.2,0.1-0.3,0.2-0.3,0.4c0,0.1,0.1,0.4,0.2,0.7c0.1,0.2,0.4,0.7,0.8,1.5
		c0.5,0.9,1,1.8,1.6,2.8c0.5,1,0.9,1.6,1.1,1.9c0-0.1,0.2-0.4,0.5-0.9s0.6-1.1,1-1.9c0.4-0.7,0.7-1.4,1-1.9c0.3-0.5,0.5-0.9,0.5-1.1
		c0.2-0.4,0.3-0.8,0.3-1.1c0-0.3-0.1-0.4-0.4-0.5c-0.2-0.1-0.4-0.1-0.4-0.2c0-0.1,0.1-0.2,0.4-0.2c0.2,0,0.4,0,0.7,0
		c0.3,0,0.5,0,0.8,0c0.2,0,0.4,0,0.5,0c0.1,0,0.3,0,0.5,0c0.2,0,0.5,0,0.7,0c0.2,0,0.4,0,0.5,0c0.1,0,0.3,0,0.4,0
		c0.2,0,0.4,0.1,0.4,0.2c0,0.1-0.1,0.2-0.4,0.2c-0.3,0-0.6,0.1-0.9,0.2c-0.2,0.1-0.4,0.2-0.5,0.3c-0.1,0.1-0.3,0.3-0.6,0.7
		c-0.2,0.3-0.7,0.9-1.2,1.9c-0.6,1-1.1,1.9-1.7,2.9c-0.5,1-0.9,1.6-1,1.8c-0.1,0.3-0.2,0.7-0.3,1c0,0.3-0.1,0.7-0.1,1.1v1.7
		c0,0.8,0,1.5,0.1,2.1c0,0.4,0.1,0.6,0.2,0.8s0.3,0.3,0.6,0.3c0.4,0.1,0.7,0.1,1,0.1c0.2,0,0.3,0.1,0.3,0.2c0,0.1-0.1,0.2-0.4,0.2
		c-0.3,0-0.7,0-1,0c-0.4,0-0.7,0-1,0c-0.3,0-0.5,0-0.6,0c-0.1,0-0.3,0-0.5,0c-0.2,0-0.4,0-0.5,0c-0.1,0-0.3,0-0.6,0
		c-0.3,0-0.5,0-0.8,0c-0.3,0-0.5,0-0.7,0c-0.3,0-0.5-0.1-0.5-0.2c0-0.1,0.1-0.2,0.3-0.2c0.2,0,0.5,0,0.7-0.1
		c0.4-0.1,0.6-0.5,0.6-1.2C125.7,181.9,125.7,181.3,125.7,180.5z"/>
	<path class="st4" d="M142.8,184.4c-1.4,0-2.6-0.2-3.7-0.7c-1.1-0.5-1.9-1.1-2.6-1.9c-0.7-0.8-1.2-1.7-1.5-2.6
		c-0.3-1-0.5-1.9-0.5-2.9c0-1.3,0.3-2.6,0.9-3.8c0.6-1.2,1.5-2.3,2.8-3.1s2.9-1.2,4.8-1.2c1.3,0,2.4,0.2,3.4,0.5s1.9,0.9,2.6,1.6
		c0.7,0.7,1.3,1.5,1.6,2.4c0.4,1,0.6,2,0.6,3.2c0,1.6-0.3,3-1,4.3c-0.7,1.3-1.7,2.3-3,3.1S144.5,184.4,142.8,184.4z M143.6,183.4
		c0.7,0,1.3-0.2,2-0.5c0.7-0.3,1.3-1,1.9-2c0.5-1,0.8-2.4,0.8-4.2c0-1.5-0.3-2.8-0.8-4c-0.5-1.1-1.2-2-2.2-2.6
		c-0.9-0.6-1.9-0.9-3.1-0.9c-0.6,0-1.3,0.1-1.8,0.3c-0.6,0.2-1.1,0.5-1.6,1c-0.5,0.5-0.9,1.2-1.2,2c-0.3,0.9-0.4,1.9-0.4,3.1
		c0,1.1,0.1,2.1,0.4,3c0.3,0.9,0.7,1.8,1.3,2.5c0.6,0.7,1.2,1.3,2,1.7C141.8,183.2,142.7,183.4,143.6,183.4z"/>
	<path class="st4" d="M154.9,177.5v-3c0-0.8,0-1.5,0-2.1c0-0.6,0-1.1,0-1.3c0-0.3,0-0.6,0-0.9c0-0.4-0.1-0.6-0.2-0.8
		s-0.3-0.3-0.7-0.4c-0.2,0-0.4-0.1-0.8-0.1c-0.2,0-0.4-0.1-0.4-0.2c0-0.1,0.2-0.2,0.5-0.2c0.3,0,0.6,0,1.1,0s0.9,0,1.2,0
		c0.3,0,0.5,0,0.6,0c0.1,0,0.2,0,0.5,0c0.2,0,0.6,0,1.1,0c0.5,0,0.8,0,1,0c0.3,0,0.5,0.1,0.5,0.2c0,0.1-0.1,0.2-0.3,0.2
		c-0.2,0-0.4,0-0.6,0.1c-0.3,0-0.5,0.2-0.6,0.3c-0.1,0.2-0.2,0.5-0.2,0.8c0,0.3,0,0.7,0,1.2c0,0.5,0,1.5,0,3.2v2.9
		c0,1.4,0.1,2.5,0.4,3.3c0.3,0.8,0.7,1.4,1.2,1.8c0.4,0.3,0.8,0.6,1.2,0.7c0.4,0.1,0.9,0.2,1.3,0.2c0.5,0,1-0.1,1.5-0.3
		c0.5-0.2,1-0.5,1.3-0.8c0.5-0.5,0.8-1.2,1-1.9c0.1-0.8,0.2-1.8,0.2-3.2v-2.6c0-0.8,0-1.5,0-2.1c0-0.6,0-1.1,0-1.3
		c0-0.3,0-0.6,0-0.9c0-0.4-0.1-0.6-0.2-0.8c-0.1-0.2-0.3-0.3-0.7-0.4c-0.1,0-0.4-0.1-0.7-0.1c-0.2,0-0.4-0.1-0.4-0.2
		c0-0.1,0.1-0.2,0.4-0.2c0.2,0,0.6,0,1,0s0.8,0,1,0c0.2,0,0.3,0,0.3,0c0,0,0.1,0,0.4,0c0.3,0,0.6,0,1,0c0.4,0,0.7,0,0.9,0
		c0.3,0,0.4,0.1,0.4,0.2c0,0.1-0.1,0.2-0.4,0.2c-0.2,0-0.4,0-0.6,0.1c-0.3,0-0.5,0.2-0.6,0.3c-0.1,0.2-0.2,0.5-0.2,0.8
		c0,0.3,0,0.7,0,1.2c0,0.5,0,1.5,0,3.2v2.2c0,1.4-0.1,2.7-0.4,3.7c-0.3,1-0.8,1.9-1.6,2.5c-0.7,0.6-1.4,1-2.1,1.2
		c-0.7,0.2-1.4,0.3-2.2,0.3c-0.8,0-1.6-0.1-2.4-0.3c-0.8-0.2-1.5-0.6-2.2-1.2c-0.6-0.5-1-1.2-1.3-2.1S154.9,178.9,154.9,177.5z"/>
	<path class="st4" d="M184.8,178.7h-4.6c-0.1,0-0.2,0.1-0.2,0.2l-1.1,3c-0.2,0.5-0.3,0.9-0.3,1.3c0,0.4,0.3,0.6,0.8,0.6h0.3
		c0.2,0,0.3,0.1,0.3,0.2c0,0.1-0.1,0.2-0.3,0.2c-0.2,0-0.3,0-0.6,0s-0.4,0-0.6,0c-0.2,0-0.4,0-0.5,0c-0.1,0-0.3,0-0.5,0
		c0,0-0.3,0-0.8,0c-0.5,0-0.9,0-1,0s-0.3,0-0.6,0c-0.3,0-0.4-0.1-0.4-0.2c0-0.1,0.1-0.2,0.3-0.2c0.2,0,0.4,0,0.6,0
		c0.4-0.1,0.8-0.2,1-0.5c0.3-0.3,0.5-0.7,0.7-1.3l5.1-13c0.1-0.3,0.2-0.6,0.3-0.7s0.2-0.2,0.3-0.2c0.2,0,0.3,0.2,0.5,0.7
		c0.1,0.1,0.3,0.6,0.6,1.5c0.4,0.9,0.7,1.9,1.2,3c0.4,1.1,1,2.6,1.8,4.5s1.3,3.2,1.5,3.8c0.3,0.8,0.7,1.4,1,1.7
		c0.3,0.3,0.6,0.5,0.9,0.6c0.3,0.1,0.6,0.1,0.9,0.1c0.2,0,0.3,0.1,0.3,0.2c0,0.1-0.1,0.1-0.2,0.2c-0.1,0-0.4,0-0.8,0
		c-1.5,0-2.8,0-3.9,0c-0.2,0-0.4,0-0.5,0c-0.1,0-0.1-0.1-0.1-0.1c0-0.1,0.1-0.2,0.3-0.2c0.2-0.1,0.2-0.2,0.2-0.3c0,0,0-0.1,0-0.2
		l-1.6-4.4C184.9,178.8,184.9,178.7,184.8,178.7z M180.6,177.7h3.8c0.1,0,0.1,0,0.1-0.1l-1.8-5.1c0-0.1-0.1-0.2-0.1-0.2
		c0,0-0.1,0.1-0.1,0.2l-1.9,5.1C180.5,177.6,180.5,177.7,180.6,177.7z"/>
	<path class="st4" d="M194.7,172.6l0.2,8.7c0,0.7,0.1,1.3,0.2,1.6c0.1,0.4,0.3,0.6,0.5,0.6c0.3,0.1,0.6,0.1,1.1,0.1
		c0.2,0,0.3,0.1,0.3,0.2c0,0.1-0.2,0.2-0.5,0.2c-0.3,0-0.6,0-0.7,0s-0.5,0-1,0c-0.5,0-0.8,0-0.8,0c0,0-0.2,0-0.7,0
		c-0.4,0-0.7,0-0.9,0s-0.4,0-0.6,0c-0.3,0-0.5-0.1-0.5-0.2c0-0.1,0.1-0.2,0.3-0.2c0.4,0,0.7,0,0.9-0.1c0.3-0.1,0.4-0.3,0.5-0.6
		c0.1-0.4,0.1-1,0.1-1.9l0.2-12.3c0-0.5,0.1-0.7,0.3-0.7c0.1,0,0.2,0.1,0.3,0.2s0.3,0.3,0.5,0.5c1.5,1.6,2.7,2.9,3.6,3.8
		c0.9,0.9,1.8,1.8,2.7,2.8c0.3,0.3,0.7,0.7,1.2,1.2c0.4,0.5,0.8,0.9,1.2,1.2c0.3,0.4,0.8,0.8,1.3,1.4c0.5,0.5,0.8,0.9,0.9,0.9h0.1
		l-0.2-9.3c0-0.6-0.1-1.1-0.2-1.3c-0.1-0.3-0.3-0.4-0.5-0.5c-0.2-0.1-0.6-0.1-1.1-0.1c-0.2,0-0.3-0.1-0.3-0.2c0-0.1,0.2-0.2,0.5-0.2
		c0.3,0,0.6,0,1,0c0.4,0,0.7,0,1,0c0.3,0,0.4,0,0.5,0c0,0,0.1,0,0.3,0c0.2,0,0.5,0,0.8,0c0.3,0,0.6,0,0.9,0c0.3,0,0.5,0.1,0.5,0.2
		c0,0.1-0.1,0.2-0.4,0.2s-0.5,0-0.6,0.1c-0.3,0.1-0.5,0.2-0.6,0.5c-0.1,0.3-0.2,0.7-0.2,1.3l-0.2,13.1c0,0.4-0.1,0.6-0.3,0.6
		c-0.2,0-0.4-0.2-0.7-0.5c-0.5-0.5-1-1-1.4-1.4c-0.5-0.5-1.1-1.1-1.8-1.8c-0.7-0.8-1.3-1.3-1.7-1.7c-0.4-0.4-0.8-0.8-1.1-1.1
		c-0.4-0.4-0.9-0.9-1.6-1.6c-0.7-0.7-1.3-1.3-1.8-1.9c-0.5-0.6-0.9-1-1.2-1.3C194.8,172.7,194.7,172.6,194.7,172.6L194.7,172.6z"/>
	<path class="st4" d="M213.1,178.1v-3.6c0-0.8,0-1.5,0-2.1s0-1.1,0-1.3c0-0.3,0-0.6,0-0.9c0-0.4-0.1-0.6-0.2-0.8
		c-0.1-0.2-0.3-0.3-0.7-0.4c-0.2,0-0.4-0.1-0.8-0.1c-0.2,0-0.4-0.1-0.4-0.2c0-0.1,0.2-0.2,0.5-0.2c0.3,0,0.6,0,1.1,0
		c0.5,0,0.9,0,1.2,0c0.3,0,0.5,0,0.6,0c0.1,0,0.3,0,0.7,0c0.3,0,0.8,0,1.3,0c0.5,0,0.9,0,1.2,0c0.9,0,1.7,0,2.3,0
		c0.6,0,1.3,0.1,2,0.3s1.4,0.4,2.1,0.7c0.7,0.3,1.3,0.8,1.8,1.3c0.4,0.4,0.7,0.9,1,1.4s0.5,1.1,0.7,1.8c0.2,0.7,0.3,1.4,0.3,2.1
		c0,0.8-0.1,1.6-0.3,2.3c-0.2,0.7-0.5,1.4-0.8,1.9c-0.3,0.6-0.7,1.1-1.1,1.5c-0.4,0.4-0.8,0.7-1.4,1.1c-0.6,0.4-1.4,0.7-2.3,1
		c-0.9,0.3-2,0.4-3.1,0.4c-0.5,0-1.3,0-2.3-0.1c-1-0.1-1.7-0.1-2.1-0.1c-0.2,0-0.3,0-0.5,0s-0.3,0-0.6,0c-0.2,0-0.5,0-0.8,0
		s-0.5,0-0.8,0c-0.3,0-0.4-0.1-0.4-0.2c0-0.1,0.1-0.2,0.3-0.2c0.2,0,0.5,0,0.7-0.1c0.2,0,0.3-0.1,0.4-0.3c0.1-0.2,0.1-0.5,0.2-0.8
		C213.1,181.9,213.1,180.5,213.1,178.1z M215.7,174.1v2.6c0,2.3,0,3.7,0,4.2c0,0.9,0.1,1.4,0.2,1.6c0.2,0.2,0.5,0.4,0.9,0.6
		c0.4,0.2,1,0.2,1.8,0.2c0.7,0,1.3-0.1,1.9-0.2s1.1-0.3,1.5-0.5s0.9-0.5,1.3-0.9c1.1-1,1.7-2.7,1.7-5.2c0-0.8-0.1-1.6-0.3-2.2
		c-0.2-0.7-0.4-1.2-0.7-1.7c-0.3-0.5-0.6-0.9-1-1.2c-0.6-0.6-1.2-1-1.9-1.3c-0.7-0.3-1.4-0.5-2-0.6c-0.6-0.1-1.3-0.2-1.9-0.2
		c-0.3,0-0.5,0-0.8,0c-0.3,0-0.4,0.1-0.5,0.1c-0.2,0.1-0.2,0.2-0.2,0.4C215.7,170.5,215.7,171.9,215.7,174.1z"/>
	<path class="st4" d="M240.8,180.5v-1.7c0-0.5,0-0.9-0.1-1.2c-0.1-0.3-0.2-0.6-0.3-1c0-0.1-0.3-0.5-0.7-1.3c-0.4-0.7-1-1.6-1.6-2.6
		c-0.6-1-1.1-1.7-1.3-2c-0.5-0.7-1-1.3-1.4-1.5c-0.3-0.2-0.6-0.3-0.9-0.3c-0.2,0-0.3-0.1-0.3-0.2c0-0.1,0.1-0.2,0.4-0.2
		c0,0,0.2,0,0.4,0c0.2,0,0.6,0,1.2,0c0.6,0,0.9,0,1.1,0c0.1,0,0.2,0,0.5,0c0.2,0,0.5,0,0.9,0s0.6,0,0.8,0c0.2,0,0.3,0.1,0.3,0.2
		c0,0.1,0,0.1-0.1,0.1c-0.1,0-0.2,0.1-0.4,0.1c-0.2,0.1-0.3,0.2-0.3,0.4c0,0.1,0.1,0.4,0.2,0.7c0.1,0.2,0.4,0.7,0.8,1.5
		c0.5,0.9,1,1.8,1.6,2.8s0.9,1.6,1.1,1.9c0-0.1,0.2-0.4,0.5-0.9s0.6-1.1,1-1.9s0.7-1.4,1-1.9c0.3-0.5,0.5-0.9,0.5-1.1
		c0.2-0.4,0.3-0.8,0.3-1.1c0-0.3-0.1-0.4-0.4-0.5c-0.2-0.1-0.4-0.1-0.4-0.2c0-0.1,0.1-0.2,0.4-0.2c0.2,0,0.4,0,0.7,0
		c0.3,0,0.5,0,0.8,0c0.2,0,0.4,0,0.5,0s0.3,0,0.5,0c0.2,0,0.5,0,0.7,0c0.2,0,0.4,0,0.5,0c0.1,0,0.3,0,0.4,0c0.2,0,0.4,0.1,0.4,0.2
		c0,0.1-0.1,0.2-0.4,0.2c-0.3,0-0.6,0.1-0.9,0.2c-0.2,0.1-0.4,0.2-0.5,0.3s-0.3,0.3-0.6,0.7c-0.2,0.3-0.7,0.9-1.2,1.9
		c-0.6,1-1.1,1.9-1.7,2.9s-0.9,1.6-1,1.8c-0.1,0.3-0.2,0.7-0.3,1c0,0.3-0.1,0.7-0.1,1.1v1.7c0,0.8,0,1.5,0.1,2.1
		c0,0.4,0.1,0.6,0.2,0.8s0.3,0.3,0.6,0.3c0.4,0.1,0.7,0.1,1,0.1c0.2,0,0.3,0.1,0.3,0.2c0,0.1-0.1,0.2-0.4,0.2c-0.3,0-0.7,0-1,0
		c-0.4,0-0.7,0-1,0c-0.3,0-0.5,0-0.6,0s-0.3,0-0.5,0c-0.2,0-0.4,0-0.5,0c-0.1,0-0.3,0-0.6,0c-0.3,0-0.5,0-0.8,0c-0.3,0-0.5,0-0.7,0
		c-0.3,0-0.5-0.1-0.5-0.2c0-0.1,0.1-0.2,0.3-0.2c0.2,0,0.5,0,0.7-0.1c0.4-0.1,0.6-0.5,0.6-1.2C240.7,181.9,240.8,181.3,240.8,180.5z
		"/>
	<path class="st4" d="M257.8,184.4c-1.4,0-2.6-0.2-3.7-0.7c-1.1-0.5-1.9-1.1-2.6-1.9c-0.7-0.8-1.2-1.7-1.5-2.6
		c-0.3-1-0.5-1.9-0.5-2.9c0-1.3,0.3-2.6,0.9-3.8c0.6-1.2,1.5-2.3,2.8-3.1c1.3-0.8,2.9-1.2,4.8-1.2c1.3,0,2.4,0.2,3.4,0.5
		c1,0.4,1.9,0.9,2.6,1.6c0.7,0.7,1.3,1.5,1.6,2.4s0.6,2,0.6,3.2c0,1.6-0.3,3-1,4.3c-0.7,1.3-1.7,2.3-3,3.1
		C261,184,259.5,184.4,257.8,184.4z M258.7,183.4c0.7,0,1.3-0.2,2-0.5s1.3-1,1.9-2c0.5-1,0.8-2.4,0.8-4.2c0-1.5-0.3-2.8-0.8-4
		c-0.5-1.1-1.2-2-2.2-2.6c-0.9-0.6-1.9-0.9-3.1-0.9c-0.6,0-1.3,0.1-1.8,0.3c-0.6,0.2-1.1,0.5-1.6,1c-0.5,0.5-0.9,1.2-1.2,2
		c-0.3,0.9-0.4,1.9-0.4,3.1c0,1.1,0.1,2.1,0.4,3c0.3,0.9,0.7,1.8,1.3,2.5c0.6,0.7,1.2,1.3,2,1.7
		C256.9,183.2,257.7,183.4,258.7,183.4z"/>
	<path class="st4" d="M269.9,177.5v-3c0-0.8,0-1.5,0-2.1c0-0.6,0-1.1,0-1.3c0-0.3,0-0.6,0-0.9c0-0.4-0.1-0.6-0.2-0.8
		c-0.1-0.2-0.3-0.3-0.7-0.4c-0.2,0-0.4-0.1-0.8-0.1c-0.2,0-0.4-0.1-0.4-0.2c0-0.1,0.2-0.2,0.5-0.2c0.3,0,0.6,0,1.1,0
		c0.5,0,0.9,0,1.2,0c0.3,0,0.5,0,0.6,0c0.1,0,0.2,0,0.5,0s0.6,0,1.1,0s0.8,0,1,0c0.3,0,0.5,0.1,0.5,0.2c0,0.1-0.1,0.2-0.3,0.2
		c-0.2,0-0.4,0-0.6,0.1c-0.3,0-0.5,0.2-0.6,0.3c-0.1,0.2-0.2,0.5-0.2,0.8c0,0.3,0,0.7,0,1.2c0,0.5,0,1.5,0,3.2v2.9
		c0,1.4,0.1,2.5,0.4,3.3s0.7,1.4,1.2,1.8c0.4,0.3,0.8,0.6,1.2,0.7c0.4,0.1,0.9,0.2,1.3,0.2c0.5,0,1-0.1,1.5-0.3
		c0.5-0.2,1-0.5,1.3-0.8c0.5-0.5,0.8-1.2,1-1.9s0.2-1.8,0.2-3.2v-2.6c0-0.8,0-1.5,0-2.1c0-0.6,0-1.1,0-1.3c0-0.3,0-0.6,0-0.9
		c0-0.4-0.1-0.6-0.2-0.8c-0.1-0.2-0.3-0.3-0.7-0.4c-0.1,0-0.4-0.1-0.7-0.1c-0.2,0-0.3-0.1-0.3-0.2c0-0.1,0.1-0.2,0.4-0.2
		c0.2,0,0.6,0,1,0s0.8,0,1,0c0.2,0,0.3,0,0.3,0c0,0,0.1,0,0.4,0c0.2,0,0.6,0,1,0c0.4,0,0.7,0,0.9,0c0.3,0,0.4,0.1,0.4,0.2
		c0,0.1-0.1,0.2-0.4,0.2c-0.2,0-0.4,0-0.6,0.1c-0.3,0-0.5,0.2-0.6,0.3s-0.2,0.5-0.2,0.8c0,0.3,0,0.7,0,1.2c0,0.5,0,1.5,0,3.2v2.2
		c0,1.4-0.1,2.7-0.4,3.7c-0.3,1-0.8,1.9-1.6,2.5c-0.7,0.6-1.4,1-2.1,1.2c-0.7,0.2-1.4,0.3-2.2,0.3c-0.8,0-1.6-0.1-2.4-0.3
		s-1.5-0.6-2.2-1.2c-0.6-0.5-1-1.2-1.3-2.1S269.9,178.9,269.9,177.5z"/>
	<path class="st4" d="M288.3,178.1v-3.6c0-0.8,0-1.5,0-2.1c0-0.6,0-1.1,0-1.3c0-0.3,0-0.6,0-0.9c0-0.4-0.1-0.6-0.2-0.8
		c-0.1-0.2-0.3-0.3-0.7-0.4c-0.2,0-0.4-0.1-0.8-0.1c-0.2,0-0.4-0.1-0.4-0.2c0-0.1,0.2-0.2,0.5-0.2c0.3,0,0.6,0,1.1,0s0.9,0,1.2,0
		c0.3,0,0.5,0,0.5,0c0.2,0,0.4,0,0.7,0c0.3,0,0.6,0,0.9,0c0.3,0,0.5,0,0.7,0c0.2,0,0.4,0,0.6,0c1.6,0,2.9,0.3,3.8,0.9
		c0.3,0.2,0.7,0.6,1,1.1c0.3,0.5,0.4,1.1,0.4,1.7c0,0.5-0.1,1-0.2,1.5c-0.2,0.5-0.5,1-0.9,1.5s-0.9,1.1-1.6,1.6
		c0.8,1,1.4,1.8,1.9,2.4c0.5,0.6,0.9,1.2,1.3,1.7c0.4,0.5,0.8,1,1.2,1.4c0.5,0.5,0.9,0.9,1.3,1c0.4,0.2,0.7,0.3,1,0.4
		c0.2,0,0.4,0.1,0.6,0.1c0.2,0,0.2,0.1,0.2,0.2c0,0.1-0.1,0.2-0.4,0.2h-2c-0.5,0-1,0-1.3-0.1c-0.3-0.1-0.6-0.2-0.9-0.3
		c-0.4-0.2-0.8-0.6-1.2-1s-0.9-1.1-1.6-2c-0.3-0.4-0.7-0.9-1.1-1.6c-0.5-0.7-0.8-1.1-0.9-1.2c-0.1-0.1-0.2-0.1-0.4-0.1l-1.8,0
		c-0.1,0-0.2,0.1-0.2,0.2v0.3c0,1.2,0,2.2,0,2.9c0,0.7,0,1.2,0.1,1.5c0,0.4,0.1,0.6,0.2,0.8c0.1,0.2,0.3,0.3,0.6,0.3
		c0.4,0.1,0.7,0.1,1,0.1c0.2,0,0.2,0.1,0.2,0.2c0,0.1-0.1,0.2-0.4,0.2c-0.3,0-0.6,0-1,0s-0.7,0-1,0c-0.3,0-0.5,0-0.6,0s-0.3,0-0.4,0
		c-0.2,0-0.3,0-0.4,0s-0.3,0-0.5,0c-0.2,0-0.5,0-0.8,0s-0.5,0-0.8,0c-0.3,0-0.4-0.1-0.4-0.2c0-0.1,0.1-0.2,0.3-0.2
		c0.2,0,0.5,0,0.7-0.1c0.2,0,0.3-0.1,0.4-0.3c0.1-0.2,0.1-0.5,0.2-0.8C288.2,181.9,288.3,180.5,288.3,178.1z M290.7,169.8v6.3
		c0,0.1,0,0.2,0,0.2c0,0.1,0.1,0.1,0.1,0.1c0.2,0.1,0.5,0.1,0.8,0.2c0.3,0,0.5,0,0.8,0c0.4,0,0.7,0,0.9-0.1s0.4-0.1,0.6-0.3
		c0.8-0.6,1.2-1.6,1.2-3.1c0-1.3-0.3-2.3-1-2.9c-0.7-0.6-1.4-0.9-2.1-0.9c-0.5,0-0.9,0-1.1,0.1C290.7,169.6,290.7,169.7,290.7,169.8
		z"/>
	<path class="st4" d="M309.9,178.1v-3.6c0-0.8,0-1.5,0-2.1c0-0.6,0-1.1,0-1.3c0-0.3,0-0.6,0-0.9c0-0.4-0.1-0.6-0.2-0.8
		c-0.1-0.2-0.3-0.3-0.7-0.4c-0.2,0-0.4-0.1-0.8-0.1c-0.2,0-0.4-0.1-0.4-0.2c0-0.1,0.2-0.2,0.5-0.2c0.3,0,0.6,0,1.1,0s0.9,0,1.2,0
		c0.3,0,0.5,0,0.5,0c0.2,0,0.5,0,0.9,0c0.4,0,0.7,0,1,0c0.3,0,0.5,0,0.6,0c1.1,0,2,0.2,2.7,0.5c0.6,0.3,1.1,0.7,1.3,1.2
		c0.2,0.5,0.4,0.9,0.4,1.4c0,0.4-0.1,0.8-0.2,1.1c-0.1,0.4-0.3,0.7-0.5,1c-0.2,0.3-0.4,0.5-0.7,0.8c-0.2,0.2-0.5,0.5-0.8,0.7
		c0.6,0.2,1.2,0.5,1.8,0.9c0.6,0.4,1,0.9,1.4,1.5c0.4,0.6,0.6,1.3,0.6,2c0,0.6-0.1,1.1-0.3,1.7c-0.2,0.5-0.6,1-1,1.4
		c-0.5,0.4-1,0.8-1.7,1c-0.7,0.2-1.5,0.4-2.4,0.4c-0.1,0-0.6,0-1.4-0.1c-0.8,0-1.3-0.1-1.5-0.1c-0.2,0-0.3,0-0.5,0s-0.3,0-0.6,0
		c-0.2,0-0.5,0-0.8,0s-0.5,0-0.8,0c-0.3,0-0.4-0.1-0.4-0.2c0-0.1,0.1-0.2,0.3-0.2c0.2,0,0.5,0,0.7-0.1c0.2,0,0.3-0.1,0.4-0.3
		c0.1-0.2,0.1-0.5,0.2-0.8C309.8,181.9,309.9,180.5,309.9,178.1z M312.3,169.7v5.1c0,0.1,0,0.2,0.1,0.2c0.2,0,0.5,0.1,1,0.1
		c0.7,0,1.2-0.1,1.5-0.4c0.6-0.5,0.8-1.2,0.8-2.2c0-0.5-0.1-1-0.3-1.5c-0.2-0.5-0.5-0.9-0.9-1.2s-0.9-0.5-1.4-0.5
		c-0.3,0-0.5,0-0.7,0C312.4,169.4,312.3,169.5,312.3,169.7z M317,180.6c0-0.5-0.1-1-0.2-1.5c-0.1-0.5-0.3-1-0.6-1.5
		s-0.7-0.9-1.2-1.2c-0.4-0.3-1-0.5-1.7-0.5c-0.2,0-0.5,0-0.9,0c-0.1,0-0.1,0-0.1,0.1v4.9c0,0.5,0,0.8,0,1.1c0,0.2,0.1,0.4,0.2,0.6
		c0.1,0.1,0.3,0.2,0.5,0.3c0.4,0.2,0.9,0.3,1.5,0.3c0.4,0,0.7-0.1,1.1-0.2c0.4-0.2,0.7-0.4,1-0.8C316.9,181.8,317,181.3,317,180.6z"
		/>
	<path class="st4" d="M324.4,178.1v-3.6c0-0.8,0-1.5,0-2.1c0-0.6,0-1.1,0-1.3c0-0.3,0-0.6,0-0.9c0-0.7-0.3-1-0.7-1.1
		c-0.2-0.1-0.4-0.1-0.7-0.1c-0.2,0-0.3-0.1-0.3-0.2c0-0.1,0.2-0.2,0.5-0.2c0.2,0,0.5,0,1.1,0s0.9,0,1.1,0s0.4,0,0.5,0
		c0.1,0,0.3,0,0.5,0c0.3,0,0.6,0,1.1,0c0.4,0,0.7,0,0.9,0c0.3,0,0.4,0.1,0.4,0.2c0,0.1-0.1,0.2-0.3,0.2c-0.2,0-0.4,0-0.6,0.1
		c-0.3,0-0.5,0.2-0.6,0.3s-0.2,0.5-0.2,0.8c0,0.3,0,0.7,0,1.2c0,0.5,0,1.5,0,3.2v3.6c0,0.5,0,0.9,0,1.4c0,0.5,0,0.9,0,1.3
		c0,0.4,0,0.7,0,1c0,0.3,0,0.6,0,0.9c0,0.3,0.1,0.6,0.2,0.7s0.3,0.3,0.6,0.3c0.4,0.1,0.7,0.1,1,0.1c0.2,0,0.3,0.1,0.3,0.2
		c0,0.1-0.1,0.2-0.4,0.2c-0.3,0-0.7,0-1.1,0s-0.7,0-1,0c-0.3,0-0.5,0-0.6,0s-0.3,0-0.5,0c-0.2,0-0.3,0-0.5,0s-0.3,0-0.6,0
		c-0.2,0-0.5,0-0.8,0s-0.5,0-0.8,0c-0.3,0-0.4-0.1-0.4-0.2c0-0.1,0.1-0.2,0.3-0.2c0.2,0,0.5,0,0.7-0.1c0.2,0,0.3-0.1,0.4-0.3
		c0.1-0.2,0.1-0.4,0.2-0.7c0-0.4,0.1-0.8,0.1-1.2c0-0.4,0-0.9,0-1.5C324.4,179.4,324.4,178.7,324.4,178.1z"/>
	<path class="st4" d="M336.1,174.5v0.9h0.1c0.1-0.1,0.5-0.6,1.3-1.3c0.7-0.8,1.4-1.4,1.9-2c0.5-0.6,0.9-1,1.1-1.2
		c0.4-0.4,0.6-0.8,0.8-1c0.2-0.2,0.2-0.4,0.2-0.6c0-0.2-0.1-0.4-0.3-0.4c-0.2,0-0.3-0.1-0.3-0.2c0-0.1,0.1-0.2,0.3-0.2
		c0.2,0,0.3,0,0.4,0c0.1,0,0.3,0,0.5,0s0.4,0,0.7,0c0.2,0,0.4,0,0.5,0c0.1,0,0.4,0,0.7,0c0.3,0,0.7,0,1,0c0.3,0,0.6,0,0.7,0
		c0.2,0,0.4,0.1,0.4,0.2c0,0.1-0.1,0.2-0.3,0.2c-0.4,0-0.8,0.1-1.2,0.2c-0.7,0.3-1.4,0.8-2.2,1.6c-0.2,0.2-0.9,0.9-2.2,2.2
		c-1.3,1.3-2,2-2.2,2.3c0.2,0.3,0.7,0.8,1.4,1.6c0.7,0.8,1.5,1.6,2.4,2.6s1.5,1.6,1.8,1.9c0.7,0.6,1.2,1.1,1.6,1.4
		c0.4,0.3,0.9,0.6,1.4,0.8c0.5,0.2,0.9,0.3,1.3,0.3c0.2,0,0.3,0.1,0.3,0.2c0,0.1-0.2,0.2-0.5,0.2h-1.8c-0.7,0-1.1,0-1.4,0
		c-0.4,0-0.7-0.1-1-0.2c-0.3-0.1-0.5-0.3-0.8-0.5s-0.5-0.4-0.8-0.7c-0.3-0.2-0.8-0.8-1.6-1.7c-0.8-0.9-1.6-1.8-2.4-2.8
		s-1.3-1.5-1.4-1.8l-0.2-0.3h-0.1v1.9c0,2.4,0,3.8,0.1,4.4c0,0.7,0.3,1.1,0.7,1.1c0.4,0.1,0.7,0.1,1,0.1c0.2,0,0.3,0.1,0.3,0.2
		c0,0.1-0.1,0.2-0.4,0.2c-0.3,0-0.6,0-0.9,0s-0.6,0-0.9,0c-0.3,0-0.5,0-0.6,0c-0.1,0-0.3,0-0.5,0c-0.2,0-0.3,0-0.5,0s-0.3,0-0.6,0
		c-0.2,0-0.5,0-0.8,0s-0.5,0-0.8,0c-0.3,0-0.4-0.1-0.4-0.2c0-0.1,0.1-0.2,0.3-0.2c0.2,0,0.5,0,0.7-0.1c0.2,0,0.3-0.1,0.4-0.3
		c0.1-0.2,0.1-0.5,0.2-0.8c0.1-0.6,0.1-2,0.1-4.4v-3.6c0-0.8,0-1.5,0-2.1c0-0.6,0-1.1,0-1.3c0-0.3,0-0.6,0-0.9
		c0-0.4-0.1-0.6-0.2-0.8c-0.1-0.2-0.3-0.3-0.7-0.4c-0.2,0-0.4-0.1-0.8-0.1c-0.2,0-0.4-0.1-0.4-0.2c0-0.1,0.2-0.2,0.5-0.2
		c0.3,0,0.6,0,1.1,0c0.5,0,0.9,0,1.2,0c0.3,0,0.5,0,0.6,0c0.1,0,0.2,0,0.4,0s0.6,0,1.1,0s0.8,0,1,0c0.3,0,0.4,0.1,0.4,0.2
		c0,0.1-0.1,0.2-0.3,0.2c-0.2,0-0.3,0-0.6,0.1c-0.3,0-0.5,0.2-0.6,0.3s-0.2,0.5-0.2,0.8c0,0.3,0,0.7,0,1.2
		C336.1,171.7,336.1,172.8,336.1,174.5z"/>
	<path class="st4" d="M349.4,178.1v-3.6c0-0.8,0-1.5,0-2.1c0-0.6,0-1.1,0-1.3c0-0.3,0-0.6,0-0.9c0-0.4-0.1-0.6-0.2-0.8
		c-0.1-0.2-0.3-0.3-0.7-0.4c-0.2,0-0.4-0.1-0.8-0.1c-0.2,0-0.4-0.1-0.4-0.2c0-0.1,0.2-0.2,0.5-0.2c0.3,0,0.6,0,1.1,0s0.9,0,1.2,0
		c0.3,0,0.5,0,0.6,0c3.2,0,4.9,0,5.1,0c0.5-0.1,0.8-0.1,0.9-0.1c0,0,0.1,0,0.2,0c0.1,0,0.1,0,0.2,0c0.1,0,0.1,0.1,0.1,0.2
		c0,0.1,0,0.2-0.1,0.5c0,0.3-0.1,0.5-0.1,0.9c0,0.2,0,0.4,0,0.8c0,0.3,0,0.5-0.1,0.6c0,0.1-0.1,0.2-0.2,0.2c-0.1,0-0.2-0.1-0.2-0.3
		c0-0.3,0-0.5-0.1-0.8c-0.1-0.2-0.2-0.4-0.4-0.5c-0.2-0.1-0.5-0.2-1-0.3c-0.5-0.1-1.4-0.1-2.9-0.1c-0.1,0-0.1,0.1-0.1,0.2v5.2
		c0,0.1,0,0.2,0.1,0.2c1.9,0,3,0,3.3,0c0.5,0,0.8-0.1,1-0.3c0.2-0.2,0.3-0.3,0.3-0.3c0.1,0,0.1,0.1,0.1,0.2c0,0,0,0.2-0.1,0.5
		c0,0.3-0.1,0.6-0.1,1c-0.1,0.5-0.1,1-0.1,1.4c0,0.3-0.1,0.4-0.2,0.4c-0.1,0-0.2-0.1-0.2-0.2c0-0.1,0-0.2,0-0.3c0-0.1,0-0.2,0-0.3
		s0-0.2,0-0.2c-0.1-0.5-0.5-0.8-1.2-0.8c-0.4,0-1.4-0.1-2.9-0.1c-0.1,0-0.1,0.1-0.1,0.2v1.6v3.2c0,0.4,0.1,0.7,0.1,0.9
		c0.1,0.2,0.2,0.4,0.3,0.5s0.4,0.2,0.7,0.3c0.3,0.1,0.7,0.1,1.3,0.1c0.4,0,0.8,0,1.1,0c0.3,0,0.6-0.1,0.8-0.2
		c0.3-0.1,0.5-0.3,0.6-0.5s0.2-0.6,0.3-1c0-0.2,0.1-0.3,0.2-0.3c0.1,0,0.2,0.1,0.2,0.4c0,0.2,0,0.6-0.1,1.1
		c-0.1,0.5-0.1,0.9-0.2,1.2s-0.2,0.4-0.3,0.5s-0.4,0.1-0.8,0.1c-1,0-1.8,0-2.5,0c-0.7,0-1.3,0-1.8-0.1c-0.5,0-1,0-1.3,0
		c-0.2,0-0.3,0-0.5,0s-0.3,0-0.6,0c-0.2,0-0.5,0-0.8,0s-0.5,0-0.8,0c-0.3,0-0.4-0.1-0.4-0.2c0-0.1,0.1-0.2,0.3-0.2
		c0.2,0,0.5,0,0.7-0.1c0.2,0,0.3-0.1,0.4-0.3c0.1-0.2,0.1-0.5,0.2-0.8C349.4,181.9,349.4,180.5,349.4,178.1z"/>
</g>
</svg>
