<?xml version="1.0" encoding="utf-8"?>
<!-- Generator: Adobe Illustrator 21.1.0, SVG Export Plug-In . SVG Version: 6.00 Build 0)  -->
<svg version="1.1" id="Layer_1" xmlns="http://www.w3.org/2000/svg" xmlns:xlink="http://www.w3.org/1999/xlink" x="0px" y="0px"
	 viewBox="0 0 360.7 188" style="enable-background:new 0 0 360.7 188;" xml:space="preserve">
<style type="text/css">
	.st0{fill:#FFFFFF;stroke:#FFFFFF;stroke-miterlimit:10;}
	.st1{fill:#654EA1;}
	.st2{fill:#039B76;}
	.st3{fill:#FFFFFF;}
</style>
<g id="Layer_1_1_">
	<g id="Layer_2">
	</g>
	<g>
		<g>
			<g>
				<path class="st0" d="M92.4,93.2l23.1,50.8c0.7,1.2,1.2,3,1.2,3.5c0,0.9-0.7,1.6-2,1.6H97.9c-1.3,0-2.5-0.7-2.9-1.6l-23.9-52
					c-0.2-0.2-0.4-0.4-0.7-0.4h-34c-0.4,0-0.7,0.2-0.8,0.7l-10.2,50.7c-0.2,1.3-1.8,2.7-3.1,2.7H7.9c-1.3,0-2.2-1.2-2.2-2.2
					c0-0.4,0.4-2.7,2.2-9.6l27.4-132c0.2-1,1-2.1,2.6-2.2h52.8c29.3,0,44.1,16.5,44.1,39.1C134.7,66.9,117.9,88.1,92.4,93.2z
					 M51.4,20.7L39,78.1c-0.1,0.5,0.3,1,0.8,1h32.8C93.7,79.1,115,65,115,42.2c0.2-13.7-8.1-22.1-27.5-22.1H52.2
					C51.8,20.1,51.5,20.3,51.4,20.7z"/>
				<path class="st0" d="M160.2,145.7c-0.2,1.3-2.9,3.4-4.2,3.4h-12.1c-1.3,0-3.1-2-3.1-3c0-0.7,0.3-2.5,0.7-4.6l9.8-55.4
					c0.4-1.4,2.8-3.2,4.1-3.2h12.2c1.3,0,3,1.5,2.9,2.6L160.2,145.7z"/>
				<path class="st0" d="M230.9,65.3l-13.7,79.9c-0.2,1.3-3.1,3.9-4.4,3.9l-12.2,0.2c-1.3,0-3.1-2.5-3.1-3.7c0-0.4,0.2-1.6,0.4-2.7
					l13.2-77.7h-17.8c-1.3,0-2.7-1.8-2.5-3.1l2-10.8c0.2-1.3,2.5-3.1,3.8-3.1h17.8l3.6-16.4C222.7,6.9,229.4,1.5,252.4,4
					c7.8,0.8,10.4,1.4,13.8,3.2c2,1.2,3.9,0.8,1.3,6.5l-3.8,7.6c-0.9,1.8-2.1,1.6-4.4,0.5c-4.5-1.8-7.3-1.9-7.3-1.9
					c-7.2-0.7-11.7-1.9-14.4,11.8L234,48.1h38.5l4-20.8c0.2-1.3,3.4-3.8,4.7-3.8h12.1c1.3,0,3.1,2.5,2.9,3.8l-4,20.8H310
					c1.3,0,2.5,1.6,2.5,2.9c0,0.2-0.2,1.6-0.4,2.7l-1.6,8.3c-0.2,1.3-2.5,3.1-3.8,3.1h-17.8l-8.3,51.6c-0.4,2.5-0.9,5.3-0.9,7.2
					c0,8.3,5.3,8.6,10.9,8.6c4.4,0,6.7,0.1,10.5-2c2.5-1.3,3.6-0.2,4.3,1.6c0,0,2.7,12.3,0.4,13.4c-4.9,2.7-13,3.1-21.5,3.1
					c-14.8,0-24.3-6.7-24.3-21.2c0-2.9,0.2-7.4,0.9-10.8l8.3-51.6h-38.3L230.9,65.3L230.9,65.3z"/>
			</g>
			<g>
				<path class="st1" d="M327.3,44.4c0.2-1.1,1.2-2.3,3.9-0.9c0,0,23.1,9,25.4,11.3c1.2,1.2,1.2,2.6,0,3.8
					c-2.1,2-27.2,11.5-29.8,12.3c-1.3,0.4-3.3-0.2-3-2.4C324.1,65.1,327.3,44.4,327.3,44.4z"/>
			</g>
		</g>
	</g>
	<path class="st2" d="M179.6,58c0,8.9-8.2,16-17,16s-15-7.2-15-16s9.2-16,18-16S179.6,49.1,179.6,58z"/>
</g>
<g>
	<path class="st3" d="M4.9,179.2v-3.3c0-0.7,0-1.3,0-1.9s0-1,0-1.2s0-0.5,0-0.8s-0.1-0.6-0.2-0.7c-0.1-0.2-0.3-0.3-0.6-0.3
		c-0.1,0-0.4-0.1-0.7-0.1c-0.2,0-0.3-0.1-0.3-0.2c0-0.1,0.1-0.2,0.4-0.2c0.2,0,0.6,0,1,0c0.4,0,0.8,0,1,0c0.3,0,0.4,0,0.5,0
		c0.2,0,0.5,0,0.8,0c0.3,0,0.6,0,0.9,0c0.3,0,0.5,0,0.6,0c1,0,1.8,0.2,2.4,0.5s1,0.7,1.2,1.1c0.2,0.4,0.3,0.8,0.3,1.3
		c0,0.4,0,0.7-0.1,1s-0.2,0.6-0.4,0.9c-0.2,0.3-0.4,0.5-0.6,0.7c-0.2,0.2-0.5,0.4-0.7,0.7c0.6,0.2,1.1,0.5,1.6,0.8
		c0.5,0.4,0.9,0.8,1.3,1.4c0.3,0.5,0.5,1.2,0.5,1.8c0,0.5-0.1,1-0.3,1.5s-0.5,0.9-0.9,1.3c-0.4,0.4-0.9,0.7-1.5,0.9
		s-1.3,0.3-2.2,0.3c-0.1,0-0.6,0-1.3-0.1s-1.2-0.1-1.4-0.1s-0.3,0-0.4,0s-0.3,0-0.5,0s-0.5,0-0.7,0c-0.3,0-0.5,0-0.7,0
		c-0.2,0-0.4-0.1-0.4-0.2c0-0.1,0.1-0.2,0.3-0.2c0.2,0,0.4,0,0.7-0.1c0.2,0,0.3-0.1,0.4-0.3s0.1-0.4,0.2-0.7
		C4.8,182.6,4.9,181.3,4.9,179.2z M7.1,171.7v4.6c0,0.1,0,0.2,0.1,0.2c0.2,0,0.4,0.1,0.9,0.1c0.6,0,1.1-0.1,1.3-0.4
		c0.5-0.4,0.8-1.1,0.8-2c0-0.4-0.1-0.9-0.3-1.3c-0.2-0.4-0.4-0.8-0.8-1.1c-0.3-0.3-0.8-0.4-1.3-0.4c-0.3,0-0.5,0-0.6,0
		C7.1,171.4,7.1,171.5,7.1,171.7z M11.3,181.4c0-0.4-0.1-0.9-0.2-1.3c-0.1-0.4-0.3-0.9-0.6-1.3c-0.3-0.4-0.6-0.8-1-1.1
		c-0.4-0.3-0.9-0.4-1.5-0.4c-0.2,0-0.5,0-0.8,0c-0.1,0-0.1,0-0.1,0.1v4.4c0,0.4,0,0.7,0,1c0,0.2,0.1,0.4,0.2,0.5s0.2,0.2,0.4,0.3
		c0.4,0.2,0.8,0.2,1.3,0.2c0.3,0,0.6-0.1,1-0.2c0.3-0.1,0.6-0.4,0.9-0.7C11.2,182.5,11.3,182,11.3,181.4z"/>
	<path class="st3" d="M17.9,179.2v-3.3c0-0.7,0-1.3,0-1.9s0-1,0-1.2s0-0.5,0-0.8c0-0.6-0.2-0.9-0.6-1c-0.2-0.1-0.4-0.1-0.7-0.1
		c-0.2,0-0.3-0.1-0.3-0.2c0-0.1,0.1-0.2,0.4-0.2c0.1,0,0.5,0,1,0s0.8,0,1,0s0.3,0,0.4,0c0.1,0,0.2,0,0.5,0c0.2,0,0.6,0,0.9,0
		c0.4,0,0.7,0,0.8,0c0.3,0,0.4,0.1,0.4,0.2c0,0.1-0.1,0.2-0.3,0.2c-0.2,0-0.3,0-0.5,0.1c-0.2,0-0.4,0.1-0.5,0.3s-0.2,0.4-0.2,0.7
		s0,0.7,0,1.1c0,0.4,0,1.4,0,2.9v3.3c0,0.4,0,0.8,0,1.3c0,0.4,0,0.8,0,1.1s0,0.6,0,0.9c0,0.3,0,0.5,0,0.8s0.1,0.5,0.2,0.6
		s0.3,0.2,0.5,0.3c0.3,0,0.7,0.1,0.9,0.1c0.2,0,0.3,0.1,0.3,0.2c0,0.1-0.1,0.2-0.4,0.2s-0.6,0-0.9,0s-0.6,0-0.9,0s-0.4,0-0.6,0
		c-0.1,0-0.3,0-0.5,0s-0.3,0-0.4,0c-0.1,0-0.3,0-0.5,0s-0.5,0-0.7,0c-0.3,0-0.5,0-0.7,0s-0.4-0.1-0.4-0.2c0-0.1,0.1-0.2,0.3-0.2
		c0.2,0,0.4,0,0.7-0.1c0.2,0,0.3-0.1,0.4-0.3s0.1-0.4,0.2-0.7c0-0.3,0.1-0.7,0.1-1c0-0.4,0-0.8,0-1.4
		C17.9,180.3,17.9,179.8,17.9,179.2z"/>
	<path class="st3" d="M28.4,175.9v0.8h0.1c0.1-0.1,0.5-0.5,1.1-1.2c0.7-0.7,1.2-1.3,1.7-1.8s0.8-0.9,1-1.1c0.3-0.4,0.6-0.7,0.7-0.9
		c0.1-0.2,0.2-0.4,0.2-0.5c0-0.2-0.1-0.3-0.3-0.4c-0.2,0-0.2-0.1-0.2-0.2c0-0.1,0.1-0.2,0.3-0.2c0.2,0,0.3,0,0.4,0s0.2,0,0.4,0
		c0.2,0,0.4,0,0.6,0s0.4,0,0.5,0s0.3,0,0.6,0s0.6,0,0.9,0c0.3,0,0.5,0,0.6,0c0.2,0,0.3,0.1,0.3,0.2c0,0.1-0.1,0.2-0.3,0.2
		c-0.3,0-0.7,0.1-1.1,0.2c-0.6,0.2-1.3,0.7-2,1.4c-0.2,0.2-0.8,0.8-2,2c-1.1,1.1-1.8,1.8-2,2c0.2,0.3,0.6,0.8,1.2,1.5
		s1.3,1.5,2.1,2.3c0.8,0.9,1.3,1.4,1.6,1.7c0.6,0.6,1.1,1,1.4,1.3c0.4,0.3,0.8,0.5,1.2,0.7c0.5,0.2,0.8,0.3,1.1,0.3
		c0.2,0,0.2,0.1,0.2,0.2c0,0.1-0.1,0.2-0.4,0.2h-1.6c-0.6,0-1,0-1.3,0s-0.6-0.1-0.9-0.2c-0.2-0.1-0.5-0.2-0.7-0.4
		c-0.2-0.2-0.5-0.4-0.7-0.6c-0.2-0.2-0.7-0.7-1.4-1.5c-0.7-0.8-1.4-1.6-2.1-2.5s-1.1-1.4-1.3-1.6l-0.2-0.3H28v1.7c0,2.1,0,3.4,0.1,4
		c0,0.6,0.3,1,0.7,1c0.3,0,0.6,0.1,0.9,0.1c0.2,0,0.2,0.1,0.2,0.2c0,0.1-0.1,0.2-0.4,0.2s-0.5,0-0.8,0s-0.6,0-0.8,0
		c-0.2,0-0.4,0-0.5,0s-0.3,0-0.5,0s-0.3,0-0.4,0s-0.3,0-0.5,0s-0.5,0-0.7,0c-0.3,0-0.5,0-0.7,0s-0.4-0.1-0.4-0.2
		c0-0.1,0.1-0.2,0.3-0.2c0.2,0,0.4,0,0.7-0.1c0.2,0,0.3-0.1,0.4-0.3s0.1-0.4,0.2-0.7c0.1-0.5,0.1-1.8,0.1-4v-3.3c0-0.7,0-1.3,0-1.9
		s0-1,0-1.2s0-0.5,0-0.8s-0.1-0.6-0.2-0.7c-0.1-0.2-0.3-0.3-0.6-0.3c-0.1,0-0.4-0.1-0.7-0.1c-0.2,0-0.3-0.1-0.3-0.2
		c0-0.1,0.1-0.2,0.4-0.2c0.2,0,0.6,0,1,0s0.8,0,1.1,0c0.3,0,0.5,0,0.5,0c0.1,0,0.2,0,0.4,0c0.2,0,0.5,0,1,0c0.4,0,0.7,0,0.9,0
		c0.3,0,0.4,0.1,0.4,0.2c0,0.1-0.1,0.2-0.3,0.2c-0.1,0-0.3,0-0.5,0.1c-0.2,0-0.4,0.1-0.5,0.3s-0.2,0.4-0.2,0.7s0,0.7,0,1.1
		C28.4,173.5,28.4,174.4,28.4,175.9z"/>
	<path class="st3" d="M40.3,179.2v-3.3c0-0.7,0-1.3,0-1.9s0-1,0-1.2s0-0.5,0-0.8s-0.1-0.6-0.2-0.7c-0.1-0.2-0.3-0.3-0.6-0.3
		c-0.1,0-0.4-0.1-0.7-0.1c-0.2,0-0.3-0.1-0.3-0.2c0-0.1,0.1-0.2,0.4-0.2c0.2,0,0.6,0,1,0s0.8,0,1.1,0s0.5,0,0.6,0c2.8,0,4.4,0,4.6,0
		c0.4-0.1,0.7-0.1,0.8-0.1h0.1c0.1,0,0.1,0,0.2,0c0.1,0,0.1,0.1,0.1,0.2c0,0,0,0.2-0.1,0.4c0,0.2-0.1,0.5-0.1,0.8c0,0.2,0,0.4,0,0.7
		s0,0.5-0.1,0.6c0,0.1-0.1,0.2-0.2,0.2c-0.1,0-0.2-0.1-0.2-0.3c0-0.3,0-0.5-0.1-0.7s-0.2-0.3-0.4-0.4c-0.2-0.1-0.5-0.2-0.9-0.2
		s-1.3-0.1-2.6-0.1c-0.1,0-0.1,0.1-0.1,0.2v4.7c0,0.1,0,0.2,0.1,0.2c1.7,0,2.7,0,2.9,0c0.5,0,0.8-0.1,0.9-0.3
		c0.1-0.2,0.2-0.3,0.3-0.3s0.1,0.1,0.1,0.2c0,0,0,0.2-0.1,0.4c0,0.2-0.1,0.6-0.1,0.9c0,0.5-0.1,0.9-0.1,1.2c0,0.2-0.1,0.3-0.2,0.3
		c-0.1,0-0.2-0.1-0.2-0.2c0-0.1,0-0.2,0-0.2c0-0.1,0-0.2,0-0.2c0-0.1,0-0.1,0-0.2c-0.1-0.4-0.5-0.7-1-0.7c-0.3,0-1.2-0.1-2.6-0.1
		c-0.1,0-0.1,0.1-0.1,0.2v1.5v2.9c0,0.3,0,0.6,0.1,0.8s0.2,0.4,0.3,0.5s0.4,0.2,0.6,0.2c0.3,0,0.7,0.1,1.1,0.1c0.4,0,0.7,0,1,0
		s0.5-0.1,0.7-0.2c0.2-0.1,0.4-0.3,0.5-0.5s0.2-0.5,0.3-0.9c0-0.2,0.1-0.3,0.2-0.3c0.1,0,0.1,0.1,0.1,0.3s0,0.5-0.1,1
		s-0.1,0.8-0.2,1.1c-0.1,0.2-0.1,0.4-0.3,0.4c-0.1,0-0.4,0.1-0.7,0.1c-0.9,0-1.7,0-2.3,0s-1.2,0-1.6-0.1c-0.5,0-0.9,0-1.2,0
		c-0.2,0-0.3,0-0.4,0s-0.3,0-0.5,0s-0.5,0-0.7,0c-0.3,0-0.5,0-0.7,0s-0.4-0.1-0.4-0.2c0-0.1,0.1-0.2,0.3-0.2s0.4,0,0.7-0.1
		c0.2,0,0.3-0.1,0.4-0.3c0.1-0.2,0.1-0.4,0.2-0.7C40.3,182.6,40.3,181.3,40.3,179.2z"/>
	<path class="st3" d="M56.6,184.5l0.5-3.6h-1.5v-1.1h1.7l0.3-2.7H56V176h1.7l0.5-3.5h1.1l-0.5,3.5h1.9l0.5-3.5h1.1l-0.5,3.5h1.5v1.1
		h-1.7l-0.3,2.7h1.6v1.1h-1.7l-0.5,3.6h-1.1l0.5-3.6h-1.9l-0.5,3.6H56.6z M60.3,179.8l0.3-2.7h-1.9l-0.3,2.7H60.3z"/>
	<path class="st3" d="M70,183.7l-4.6-11.4c-0.2-0.5-0.4-0.8-0.6-1s-0.5-0.3-0.8-0.4c-0.2-0.1-0.4-0.1-0.7-0.1
		c-0.1,0-0.2-0.1-0.2-0.2c0-0.1,0.2-0.2,0.5-0.2c0.2,0,0.5,0,0.9,0c0.4,0,0.8,0,1.1,0c0.3,0,0.5,0,0.7,0c0.1,0,0.2,0,0.5,0
		s0.6,0,0.9,0s0.6,0,0.8,0c0.3,0,0.4,0.1,0.4,0.2c0,0.1-0.1,0.2-0.3,0.2c-0.4,0-0.6,0-0.7,0.1s-0.2,0.2-0.2,0.4s0.1,0.7,0.4,1.4
		l3.2,8.4h0.1c0.1-0.2,0.3-0.8,0.7-1.8c0.4-1,0.8-2.1,1.3-3.3s0.8-2.1,1.1-2.7c0.2-0.6,0.4-1.1,0.5-1.4c0.1-0.3,0.2-0.5,0.2-0.7
		s-0.1-0.3-0.2-0.3c-0.2-0.1-0.4-0.1-0.7-0.1c-0.2,0-0.3,0-0.3-0.1s0.2-0.2,0.5-0.2c0.2,0,0.5,0,0.8,0s0.6,0,0.8,0
		c0.2,0,0.3,0,0.3,0s0.2,0,0.4,0c0.2,0,0.4,0,0.7,0c0.3,0,0.5,0,0.6,0c0.3,0,0.4,0.1,0.4,0.2c0,0.1-0.1,0.2-0.3,0.2
		c-0.4,0-0.7,0.1-0.9,0.2c-0.1,0.1-0.3,0.3-0.4,0.5s-0.3,0.6-0.6,1.2c-0.3,0.6-0.4,1-0.5,1.2s-0.3,0.6-0.5,1.2s-0.5,1-0.6,1.3
		s-0.3,0.7-0.5,1.2c-0.1,0.2-0.3,0.7-0.7,1.6c-0.4,0.8-0.6,1.5-0.8,1.9c-0.2,0.4-0.4,0.8-0.6,1.3s-0.3,0.8-0.4,0.9
		c-0.2,0.5-0.4,0.9-0.4,1c-0.1,0.1-0.1,0.2-0.2,0.3s-0.1,0.1-0.2,0.1s-0.2-0.1-0.3-0.2C70.3,184.5,70.2,184.2,70,183.7z"/>
	<path class="st3" d="M84.2,179.7h-4.1c-0.1,0-0.1,0.1-0.2,0.2l-1,2.7c-0.2,0.4-0.3,0.8-0.3,1.1c0,0.4,0.2,0.6,0.7,0.6h0.3
		c0.2,0,0.3,0.1,0.3,0.2c0,0.1-0.1,0.2-0.3,0.2c-0.1,0-0.3,0-0.5,0s-0.4,0-0.6,0s-0.3,0-0.4,0s-0.3,0-0.5,0c0,0-0.3,0-0.7,0
		c-0.5,0-0.8,0-0.9,0s-0.3,0-0.5,0s-0.4-0.1-0.4-0.2c0-0.1,0.1-0.2,0.2-0.2c0.2,0,0.4,0,0.6,0c0.4,0,0.7-0.2,0.9-0.5
		c0.2-0.3,0.4-0.7,0.6-1.2l4.6-11.7c0.1-0.3,0.2-0.5,0.3-0.6c0.1-0.1,0.1-0.1,0.2-0.1s0.3,0.2,0.5,0.6c0.1,0.1,0.2,0.6,0.6,1.3
		c0.3,0.8,0.7,1.7,1,2.6c0.4,1,0.9,2.3,1.6,4s1.1,2.8,1.4,3.4c0.3,0.7,0.6,1.3,0.9,1.5s0.5,0.4,0.8,0.5c0.2,0,0.5,0.1,0.8,0.1
		c0.2,0,0.2,0.1,0.2,0.2c0,0.1-0.1,0.1-0.2,0.1s-0.3,0-0.7,0c-1.3,0-2.5,0-3.5,0c-0.2,0-0.3,0-0.4,0s-0.1,0-0.1-0.1s0.1-0.2,0.3-0.2
		c0.1,0,0.2-0.1,0.2-0.3c0,0,0-0.1,0-0.2l-1.5-4C84.3,179.8,84.3,179.7,84.2,179.7z M80.4,178.8h3.4c0.1,0,0.1,0,0.1-0.1l-1.7-4.6
		c0-0.1-0.1-0.2-0.1-0.2S82,174,82,174.1l-1.7,4.6C80.4,178.8,80.4,178.8,80.4,178.8z"/>
	<path class="st3" d="M92.2,179.2v-3.3c0-0.7,0-1.3,0-1.9s0-1,0-1.2s0-0.5,0-0.8s-0.1-0.6-0.2-0.7c-0.1-0.2-0.3-0.3-0.6-0.3
		c-0.1,0-0.4-0.1-0.7-0.1c-0.2,0-0.3-0.1-0.3-0.2c0-0.1,0.1-0.2,0.4-0.2c0.2,0,0.6,0,1,0s0.8,0,1.1,0c0.3,0,0.5,0,0.6,0
		c0.2,0,0.4,0,0.7,0c0.3,0,0.5,0,0.7,0s0.4,0,0.6,0s0.4,0,0.7,0c1,0,1.7,0.1,2.2,0.3s0.9,0.5,1.2,0.7c0.1,0.1,0.3,0.3,0.4,0.5
		s0.3,0.5,0.4,0.8s0.1,0.6,0.1,0.9c0,0.9-0.2,1.7-0.6,2.3c-0.4,0.7-0.9,1.2-1.6,1.6c-0.7,0.4-1.5,0.6-2.3,0.6c-0.2,0-0.3,0-0.4,0
		s-0.2-0.1-0.2-0.2c0-0.1,0.2-0.2,0.5-0.2c0.4,0,0.7-0.1,1.1-0.4c0.4-0.3,0.7-0.6,1-1.1s0.4-1,0.4-1.6c0-1.2-0.4-2.1-1.1-2.8
		c-0.5-0.5-1.1-0.7-1.8-0.7c-0.3,0-0.6,0-0.7,0.1c-0.1,0-0.1,0.2-0.1,0.4v7.4c0,2.1,0,3.4,0.1,4c0,0.3,0.1,0.5,0.2,0.7
		s0.3,0.3,0.5,0.3c0.3,0,0.7,0.1,0.9,0.1c0.2,0,0.3,0.1,0.3,0.2c0,0.1-0.1,0.2-0.3,0.2c-0.3,0-0.6,0-0.9,0s-0.6,0-0.9,0
		s-0.4,0-0.6,0s-0.3,0-0.5,0s-0.3,0-0.4,0s-0.3,0-0.5,0s-0.5,0-0.7,0c-0.3,0-0.5,0-0.7,0s-0.4-0.1-0.4-0.2c0-0.1,0.1-0.2,0.3-0.2
		c0.2,0,0.4,0,0.7-0.1c0.2,0,0.3-0.1,0.4-0.3s0.1-0.4,0.2-0.7C92.2,182.6,92.2,181.3,92.2,179.2z"/>
	<path class="st3" d="M109.7,184.9c-1.3,0-2.4-0.2-3.3-0.6c-0.9-0.4-1.7-1-2.3-1.7c-0.6-0.7-1.1-1.5-1.3-2.4
		c-0.3-0.9-0.4-1.7-0.4-2.6c0-1.2,0.3-2.3,0.8-3.4c0.5-1.1,1.4-2,2.5-2.8c1.1-0.7,2.6-1.1,4.3-1.1c1.1,0,2.2,0.2,3.1,0.5
		s1.7,0.8,2.4,1.4c0.6,0.6,1.1,1.3,1.5,2.2c0.3,0.9,0.5,1.8,0.5,2.9c0,1.4-0.3,2.7-0.9,3.9s-1.5,2.1-2.7,2.7
		C112.5,184.5,111.2,184.9,109.7,184.9z M110.4,183.9c0.6,0,1.2-0.1,1.8-0.4c0.6-0.3,1.2-0.9,1.7-1.8c0.5-0.9,0.7-2.2,0.7-3.8
		c0-1.3-0.2-2.5-0.7-3.5s-1.1-1.8-1.9-2.4s-1.7-0.8-2.7-0.8c-0.6,0-1.1,0.1-1.7,0.3c-0.5,0.2-1,0.5-1.4,0.9s-0.8,1-1,1.8
		c-0.3,0.8-0.4,1.7-0.4,2.8c0,1,0.1,1.8,0.4,2.7c0.3,0.8,0.6,1.6,1.1,2.2c0.5,0.6,1.1,1.1,1.8,1.5
		C108.8,183.7,109.6,183.9,110.4,183.9z"/>
	<path class="st3" d="M121.3,179.2v-3.3c0-0.7,0-1.3,0-1.9s0-1,0-1.2s0-0.5,0-0.8s-0.1-0.6-0.2-0.7c-0.1-0.2-0.3-0.3-0.6-0.3
		c-0.1,0-0.4-0.1-0.7-0.1c-0.2,0-0.3-0.1-0.3-0.2c0-0.1,0.1-0.2,0.4-0.2c0.2,0,0.6,0,1,0s0.8,0,1,0c0.3,0,0.4,0,0.5,0
		c0.2,0,0.4,0,0.6,0c0.3,0,0.5,0,0.8,0s0.5,0,0.6,0s0.3,0,0.6,0c1.5,0,2.6,0.3,3.4,0.8c0.3,0.2,0.6,0.5,0.9,1c0.3,0.5,0.4,1,0.4,1.5
		s-0.1,0.9-0.2,1.4c-0.1,0.4-0.4,0.9-0.8,1.4s-0.8,0.9-1.4,1.4c0.7,0.9,1.3,1.6,1.7,2.2c0.4,0.5,0.8,1,1.2,1.5
		c0.4,0.4,0.7,0.9,1.1,1.2c0.4,0.5,0.8,0.8,1.1,0.9s0.6,0.3,0.9,0.3c0.2,0,0.4,0.1,0.5,0.1s0.2,0.1,0.2,0.2c0,0.1-0.1,0.2-0.4,0.2
		h-1.8c-0.5,0-0.9,0-1.2-0.1c-0.3-0.1-0.6-0.1-0.8-0.3c-0.4-0.2-0.7-0.5-1.1-0.9c-0.4-0.4-0.8-1-1.4-1.8c-0.3-0.3-0.6-0.8-1-1.5
		c-0.4-0.6-0.7-1-0.8-1.1c-0.1-0.1-0.2-0.1-0.3-0.1h-1.6c-0.1,0-0.1,0-0.1,0.1v0.3c0,1.1,0,2,0,2.6s0,1.1,0.1,1.4
		c0,0.3,0.1,0.6,0.2,0.7c0.1,0.2,0.3,0.3,0.5,0.3c0.4,0,0.7,0.1,0.9,0.1c0.1,0,0.2,0.1,0.2,0.2c0,0.1-0.1,0.2-0.4,0.2s-0.6,0-0.9,0
		s-0.6,0-0.9,0s-0.4,0-0.6,0c-0.1,0-0.2,0-0.4,0c-0.1,0-0.3,0-0.4,0s-0.3,0-0.5,0s-0.4,0-0.7,0c-0.3,0-0.5,0-0.7,0s-0.4-0.1-0.4-0.2
		c0-0.1,0.1-0.2,0.3-0.2c0.2,0,0.4,0,0.7-0.1c0.2,0,0.3-0.1,0.4-0.3s0.1-0.4,0.2-0.7C121.3,182.6,121.3,181.3,121.3,179.2z
		 M123.5,171.8v5.6c0,0.1,0,0.2,0,0.2l0.1,0.1c0.2,0.1,0.5,0.1,0.7,0.1s0.5,0,0.7,0c0.4,0,0.6,0,0.8-0.1c0.2,0,0.3-0.1,0.5-0.2
		c0.7-0.5,1.1-1.5,1.1-2.8c0-1.2-0.3-2-0.9-2.6c-0.6-0.5-1.2-0.8-1.9-0.8c-0.5,0-0.8,0-1,0.1C123.5,171.5,123.5,171.6,123.5,171.8z"
		/>
	<path class="st3" d="M137.3,184.2l-3.9-11.8c-0.2-0.7-0.5-1.1-0.7-1.3c-0.2-0.1-0.4-0.2-0.7-0.2c-0.1,0-0.2,0-0.2,0
		c-0.1,0-0.1-0.1-0.1-0.1c0-0.1,0.1-0.2,0.4-0.2c0.2,0,0.5,0,0.9,0s0.8,0,1.2,0s0.8,0,1.1,0s0.6,0,0.9,0c0.3,0,0.4,0.1,0.4,0.2
		c0,0.1-0.1,0.2-0.3,0.2s-0.4,0-0.5,0.1s-0.2,0.2-0.2,0.4c0,0.1,0.1,0.7,0.4,1.7c0.1,0.2,0.3,1,0.7,2.3s0.7,2.3,0.9,3.2
		c0.3,0.8,0.5,1.7,0.8,2.5h0.1l3.6-9.7c0.2-0.4,0.3-0.7,0.5-0.7c0.1,0,0.2,0.1,0.2,0.2c0.1,0.1,0.2,0.4,0.3,0.7l3.8,9.3h0.1
		c0.1-0.4,0.3-1,0.5-1.6c0.2-0.7,0.4-1.2,0.5-1.7s0.4-1.4,0.8-2.8c0.4-1.4,0.6-2.1,0.7-2.2c0.1-0.4,0.2-0.8,0.2-1.1
		c0-0.4-0.3-0.6-0.9-0.6c-0.2,0-0.3-0.1-0.3-0.2c0-0.1,0.1-0.2,0.4-0.2c0.2,0,0.5,0,0.8,0s0.6,0,0.8,0s0.3,0,0.3,0s0.1,0,0.2,0
		c0.2,0,0.4,0,0.7,0s0.5,0,0.6,0c0.2,0,0.3,0.1,0.3,0.2c0,0.1-0.1,0.2-0.3,0.2c-0.3,0-0.5,0-0.6,0.1c-0.2,0.1-0.3,0.2-0.4,0.4
		s-0.3,0.7-0.6,1.5c-0.2,0.5-0.5,1.4-0.9,2.7s-1,2.9-1.5,4.7c-0.6,1.8-1,3-1.2,3.7c-0.1,0.3-0.2,0.5-0.3,0.7
		c-0.1,0.1-0.2,0.2-0.3,0.2s-0.2-0.1-0.2-0.2c-0.1-0.1-0.2-0.4-0.3-0.8l-3.8-9.3l0,0c-1.9,5-3.1,8.1-3.6,9.2
		c-0.2,0.4-0.3,0.6-0.4,0.8c-0.1,0.1-0.2,0.2-0.3,0.2s-0.2-0.1-0.2-0.2C137.4,184.6,137.4,184.4,137.3,184.2z"/>
	<path class="st3" d="M155,179.2v-3.3c0-0.7,0-1.3,0-1.9s0-1,0-1.2s0-0.5,0-0.8s-0.1-0.6-0.2-0.7c-0.1-0.2-0.3-0.3-0.6-0.3
		c-0.1,0-0.4-0.1-0.7-0.1c-0.2,0-0.3-0.1-0.3-0.2c0-0.1,0.1-0.2,0.4-0.2c0.2,0,0.6,0,1,0s0.8,0,1.1,0s0.5,0,0.6,0c2.8,0,4.4,0,4.6,0
		c0.4-0.1,0.7-0.1,0.8-0.1h0.1c0,0,0.1,0,0.2,0c0.1,0,0.1,0.1,0.1,0.2c0,0,0,0.2-0.1,0.4c0,0.2-0.1,0.5-0.1,0.8c0,0.2,0,0.4,0,0.7
		s0,0.5-0.1,0.6c0,0.1-0.1,0.2-0.2,0.2c-0.1,0-0.2-0.1-0.2-0.3c0-0.3,0-0.5-0.1-0.7s-0.2-0.3-0.4-0.4c-0.2-0.1-0.5-0.2-0.9-0.2
		s-1.3-0.1-2.6-0.1c-0.1,0-0.1,0.1-0.1,0.2v4.7c0,0.1,0,0.2,0.1,0.2c1.7,0,2.7,0,2.9,0c0.5,0,0.8-0.1,0.9-0.3
		c0.1-0.2,0.2-0.3,0.3-0.3s0.1,0.1,0.1,0.2c0,0,0,0.2-0.1,0.4c0,0.2-0.1,0.6-0.1,0.9c0,0.5-0.1,0.9-0.1,1.2c0,0.2-0.1,0.3-0.2,0.3
		c-0.1,0-0.2-0.1-0.2-0.2c0-0.1,0-0.2,0-0.2c0-0.1,0-0.2,0-0.2c0-0.1,0-0.1,0-0.2c-0.1-0.4-0.5-0.7-1-0.7c-0.3,0-1.2-0.1-2.6-0.1
		c-0.1,0-0.1,0.1-0.1,0.2v1.5v2.9c0,0.3,0,0.6,0.1,0.8s0.2,0.4,0.3,0.5s0.4,0.2,0.6,0.2c0.3,0,0.7,0.1,1.1,0.1c0.4,0,0.7,0,1,0
		s0.5-0.1,0.7-0.2c0.2-0.1,0.4-0.3,0.5-0.5s0.2-0.5,0.3-0.9c0-0.2,0.1-0.3,0.2-0.3c0.1,0,0.1,0.1,0.1,0.3s0,0.5-0.1,1
		s-0.1,0.8-0.2,1.1c-0.1,0.2-0.1,0.4-0.3,0.4c-0.1,0-0.4,0.1-0.7,0.1c-0.9,0-1.7,0-2.3,0s-1.2,0-1.6-0.1c-0.5,0-0.9,0-1.2,0
		c-0.2,0-0.3,0-0.4,0s-0.3,0-0.5,0s-0.5,0-0.7,0c-0.3,0-0.5,0-0.7,0s-0.4-0.1-0.4-0.2c0-0.1,0.1-0.2,0.3-0.2s0.4,0,0.7-0.1
		c0.2,0,0.3-0.1,0.4-0.3c0.1-0.2,0.1-0.4,0.2-0.7C154.9,182.6,155,181.3,155,179.2z"/>
	<path class="st3" d="M171.4,179.7h-4.1c-0.1,0-0.1,0.1-0.2,0.2l-1,2.7c-0.2,0.4-0.3,0.8-0.3,1.1c0,0.4,0.2,0.6,0.7,0.6h0.3
		c0.2,0,0.3,0.1,0.3,0.2c0,0.1-0.1,0.2-0.3,0.2c-0.1,0-0.3,0-0.5,0s-0.4,0-0.6,0c-0.2,0-0.3,0-0.4,0c-0.1,0-0.3,0-0.5,0
		c0,0-0.3,0-0.7,0c-0.5,0-0.8,0-0.9,0c-0.1,0-0.3,0-0.5,0s-0.4-0.1-0.4-0.2c0-0.1,0.1-0.2,0.2-0.2c0.2,0,0.4,0,0.6,0
		c0.4,0,0.7-0.2,0.9-0.5s0.4-0.7,0.6-1.2l4.6-11.7c0.1-0.3,0.2-0.5,0.3-0.6s0.1-0.1,0.2-0.1c0.1,0,0.3,0.2,0.5,0.6
		c0.1,0.1,0.2,0.6,0.6,1.3c0.3,0.8,0.7,1.7,1,2.6c0.4,1,0.9,2.3,1.6,4c0.7,1.7,1.1,2.8,1.4,3.4c0.3,0.7,0.6,1.3,0.9,1.5
		c0.3,0.3,0.5,0.4,0.8,0.5c0.2,0,0.5,0.1,0.8,0.1c0.2,0,0.2,0.1,0.2,0.2c0,0.1-0.1,0.1-0.2,0.1c-0.1,0-0.3,0-0.7,0
		c-1.3,0-2.5,0-3.5,0c-0.2,0-0.3,0-0.4,0c-0.1,0-0.1,0-0.1-0.1s0.1-0.2,0.3-0.2c0.1,0,0.2-0.1,0.2-0.3c0,0,0-0.1,0-0.2l-1.5-4
		C171.6,179.8,171.5,179.7,171.4,179.7z M167.7,178.8h3.4c0.1,0,0.1,0,0.1-0.1l-1.7-4.6c0-0.1-0.1-0.2-0.1-0.2s-0.1,0.1-0.1,0.2
		l-1.7,4.6C167.6,178.8,167.6,178.8,167.7,178.8z"/>
	<path class="st3" d="M179.5,179.2v-3.3c0-0.7,0-1.3,0-1.9s0-1,0-1.2s0-0.5,0-0.8s-0.1-0.6-0.2-0.7c-0.1-0.2-0.3-0.3-0.6-0.3
		c-0.1,0-0.4-0.1-0.7-0.1c-0.2,0-0.3-0.1-0.3-0.2c0-0.1,0.1-0.2,0.4-0.2c0.2,0,0.6,0,1,0s0.8,0,1,0c0.3,0,0.4,0,0.5,0
		c0.2,0,0.4,0,0.6,0c0.3,0,0.5,0,0.8,0s0.5,0,0.6,0s0.3,0,0.6,0c1.5,0,2.6,0.3,3.4,0.8c0.3,0.2,0.6,0.5,0.9,1s0.4,1,0.4,1.5
		s-0.1,0.9-0.2,1.4c-0.1,0.4-0.4,0.9-0.8,1.4c-0.4,0.5-0.8,0.9-1.4,1.4c0.7,0.9,1.3,1.6,1.7,2.2s0.8,1,1.2,1.5
		c0.4,0.4,0.7,0.9,1.1,1.2c0.4,0.5,0.8,0.8,1.1,0.9s0.6,0.3,0.9,0.3c0.2,0,0.4,0.1,0.5,0.1s0.2,0.1,0.2,0.2c0,0.1-0.1,0.2-0.4,0.2
		H190c-0.5,0-0.9,0-1.2-0.1s-0.6-0.1-0.8-0.3c-0.4-0.2-0.7-0.5-1.1-0.9c-0.4-0.4-0.8-1-1.4-1.8c-0.3-0.3-0.6-0.8-1-1.5
		c-0.4-0.6-0.7-1-0.8-1.1s-0.2-0.1-0.3-0.1h-1.6c-0.1,0-0.1,0-0.1,0.1v0.3c0,1.1,0,2,0,2.6s0,1.1,0.1,1.4c0,0.3,0.1,0.6,0.2,0.7
		c0.1,0.2,0.3,0.3,0.5,0.3c0.4,0,0.7,0.1,0.9,0.1c0.1,0,0.2,0.1,0.2,0.2c0,0.1-0.1,0.2-0.4,0.2c-0.3,0-0.6,0-0.9,0
		c-0.3,0-0.6,0-0.9,0c-0.3,0-0.4,0-0.6,0c-0.1,0-0.2,0-0.4,0c-0.1,0-0.3,0-0.4,0s-0.3,0-0.5,0s-0.4,0-0.7,0s-0.5,0-0.7,0
		s-0.4-0.1-0.4-0.2c0-0.1,0.1-0.2,0.3-0.2s0.4,0,0.7-0.1c0.2,0,0.3-0.1,0.4-0.3c0.1-0.2,0.1-0.4,0.2-0.7
		C179.4,182.6,179.5,181.3,179.5,179.2z M181.6,171.8v5.6c0,0.1,0,0.2,0,0.2l0.1,0.1c0.2,0.1,0.5,0.1,0.7,0.1s0.5,0,0.7,0
		c0.4,0,0.6,0,0.8-0.1c0.2,0,0.3-0.1,0.5-0.2c0.7-0.5,1.1-1.5,1.1-2.8c0-1.2-0.3-2-0.9-2.6c-0.6-0.5-1.2-0.8-1.9-0.8
		c-0.5,0-0.8,0-1,0.1C181.7,171.5,181.6,171.6,181.6,171.8z"/>
	<path class="st3" d="M201.2,177.7v1.5c0,1.1,0,2,0,2.6s0,1.1,0.1,1.3c0,0.3,0.1,0.6,0.2,0.7c0.1,0.2,0.3,0.3,0.5,0.3
		c0.3,0,0.7,0.1,0.9,0.1s0.3,0.1,0.3,0.2c0,0.1-0.1,0.2-0.4,0.2c-0.3,0-0.6,0-0.9,0c-0.3,0-0.6,0-0.9,0c-0.2,0-0.4,0-0.5,0
		s-0.3,0-0.5,0s-0.3,0-0.5,0c-0.1,0-0.3,0-0.5,0s-0.5,0-0.7,0c-0.3,0-0.5,0-0.6,0c-0.3,0-0.4-0.1-0.4-0.2c0-0.1,0.1-0.2,0.3-0.2
		s0.4,0,0.7-0.1c0.2,0,0.3-0.1,0.4-0.3c0.1-0.2,0.1-0.4,0.2-0.7c0.1-0.5,0.1-1.8,0.1-4v-3.3c0-0.7,0-1.3,0-1.9s0-1,0-1.2
		s0-0.5,0-0.8s-0.1-0.6-0.2-0.7c-0.1-0.2-0.3-0.3-0.6-0.3c-0.1,0-0.4-0.1-0.7-0.1c-0.2,0-0.3,0-0.3-0.1s0.1-0.2,0.4-0.2
		c0.2,0,0.5,0,1,0c0.4,0,0.8,0,1.1,0s0.5,0,0.6,0c0.8,0,1.9,0,3.1,0c1.2,0,1.8,0,1.8,0c0.4,0,0.7,0,0.8-0.1c0,0,0.1,0,0.2-0.1
		c0.1,0,0.1,0,0.1,0c0.1,0,0.1,0.1,0.1,0.2c0,0.1,0,0.2-0.1,0.3s-0.1,0.3-0.1,0.5s0,0.5,0,0.9s0,0.6,0,0.7c0,0.2-0.1,0.3-0.2,0.3
		c-0.1,0-0.2-0.1-0.2-0.3c0-0.3,0-0.6-0.1-0.7c-0.1-0.2-0.2-0.3-0.4-0.4c-0.2-0.1-0.5-0.2-0.8-0.2l-2.8-0.1c-0.1,0-0.2,0.1-0.2,0.3
		v4.7c0,0.1,0,0.2,0.1,0.2h2.4c0.4,0,0.7,0,0.8,0c0.4,0,0.6-0.1,0.8-0.3c0.1-0.1,0.2-0.2,0.2-0.2c0.1,0,0.1,0.1,0.1,0.2
		c0,0,0,0.1-0.1,0.4c0,0.3-0.1,0.5-0.1,0.8c0,0.5-0.1,0.9-0.1,1.4c0,0.2-0.1,0.3-0.2,0.3c-0.1,0-0.1-0.1-0.1-0.3s0-0.3-0.1-0.6
		c-0.1-0.4-0.4-0.6-0.9-0.7c-0.3,0-0.6,0-1.2,0c-0.5,0-1.1,0-1.5,0C201.2,177.5,201.2,177.6,201.2,177.7z"/>
	<path class="st3" d="M215.7,184.9c-1.3,0-2.4-0.2-3.3-0.6c-0.9-0.4-1.7-1-2.3-1.7s-1.1-1.5-1.3-2.4c-0.3-0.9-0.4-1.7-0.4-2.6
		c0-1.2,0.3-2.3,0.8-3.4c0.5-1.1,1.4-2,2.5-2.8c1.1-0.7,2.6-1.1,4.3-1.1c1.1,0,2.2,0.2,3.1,0.5c0.9,0.3,1.7,0.8,2.4,1.4
		c0.6,0.6,1.1,1.3,1.5,2.2s0.5,1.8,0.5,2.9c0,1.4-0.3,2.7-0.9,3.9c-0.6,1.2-1.5,2.1-2.7,2.7C218.6,184.5,217.2,184.9,215.7,184.9z
		 M216.5,183.9c0.6,0,1.2-0.1,1.8-0.4c0.6-0.3,1.2-0.9,1.7-1.8c0.5-0.9,0.7-2.2,0.7-3.8c0-1.3-0.2-2.5-0.7-3.5s-1.1-1.8-1.9-2.4
		c-0.8-0.6-1.7-0.8-2.7-0.8c-0.6,0-1.1,0.1-1.7,0.3c-0.5,0.2-1,0.5-1.4,0.9s-0.8,1-1,1.8c-0.3,0.8-0.4,1.7-0.4,2.8
		c0,1,0.1,1.8,0.4,2.7c0.3,0.8,0.6,1.6,1.1,2.2c0.5,0.6,1.1,1.1,1.8,1.5C214.9,183.7,215.6,183.9,216.5,183.9z"/>
	<path class="st3" d="M227.4,179.2v-3.3c0-0.7,0-1.3,0-1.9s0-1,0-1.2s0-0.5,0-0.8s-0.1-0.6-0.2-0.7c-0.1-0.2-0.3-0.3-0.6-0.3
		c-0.1,0-0.4-0.1-0.7-0.1c-0.2,0-0.3-0.1-0.3-0.2c0-0.1,0.1-0.2,0.4-0.2c0.2,0,0.6,0,1,0s0.8,0,1,0c0.3,0,0.4,0,0.5,0
		c0.2,0,0.4,0,0.6,0c0.3,0,0.5,0,0.8,0s0.5,0,0.6,0s0.3,0,0.6,0c1.5,0,2.6,0.3,3.4,0.8c0.3,0.2,0.6,0.5,0.9,1c0.3,0.5,0.4,1,0.4,1.5
		s-0.1,0.9-0.2,1.4c-0.2,0.4-0.4,0.9-0.8,1.4c-0.4,0.5-0.8,0.9-1.4,1.4c0.7,0.9,1.3,1.6,1.7,2.2c0.4,0.5,0.8,1,1.2,1.5
		c0.4,0.4,0.7,0.9,1.1,1.2c0.4,0.5,0.8,0.8,1.1,0.9c0.3,0.2,0.6,0.3,0.9,0.3c0.2,0,0.4,0.1,0.5,0.1c0.2,0,0.2,0.1,0.2,0.2
		c0,0.1-0.1,0.2-0.3,0.2H238c-0.5,0-0.9,0-1.2-0.1s-0.6-0.1-0.8-0.3c-0.4-0.2-0.7-0.5-1.1-0.9c-0.4-0.4-0.8-1-1.4-1.8
		c-0.3-0.3-0.6-0.8-1-1.5c-0.4-0.6-0.7-1-0.8-1.1s-0.2-0.1-0.3-0.1h-1.6c-0.1,0-0.1,0-0.1,0.1v0.3c0,1.1,0,2,0,2.6s0,1.1,0.1,1.4
		c0,0.3,0.1,0.6,0.2,0.7c0.1,0.2,0.3,0.3,0.5,0.3c0.4,0,0.7,0.1,0.9,0.1s0.2,0.1,0.2,0.2c0,0.1-0.1,0.2-0.4,0.2c-0.3,0-0.6,0-0.9,0
		c-0.3,0-0.6,0-0.9,0c-0.3,0-0.4,0-0.6,0c-0.1,0-0.2,0-0.4,0s-0.3,0-0.4,0c-0.1,0-0.3,0-0.5,0s-0.4,0-0.7,0s-0.5,0-0.7,0
		s-0.4-0.1-0.4-0.2c0-0.1,0.1-0.2,0.3-0.2s0.4,0,0.7-0.1c0.2,0,0.3-0.1,0.4-0.3c0.1-0.2,0.1-0.4,0.2-0.7
		C227.3,182.6,227.4,181.3,227.4,179.2z M229.5,171.8v5.6c0,0.1,0,0.2,0,0.2l0.1,0.1c0.2,0.1,0.5,0.1,0.7,0.1s0.5,0,0.7,0
		c0.4,0,0.6,0,0.8-0.1c0.2,0,0.3-0.1,0.5-0.2c0.7-0.5,1.1-1.5,1.1-2.8c0-1.2-0.3-2-0.9-2.6c-0.6-0.5-1.2-0.8-1.9-0.8
		c-0.5,0-0.8,0-1,0.1C229.6,171.5,229.5,171.6,229.5,171.8z"/>
	<path class="st3" d="M249,184.2l-3.9-11.8c-0.2-0.7-0.5-1.1-0.7-1.3c-0.2-0.1-0.4-0.2-0.7-0.2c-0.1,0-0.2,0-0.2,0
		c-0.1,0-0.1-0.1-0.1-0.1c0-0.1,0.1-0.2,0.4-0.2c0.2,0,0.5,0,0.9,0s0.8,0,1.2,0s0.8,0,1.1,0s0.6,0,0.9,0c0.3,0,0.4,0.1,0.4,0.2
		c0,0.1-0.1,0.2-0.3,0.2s-0.4,0-0.5,0.1s-0.2,0.2-0.2,0.4c0,0.1,0.1,0.7,0.4,1.7c0.1,0.2,0.3,1,0.7,2.3s0.7,2.3,0.9,3.2
		c0.3,0.8,0.5,1.7,0.8,2.5h0.1l3.6-9.7c0.2-0.4,0.3-0.7,0.5-0.7c0.1,0,0.2,0.1,0.2,0.2c0.1,0.1,0.2,0.4,0.3,0.7l3.8,9.3h0.1
		c0.1-0.4,0.3-1,0.5-1.6c0.2-0.7,0.4-1.2,0.5-1.7s0.4-1.4,0.8-2.8c0.4-1.4,0.6-2.1,0.7-2.2c0.1-0.4,0.2-0.8,0.2-1.1
		c0-0.4-0.3-0.6-0.9-0.6c-0.2,0-0.3-0.1-0.3-0.2c0-0.1,0.1-0.2,0.4-0.2c0.2,0,0.5,0,0.8,0s0.6,0,0.8,0c0.2,0,0.3,0,0.3,0
		s0.1,0,0.2,0c0.2,0,0.4,0,0.7,0c0.3,0,0.5,0,0.6,0c0.2,0,0.3,0.1,0.3,0.2c0,0.1-0.1,0.2-0.3,0.2c-0.3,0-0.5,0-0.6,0.1
		c-0.2,0.1-0.3,0.2-0.4,0.4s-0.3,0.7-0.6,1.5c-0.2,0.5-0.5,1.4-0.9,2.7s-1,2.9-1.5,4.7c-0.6,1.8-1,3-1.2,3.7
		c-0.1,0.3-0.2,0.5-0.3,0.7c-0.1,0.1-0.2,0.2-0.3,0.2c-0.1,0-0.2-0.1-0.2-0.2c-0.1-0.1-0.2-0.4-0.3-0.8l-3.8-9.3l0,0
		c-1.9,5-3.1,8.1-3.6,9.2c-0.2,0.4-0.3,0.6-0.4,0.8c-0.1,0.1-0.2,0.2-0.3,0.2s-0.2-0.1-0.2-0.2C249.2,184.6,249.1,184.4,249,184.2z"
		/>
	<path class="st3" d="M266.7,179.2v-3.3c0-0.7,0-1.3,0-1.9s0-1,0-1.2s0-0.5,0-0.8c0-0.6-0.2-0.9-0.6-1c-0.2-0.1-0.4-0.1-0.7-0.1
		c-0.2,0-0.3-0.1-0.3-0.2c0-0.1,0.1-0.2,0.4-0.2c0.1,0,0.5,0,1,0s0.8,0,1,0s0.3,0,0.4,0s0.2,0,0.5,0c0.2,0,0.6,0,0.9,0
		c0.4,0,0.7,0,0.8,0c0.3,0,0.4,0.1,0.4,0.2c0,0.1-0.1,0.2-0.3,0.2c-0.2,0-0.3,0-0.5,0.1c-0.2,0-0.4,0.1-0.5,0.3s-0.2,0.4-0.2,0.7
		s0,0.7,0,1.1c0,0.4,0,1.4,0,2.9v3.3c0,0.4,0,0.8,0,1.3c0,0.4,0,0.8,0,1.1s0,0.6,0,0.9c0,0.3,0,0.5,0,0.8s0.1,0.5,0.2,0.6
		s0.3,0.2,0.5,0.3c0.3,0,0.7,0.1,0.9,0.1c0.2,0,0.3,0.1,0.3,0.2c0,0.1-0.1,0.2-0.3,0.2c-0.3,0-0.6,0-0.9,0s-0.6,0-0.9,0
		s-0.4,0-0.6,0s-0.3,0-0.5,0s-0.3,0-0.4,0s-0.3,0-0.5,0s-0.5,0-0.7,0c-0.3,0-0.5,0-0.7,0s-0.4-0.1-0.4-0.2c0-0.1,0.1-0.2,0.3-0.2
		c0.2,0,0.4,0,0.7-0.1c0.2,0,0.3-0.1,0.4-0.3s0.1-0.4,0.2-0.7c0-0.3,0.1-0.7,0.1-1c0-0.4,0-0.8,0-1.4
		C266.7,180.3,266.7,179.8,266.7,179.2z"/>
	<path class="st3" d="M276.7,184.9c-1.1,0-1.9-0.2-2.7-0.5c-0.2-0.1-0.2-0.2-0.3-0.2c0-0.1-0.1-0.2-0.1-0.4c0-0.3,0-0.5,0-0.8
		s0-0.5,0-0.7s0-0.4,0-0.6c0-0.2,0-0.3,0-0.4c0-0.3,0.1-0.5,0.2-0.5s0.2,0.1,0.2,0.3c0,0.3,0.1,0.6,0.2,1c0.2,0.7,0.5,1.1,1,1.4
		c0.5,0.3,1,0.4,1.6,0.4c0.4,0,0.7-0.1,1.1-0.2c0.3-0.1,0.6-0.3,0.8-0.5c0.2-0.2,0.4-0.4,0.5-0.7c0.1-0.2,0.2-0.5,0.2-0.8
		c0-0.5-0.1-1-0.4-1.5c-0.2-0.5-0.7-1-1.4-1.5l-0.9-0.7c-0.6-0.5-1.2-1-1.6-1.5s-0.7-1-0.9-1.4c-0.2-0.5-0.3-1-0.3-1.5
		c0-0.7,0.2-1.3,0.5-1.8s0.9-1,1.5-1.3s1.4-0.5,2.2-0.5c0.9,0,1.7,0.1,2.5,0.3c0.2,0.1,0.3,0.1,0.3,0.2c0,0,0,0.2,0,0.7s0,1,0,1.6
		c0,0.4-0.1,0.5-0.2,0.5s-0.2-0.1-0.2-0.3c0-0.1,0-0.2,0-0.3s-0.1-0.3-0.1-0.4c-0.1-0.2-0.2-0.3-0.3-0.5c-0.5-0.6-1.1-0.9-2-0.9
		c-0.7,0-1.2,0.2-1.6,0.5s-0.6,0.8-0.6,1.4c0,0.4,0.1,0.8,0.4,1.2s0.8,0.9,1.5,1.4l0.5,0.4c0.5,0.4,1,0.8,1.4,1.2s0.7,0.8,0.9,1.1
		s0.4,0.7,0.5,1.1c0.1,0.4,0.2,0.8,0.2,1.3c0,0.6-0.1,1.2-0.4,1.8s-0.7,1.1-1.3,1.5C278.8,184.6,277.8,184.9,276.7,184.9z"/>
	<path class="st3" d="M285.7,179.2v-3.3c0-0.7,0-1.3,0-1.9s0-1,0-1.2s0-0.5,0-0.8s-0.1-0.6-0.2-0.7c-0.1-0.2-0.3-0.3-0.6-0.3
		c-0.1,0-0.4-0.1-0.7-0.1c-0.2,0-0.3-0.1-0.3-0.2c0-0.1,0.1-0.2,0.4-0.2c0.2,0,0.6,0,1,0s0.8,0,1.1,0c0.3,0,0.5,0,0.6,0
		c2.8,0,4.4,0,4.6,0c0.4-0.1,0.7-0.1,0.8-0.1h0.1c0.1,0,0.1,0,0.2,0s0.1,0.1,0.1,0.2c0,0,0,0.2-0.1,0.4c0,0.2-0.1,0.5-0.1,0.8
		c0,0.2,0,0.4,0,0.7s0,0.5-0.1,0.6c0,0.1-0.1,0.2-0.2,0.2s-0.2-0.1-0.2-0.3c0-0.3,0-0.5-0.1-0.7s-0.2-0.3-0.4-0.4
		c-0.2-0.1-0.5-0.2-0.9-0.2s-1.3-0.1-2.6-0.1c-0.1,0-0.1,0.1-0.1,0.2v4.7c0,0.1,0,0.2,0.1,0.2c1.7,0,2.7,0,2.9,0
		c0.5,0,0.8-0.1,0.9-0.3s0.2-0.3,0.3-0.3c0.1,0,0.1,0.1,0.1,0.2c0,0,0,0.2-0.1,0.4c0,0.2-0.1,0.6-0.1,0.9c0,0.5-0.1,0.9-0.1,1.2
		c0,0.2-0.1,0.3-0.2,0.3s-0.2-0.1-0.2-0.2c0-0.1,0-0.2,0-0.2c0-0.1,0-0.2,0-0.2c0-0.1,0-0.1,0-0.2c-0.1-0.4-0.5-0.7-1-0.7
		c-0.3,0-1.2-0.1-2.6-0.1c-0.1,0-0.1,0.1-0.1,0.2v1.5v2.9c0,0.3,0,0.6,0.1,0.8s0.2,0.4,0.3,0.5c0.1,0.1,0.4,0.2,0.6,0.2
		c0.3,0,0.7,0.1,1.1,0.1s0.7,0,1,0s0.5-0.1,0.7-0.2c0.2-0.1,0.4-0.3,0.5-0.5s0.2-0.5,0.3-0.9c0-0.2,0.1-0.3,0.2-0.3s0.1,0.1,0.1,0.3
		s0,0.5-0.1,1s-0.1,0.8-0.2,1.1c-0.1,0.2-0.1,0.4-0.3,0.4c-0.1,0-0.4,0.1-0.7,0.1c-0.9,0-1.7,0-2.3,0c-0.6,0-1.2,0-1.6-0.1
		c-0.5,0-0.9,0-1.2,0c-0.2,0-0.3,0-0.4,0s-0.3,0-0.5,0s-0.5,0-0.7,0c-0.3,0-0.5,0-0.7,0s-0.4-0.1-0.4-0.2c0-0.1,0.1-0.2,0.3-0.2
		c0.2,0,0.4,0,0.7-0.1c0.2,0,0.3-0.1,0.4-0.3s0.1-0.4,0.2-0.7C285.7,182.6,285.7,181.3,285.7,179.2z"/>
	<path class="st3" d="M309.3,181.3v2c0,0.3,0,0.4,0,0.5s-0.1,0.1-0.2,0.2c-1.1,0.6-2.5,0.8-4.4,0.8c-1.2,0-2.2-0.1-3.3-0.4
		c-1-0.3-1.9-0.7-2.7-1.3c-0.8-0.6-1.4-1.4-1.9-2.3c-0.4-0.9-0.7-2-0.7-3.2c0-0.9,0.1-1.8,0.4-2.6s0.7-1.5,1.2-2.1s1-1,1.6-1.4
		c0.6-0.3,1.1-0.6,1.7-0.8c0.5-0.2,1.1-0.3,1.6-0.3c0.5-0.1,1.1-0.1,1.7-0.1s1.2,0,1.9,0.1c0.7,0.1,1.2,0.1,1.4,0.2
		c0.5,0.1,1,0.2,1.5,0.2c0.2,0,0.3,0.1,0.3,0.2c0,0,0,0.1,0,0.3s0,0.6-0.1,1.1c0,0.5,0,1,0,1.6c0,0.3-0.1,0.4-0.2,0.4
		s-0.2-0.1-0.2-0.3c-0.1-0.7-0.3-1.2-0.6-1.5c-0.3-0.4-0.9-0.7-1.6-1s-1.6-0.4-2.5-0.4c-0.4,0-0.8,0-1.2,0.1c-0.4,0-0.8,0.2-1.2,0.3
		c-0.4,0.2-0.8,0.4-1.2,0.7c-1.1,1-1.7,2.5-1.7,4.6c0,1.3,0.3,2.5,0.8,3.6s1.3,1.9,2.3,2.5s2.1,0.9,3.3,0.9c0.7,0,1.3-0.1,1.6-0.2
		c0.2-0.1,0.3-0.4,0.3-0.7v-1.7c0-1.1,0-1.8,0-2.2c0-0.3-0.1-0.6-0.2-0.7s-0.3-0.3-0.6-0.3c-0.2,0-0.4-0.1-0.7-0.1
		c-0.2,0-0.3-0.1-0.3-0.2c0-0.1,0.1-0.2,0.4-0.2s0.6,0,0.8,0c0.2,0,0.4,0,0.6,0s0.5,0,0.7,0s0.4,0,0.6,0c0.1,0,0.3,0,0.5,0
		s0.4,0,0.6,0s0.4,0,0.5,0s0.3,0,0.5,0s0.4,0.1,0.4,0.2c0,0.1-0.1,0.2-0.2,0.2s-0.3,0-0.5,0.1s-0.4,0.2-0.5,0.3
		c-0.1,0.2-0.2,0.4-0.2,0.7c0,0.1,0,0.3,0,0.6s0,0.6,0,0.8C309.3,180.7,309.3,181,309.3,181.3z"/>
	<path class="st3" d="M313.7,178.7V176c0-0.7,0-1.3,0-1.9s0-1,0-1.2s0-0.5,0-0.8s-0.1-0.6-0.2-0.7c-0.1-0.2-0.3-0.3-0.6-0.3
		c-0.1,0-0.4-0.1-0.7-0.1c-0.2,0-0.3-0.1-0.3-0.2c0-0.1,0.1-0.2,0.4-0.2c0.2,0,0.6,0,1,0s0.8,0,1.1,0c0.3,0,0.5,0,0.6,0s0.2,0,0.4,0
		c0.2,0,0.5,0,1,0c0.4,0,0.7,0,0.9,0c0.3,0,0.4,0.1,0.4,0.2c0,0.1-0.1,0.2-0.3,0.2c-0.1,0-0.3,0-0.5,0.1c-0.2,0-0.4,0.1-0.5,0.3
		s-0.2,0.4-0.2,0.7s0,0.7,0,1.1c0,0.4,0,1.4,0,2.9v2.6c0,1.3,0.1,2.2,0.4,2.9c0.2,0.7,0.6,1.2,1.1,1.6c0.4,0.3,0.7,0.5,1.1,0.6
		s0.8,0.2,1.2,0.2c0.4,0,0.9-0.1,1.3-0.2c0.5-0.2,0.9-0.4,1.2-0.8c0.5-0.5,0.7-1,0.9-1.7c0.1-0.7,0.2-1.7,0.2-2.9v-2.3
		c0-0.7,0-1.3,0-1.9s0-1,0-1.2s0-0.5,0-0.8s-0.1-0.6-0.2-0.7c-0.1-0.2-0.3-0.3-0.6-0.3c-0.1,0-0.4-0.1-0.7-0.1
		c-0.2,0-0.3-0.1-0.3-0.2c0-0.1,0.1-0.2,0.4-0.2c0.2,0,0.5,0,0.9,0s0.7,0,0.9,0c0.2,0,0.3,0,0.3,0s0.1,0,0.4,0c0.2,0,0.5,0,0.9,0
		s0.7,0,0.8,0c0.3,0,0.4,0.1,0.4,0.2c0,0.1-0.1,0.2-0.3,0.2c-0.1,0-0.3,0-0.5,0.1c-0.2,0-0.4,0.1-0.5,0.3s-0.2,0.4-0.2,0.7
		s0,0.7,0,1.1c0,0.4,0,1.4,0,2.9v2c0,1.3-0.1,2.4-0.3,3.3c-0.2,0.9-0.7,1.7-1.4,2.3c-0.6,0.5-1.2,0.9-1.8,1.1
		c-0.6,0.2-1.3,0.3-2,0.3s-1.4-0.1-2.1-0.2c-0.7-0.2-1.3-0.5-1.9-1.1c-0.5-0.5-0.9-1.1-1.2-1.9C313.8,180.9,313.7,179.9,313.7,178.7
		z"/>
	<path class="st3" d="M332.2,181.3v-1.5c0-0.4,0-0.8-0.1-1.1s-0.2-0.6-0.3-0.9c0-0.1-0.3-0.5-0.7-1.1s-0.9-1.4-1.4-2.4
		c-0.6-0.9-0.9-1.5-1.1-1.8c-0.4-0.7-0.9-1.1-1.3-1.4c-0.3-0.2-0.6-0.2-0.8-0.2c-0.2,0-0.3-0.1-0.3-0.2c0-0.1,0.1-0.2,0.4-0.2
		c0,0,0.2,0,0.3,0c0.2,0,0.5,0,1,0s0.8,0,1,0c0.1,0,0.2,0,0.4,0c0.2,0,0.5,0,0.8,0s0.6,0,0.8,0c0.2,0,0.3,0.1,0.3,0.2
		c0,0,0,0.1-0.1,0.1s-0.2,0.1-0.3,0.1c-0.2,0-0.3,0.2-0.3,0.3s0.1,0.3,0.2,0.6c0.1,0.1,0.3,0.6,0.8,1.4c0.4,0.8,0.9,1.6,1.4,2.5
		s0.8,1.4,1,1.7c0-0.1,0.2-0.3,0.4-0.8c0.3-0.5,0.6-1,0.9-1.7c0.4-0.7,0.7-1.2,0.9-1.7c0.2-0.5,0.4-0.8,0.5-0.9
		c0.2-0.4,0.3-0.7,0.3-1c0-0.2-0.1-0.4-0.4-0.5c-0.2,0-0.3-0.1-0.3-0.2c0-0.1,0.1-0.2,0.3-0.2c0.1,0,0.3,0,0.6,0c0.3,0,0.5,0,0.7,0
		s0.3,0,0.5,0c0.1,0,0.3,0,0.5,0s0.4,0,0.6,0s0.4,0,0.5,0s0.2,0,0.4,0c0.2,0,0.3,0.1,0.3,0.2c0,0.1-0.1,0.2-0.3,0.2
		c-0.3,0-0.5,0.1-0.8,0.2c-0.2,0.1-0.3,0.2-0.5,0.3c-0.1,0.1-0.3,0.3-0.5,0.6s-0.6,0.8-1.1,1.7s-1,1.7-1.5,2.6
		c-0.5,0.9-0.8,1.4-0.9,1.6c-0.1,0.3-0.2,0.6-0.2,0.9s0,0.6,0,1v1.5c0,0.7,0,1.3,0.1,1.8c0,0.3,0.1,0.6,0.2,0.7
		c0.1,0.2,0.3,0.3,0.5,0.3c0.3,0,0.7,0.1,0.9,0.1c0.2,0,0.3,0.1,0.3,0.2c0,0.1-0.1,0.2-0.4,0.2s-0.6,0-0.9,0s-0.6,0-0.9,0
		c-0.2,0-0.4,0-0.6,0s-0.3,0-0.5,0s-0.3,0-0.4,0s-0.3,0-0.5,0s-0.5,0-0.7,0s-0.5,0-0.6,0c-0.3,0-0.4-0.1-0.4-0.2
		c0-0.1,0.1-0.2,0.3-0.2c0.2,0,0.4,0,0.6-0.1c0.3-0.1,0.5-0.4,0.6-1C332.2,182.6,332.2,182,332.2,181.3z"/>
	<path class="st3" d="M344.1,184.9c-1.1,0-1.9-0.2-2.7-0.5c-0.2-0.1-0.2-0.2-0.3-0.2c0-0.1-0.1-0.2-0.1-0.4c0-0.3,0-0.5,0-0.8
		s0-0.5,0-0.7s0-0.4,0-0.6c0-0.2,0-0.3,0-0.4c0-0.3,0.1-0.5,0.2-0.5s0.2,0.1,0.2,0.3c0,0.3,0.1,0.6,0.2,1c0.2,0.7,0.5,1.1,1,1.4
		c0.5,0.3,1,0.4,1.6,0.4c0.4,0,0.7-0.1,1.1-0.2c0.3-0.1,0.6-0.3,0.8-0.5c0.2-0.2,0.4-0.4,0.5-0.7c0.1-0.2,0.2-0.5,0.2-0.8
		c0-0.5-0.1-1-0.4-1.5c-0.2-0.5-0.7-1-1.4-1.5l-0.9-0.7c-0.6-0.5-1.2-1-1.6-1.5s-0.7-1-0.9-1.4c-0.2-0.5-0.3-1-0.3-1.5
		c0-0.7,0.2-1.3,0.5-1.8s0.9-1,1.5-1.3s1.4-0.5,2.2-0.5c0.9,0,1.7,0.1,2.5,0.3c0.2,0.1,0.3,0.1,0.3,0.2c0,0,0,0.2,0,0.7s0,1,0,1.6
		c0,0.4-0.1,0.5-0.2,0.5s-0.2-0.1-0.2-0.3c0-0.1,0-0.2,0-0.3s-0.1-0.3-0.1-0.4c-0.1-0.2-0.2-0.3-0.3-0.5c-0.5-0.6-1.1-0.9-2-0.9
		c-0.7,0-1.2,0.2-1.6,0.5s-0.6,0.8-0.6,1.4c0,0.4,0.1,0.8,0.4,1.2s0.8,0.9,1.5,1.4l0.5,0.4c0.5,0.4,1,0.8,1.4,1.2s0.7,0.8,0.9,1.1
		s0.4,0.7,0.5,1.1c0.1,0.4,0.2,0.8,0.2,1.3c0,0.6-0.1,1.2-0.4,1.8s-0.7,1.1-1.3,1.5C346.3,184.6,345.3,184.9,344.1,184.9z"/>
</g>
</svg>
